/* XPM */
static char *result[] = {
/* columns rows colors chars-per-pixel */
"64 64 216 2 ",
"   c #00021D",
".  c #18181A",
"X  c #080B26",
"o  c #0B0F29",
"O  c #181923",
"+  c #191B2C",
"@  c #14192D",
"#  c #191B33",
"$  c #181E3D",
"%  c #0C132F",
"&  c #1D232C",
"*  c #1D282B",
"=  c #1A2234",
"-  c #1B243C",
";  c #1B2A3D",
":  c #15223F",
">  c #20262D",
",  c #222535",
"<  c #21253C",
"1  c #232A3E",
"2  c #262B38",
"3  c #342F3D",
"4  c #31383A",
"5  c #2E373A",
"6  c #335017",
"7  c #445E2A",
"8  c #1C2642",
"9  c #1B2A43",
"0  c #1C2B4A",
"q  c #132C4A",
"w  c #1C344B",
"e  c #133454",
"r  c #1C3551",
"t  c #1D3A54",
"y  c #1A3B5B",
"u  c #153759",
"i  c #212741",
"p  c #232B43",
"a  c #242C49",
"s  c #243346",
"d  c #2B3346",
"f  c #24324C",
"g  c #2C3149",
"h  c #2D3B4B",
"j  c #20384F",
"k  c #323544",
"l  c #32364C",
"z  c #353B4C",
"x  c #383A47",
"c  c #2B3650",
"v  c #223A55",
"b  c #2D3A53",
"n  c #233E5A",
"m  c #273757",
"M  c #343C53",
"N  c #363E55",
"B  c #1E3F62",
"V  c #1F425B",
"C  c #36414E",
"Z  c #26425C",
"A  c #354156",
"S  c #3C4552",
"D  c #34415D",
"F  c #3C445B",
"G  c #3E4A5C",
"H  c #1D4364",
"J  c #1F4A6C",
"K  c #1F5075",
"L  c #224465",
"P  c #2A4A66",
"I  c #234B6C",
"U  c #2B4D6D",
"Y  c #264566",
"T  c #3A4764",
"R  c #3D4C63",
"E  c #384967",
"W  c #2B506C",
"Q  c #2B5576",
"!  c #2C5579",
"~  c #245479",
"^  c #345872",
"/  c #30546B",
"(  c #43434D",
")  c #434B5C",
"_  c #464756",
"`  c #4D525C",
"'  c #47505E",
"]  c #514D5A",
"[  c #424B63",
"{  c #434F6A",
"}  c #404760",
"|  c #435364",
" . c #4A5665",
".. c #4D5A66",
"X. c #45536B",
"o. c #4B546B",
"O. c #4C5A6D",
"+. c #5A5C65",
"@. c #545B6C",
"#. c #555C67",
"$. c #4D5B73",
"%. c #485975",
"&. c #535C75",
"*. c #575F76",
"=. c #5A626C",
"-. c #536376",
";. c #56637C",
":. c #5A657C",
">. c #596778",
",. c #2D5D82",
"<. c #275A80",
"1. c #2E6388",
"2. c #3A6D8E",
"3. c #3C769B",
"4. c #3C7395",
"5. c #38708E",
"6. c #5C6781",
"7. c #5D6C84",
"8. c #5A6F89",
"9. c #5B738C",
"0. c #457B9E",
"q. c #447898",
"w. c #546F8B",
"e. c #616C84",
"r. c #63768D",
"t. c #69788D",
"y. c #667B93",
"u. c #6B7D94",
"i. c #647791",
"p. c #717B92",
"a. c #417DA0",
"s. c #5B829E",
"d. c #6B8399",
"f. c #728396",
"g. c #788A9E",
"h. c #4582A4",
"j. c #4B89AC",
"k. c #4A83A4",
"l. c #5285A4",
"z. c #538BAC",
"x. c #5786A5",
"c. c #538DB1",
"v. c #5491B3",
"b. c #5B94B5",
"n. c #5D97B9",
"m. c #4C89B1",
"M. c #668BA6",
"N. c #7A8EA2",
"B. c #778AA0",
"V. c #6992AC",
"C. c #7D94AA",
"Z. c #6294B3",
"A. c #6298B6",
"S. c #659BBC",
"D. c #6C9DBB",
"F. c #6B98B4",
"G. c #759DB6",
"H. c #789BB4",
"J. c #6CA0BE",
"K. c #75A1BB",
"L. c #7CA5BE",
"P. c #69A4C6",
"I. c #74A5C3",
"U. c #7AA7C3",
"Y. c #79A9C6",
"T. c #79A9C7",
"R. c #7AB0CD",
"E. c #818D9F",
"W. c #9BA98D",
"Q. c #8497AA",
"!. c #889DB2",
"~. c #81A6BD",
"^. c #89A5BB",
"/. c #92A8BA",
"(. c #83ABC5",
"). c #8AACC3",
"_. c #83AEC9",
"`. c #87A7C1",
"'. c #92AEC4",
"]. c #8CB2CB",
"[. c #85B1CD",
"{. c #95B2C6",
"}. c #9BB2C5",
"|. c #92B5CC",
" X c #9BB4CA",
".X c #95B9CF",
"XX c #9CBACC",
"oX c #89B6D2",
"OX c #9DBCD2",
"+X c #93BAD2",
"@X c #AAB4C5",
"#X c #A4B7C9",
"$X c #A6BACD",
"%X c #ADBACB",
"&X c #A2B6C7",
"*X c #B2BCCD",
"=X c #A4BDD3",
"-X c #ABBED1",
";X c #A0BFD8",
":X c #B3BFD1",
">X c #9DC2D7",
",X c #A4C1D4",
"<X c #ABC2D6",
"1X c #A6C4D9",
"2X c #ADC5D9",
"3X c #ADCADA",
"4X c #B5C2D4",
"5X c #BAC4D5",
"6X c #B4C6D9",
"7X c #BCC6D8",
"8X c #B4CBDB",
"9X c #BEC9DB",
"0X c #B6CDE2",
"qX c #C1CBDC",
"wX c #C5CFE1",
"eX c #000000",
/* pixels */
"eXeXeXeXeXeXeXeXeXeXeXeXeXeXeXeXeXeXeXeXeXeXeXeXeXeXeXeXeXeXeXeXeXeXeXeXeXeXeXeXeXeXeXeXeXeXeXeXeXeXeXeXeXeXeXeXeXeXeXeXeXeXeXeX",
"eXeXeXeXeXeXeXeXeXeXeXeXeXeXeXeXeXeXeXeXeXeXeXeXeXeXeXeXeXeXeXeXeXeXeXeXeXeXeXeXeXeXeXeXeXeXeXeXeXeXeXeXeXeXeXeXeXeXeXeXeXeXeXeX",
"eXeXeXeXeXeXeXeXeXeXeXeXeXeXeXeXeXeXeXeXeXeXeXeXeXeXeXeXeXeXeXeXeXeXeXeXeXeXeXeXeXeXeXeXeXeXeXeXeXeXeXeXeXeXeXeXeXeXeXeXeXeXeXeX",
"eXeXeXeXeXeXeXeXeXeXeXeXeXeXeXeXeXeXeXeXeXeXeXeXeXeXeXeXeXeXeXeXeXeXeXeXeXeXeXeXeXeXeXeXeXeXeXeXeXeXeXeXeXeXeXeXeXeXeXeXeXeXeXeX",
"eXeXeXeXeXeXeXeXeXeXeXeXeXeXeXeXeXeXeXeXeXeXeXeXeXeXeXeXeXeXeXeXeXeXeXeXeXeXeXeXeXeXeXeXeXeXeXeXeXeXeXeXeXeXeXeXeXeXeXeXeXeXeXeX",
"eXeXeXeXeXeXeXeXeXeXeXeXeXeXeXeXeXeXeXeXeXeXeXeXeXeXeXeXeXeXeXeXeXeXeXeXeXeXeXeXeXeXeXeXeXeXeXeXeXeXeXeXeXeXeXeXeXeXeXeXeXeXeXeX",
"eXeXeXeXeXeXeXeXeXeXeXeXeXeXeXeXeXeXeXeXeXeXeXeXeXeXeXeXeXeXeXeXeXeXeXeXeXeXeXeXeXeXeXeXeXeXeXeXeXeXeXeXeXeXeXeXeXeXeXeXeXeXeXeX",
"eXeXeXeXeXeXeXeXeXeXeXeXeXeXeXeXeXeXeXeXeXeXeXeXeXeXeXeXeXeXeXeXeXeXeXeXeXeXeXeXeXeXeXeXeXeXeXeXeXeXeXeXeXeXeXeXeXeXeXeXeXeXeXeX",
"eXeXeXeXeXD m c c a a eXeXeXeXeXeXeXeXeXeXeXeXeXeXeXeXeXeXeXeXeXeXeXeXeXeXeXeXeXeXeXeXeXeXeXeXeXeXeXeXeXeXeXeXeXeXeXeXeXeXeXeXeX",
"eXeXeXeXT T N c m 8 0 f 0 # # # eXeXeXeXeXeXeXeXeXeXeXeXeXeXeXeXeXeXeXeXeXeXeXeXeXeXeXeXeXeXeXeXeXeXeXeXeXeXeXeXeXeXeXeXeXeXeXeX",
"eXeXeXeXT X.E D N b ; * 4 - + + + . eXeXeXeXeXeXeXeXeXeXeXeXeXeXeXeXeXeXeXeXeXeXeXeXeXeXeXeXeXeXeXeXeXeXeXeXeXeXeXeXeXeXeXeXeXeX",
"eXeXeXeXX.X.E T T D & 7 W.4 8 = 1 & O O eXeXeXeXeXeXeXeXeXeXeXeXeXeXeXeXeXeXeXeXeXeXeXeXeXeXeXeXeXeXeXeXeXeXeXeXeXeXeXeXeXeXeXeX",
"eXeXeXeX;.6.$.X.{ D > 6 7 * f - ; , , O O & eXeXeXeXeXeXeXeXeXeXeXeXeXeXeXeXeXeXeXeXeXeXeXeXeXeXeXeXeXeXeXeXeXeXeXeXeXeXeXeXeXeX",
"eXeXeXeX6.7.6.6.&.{ R 2 * 1 i o @ # + + , 4 2 + eXeXeXeXeXeXeXeXeXeXeXeXeXeXeXeXeXeXeXeXeXeXeXeXeXeXeXeXeXeXeXeXeXeXeXeXeXeXeXeX",
"eXeXeXeXi.t.6.e.6.X.X.%.R b a o o @ + + S f.t.4 O # eXeXeXeXeXeXeXeXeXeXeXeXeXeXeXeXeXeXeXeXeXeXeXeXeXeXeXeXeXeXeXeXeXeXeXeXeXeX",
"eXeXeXeXeXf.p.t.i.6.%.X.X.R b a o - 9 = 1 -.Q.f.x > i eXeXeXeXeXeXeXeXeXeXeXeXeXeXeXeXeXeXeXeXeXeXeXeXeXeXeXeXeXeXeXeXeXeXeXeXeX",
"eXeXeXeXeXE.E.f.u.y.9.8.%.^ T f % 8 0 - O 1 -.Q.u.G d O eXeXeXeXeXeXeXeXeXeXeXeXeXeXeXeXeXeXeXeXeXeXeXeXeXeXeXeXeXeXeXeXeXeXeXeX",
"eXeXeXeXeXeX!.E.B.u.y.y.9.%.E 0 m v Z v : & 1 z @.C.C.C O # # # eXeXeXeXeXeXeXeXeXeXeXeXeXeXeXeXeXeXeXeXeXeXeXeXeXeXeXeXeXeXeXeX",
"eXeXeXeXeXeX/.!.N.u.9.8.9.%.: q P Z n n y = & @ , $.).Q.S & [ g # # eXeXeXeXeXeXeXeXeXeXeXeXeXeXeXeXeXeXeXeXeXeXeXeXeXeXeXeXeXeX",
"eXeXeXeXeXeXeXQ.N a p 0 9 f -.P r q Y B I y = + = , -.).!.) M O.*.T < # eXeXeXeXeXeXeXeXeXeXeXeXeXeXeXeXeXeXeXeXeXeXeXeXeXeXeXeX",
"eXeXeXeXeXeXeX#XQ.g.f.d.9.9.s.s.P q e W W I B - = = * ..`.^.) + < N &.&.M < # eXeXeXeXeXeXeXeXeXeXeXeXeXeXeXeXeXeXeXeXeXeXeXeXeX",
"eXeXeXeXeXeXeXeX,X/./.^.N.V.V.V.s.h.P e Q ~ I v ; , = = X./.^.S < # # a } o.o.l eXeXeXeXeXeXeXeXeXeXeXeXeXeXeXeXeXeXeXeXeXeXeXeX",
"eXeXeXeXeXeXeXeX&X&X{./.G.d.V.V.V.z.4.L y e H I r ; 9 - , O.C.N.) # } < g # g [ eXeXeXeXeXeXeXeXeXeXeXeXeXeXeXeXeXeXeXeXeXeXeXeX",
"eXeXeXeXeXeXeXeX<X$XXX{.^.K.V.M.x.x.0.0.J e e I H w ; = i 2 ) N.g.l # e.*.&.F p eXeXeXeXeXeXeXeXeXeXeXeXeXeXeXeXeXeXeXeXeXeXeXeX",
"eXeXeXeXeXeXeXeX6X3X,X( ( < L.G.Z.V.l.h.j.4.H e ! H t - # 8 = ) t.[ 1 + &.6.*.eXeXeXeXeXeXeXeXeXeXeXeXeXeXeXeXeXeXeXeXeXeXeXeXeX",
"eXeXeXeXeXeXeXeXeX8X3X,X] *.*.[ R.P.n.v.m.j.3.H u ! Q t = - - p [ u.O.1 O g $.eXeXeXeXeXeXeXeXeXeXeXeXeXeXeXeXeXeXeXeXeXeXeXeXeX",
"eXeXeXeXeXeXeXeXeX8X3X,XOXx -.:.= # J.n.v.j.a.a.H e ! ! t ; - # f d.Q.O.1 + eXeXeXeXeXeXeXeXeXeXeXeXeXeXeXeXeXeXeXeXeXeXeXeXeXeX",
"eXeXeXeXeXeXeXeXeXeX8X,X$X3 _ o.l = @ S.n.m.j.j.h.J u K K P h = # F B.C.F = # eXeXeXeXeXeXeXeXeXeXeXeXeXeXeXeXeXeXeXeXeXeXeXeXeX",
"eXeXeXeXeXeXeXeXeXeXeX3X,X.X].4 X.p Y.I.S.A.v.v.n.m.J e K J y i # - A r.O., O eXeXeXeXeXeXeXeXeXeXeXeXeXeXeXeXeXeXeXeXeXeXeXeXeX",
"eXeXeXeXeXeXeXeXeXeXeXeX,XXX^.).].K.Y.U.D.S.S.A.P.P.c.L y ~ I w @ # = M r.[ # # eXeXeXeXeXeXeXeXeXeXeXeXeXeXeXeXeXeXeXeXeXeXeXeX",
"eXeXeXeXeXeXeXeXeXeXeXeXeX1X.X^.).L.K.Y.I.T.I.Z.n.J.S.z.L y 1.Y ; 9 - p 7.O.p $ # eXeXeXeXeXeXeXeXeXeXeXeXeXeXeXeXeXeXeXeXeXeXeX",
"eXeXeXeXeXeXeXeXeXeXeXeXeX1X>X.X|.~.)._.I.I.T.I.S.Z.A.A.z.H y ,.w 9 q + 2 < = # - eXeXeXeXeXeXeXeXeXeXeXeXeXeXeXeXeXeXeXeXeXeXeX",
"eXeXeXeXeXeXeXeXeXeXeXeXeXeX1X>X.X|.>XoXL.U._._.[.I.S.I.Z.z.L y K r r 9 # # - # - < X eXeXeXeXeXeXeXeXeXeXeXeXeXeXeXeXeXeXeXeXeX",
"eXeXeXeXeXeXeXeXeXeXeXeXeXeX3X1XXX>X|.>X).^.|.oX(.].(.U.U.F.v.L y K V ; 9 1 - - i - X X X eXeXeXeXeXeXeXeXeXeXeXeXeXeXeXeXeXeXeX",
"eXeXeXeXeXeXeXeXeXeXeXeXeXeXeX$X{.XXXXXX>X)..X|.].+X|.+XU.K.S.S.H V 1.t : ; # 1 g - -       eXeXeXeXeXeXeXeXeXeXeXeXeXeXeXeXeXeX",
"eXeXeXeXeXeXeXeXeXeXeXeXeXeXeXeX}.1X$XXX,X X X1X1XOX|.+X+X`.G.U.n.B y Q Z s = # p $ + X X eXeXeXeXeXeXeXeXeXeXeXeXeXeXeXeXeXeXeX",
"eXeXeXeXeXeXeXeXeXeXeXeXeXeXeXeXeX6X=X}.0X=X}. X-X;X{.OX1XOX).(.K.z.y y W y = # 1 i - + eXeXeXeXeXeXeXeXeXeXeXeXeXeXeXeXeXeXeXeX",
"eXeXeXeXeXeXeXeXeXeXeXeXeXeXeXeXeXeX-X}.-X6X#X&X-X:X-X#X;X=X=XOX].D.z.u u W H : # - 9 - eXeXeXeXeXeXeXeXeXeXeXeXeXeXeXeXeXeXeXeX",
"eXeXeXeXeXeXeXeXeXeXeXeXeXeXeXeXeXeXeX#X$X:X:X@X:X6X:X-X-X$X&X=XOX`.D.c.u y I ; - - < 9 a eXeXeXeXeXeXeXeXeXeXeXeXeXeXeXeXeXeXeX",
"eXeXeXeXeXeXeXeXeXeXeXeXeXeXeXeXeXeXeXeX6X5XqX*X%X:X:X:X:X:X$X%X2X=X|.G.c.u 1.w s a 9 8 8 eXeXeXeXeXeXeXeXeXeXeXeXeXeXeXeXeXeXeX",
"eXeXeXeXeXeXeXeXeXeXeXeXeXeXeXeXeXeXeXeXeXqX:X*X*X:X:X:X5XqX*X*X6X-X X`.Y.P.h.1.t p 9 p 8 eXeXeXeXeXeXeXeXeXeXeXeXeXeXeXeXeXeXeX",
"eXeXeXeXeXeXeXeXeXeXeXeXeXeXeXeXeXeXeXeXeXeXqXqXwX:X:X:X*XqX:X*X6X7X-X X~.D.c.3.! w ; - - eXeXeXeXeXeXeXeXeXeXeXeXeXeXeXeXeXeXeX",
"eXeXeXeXeXeXeXeXeXeXeXeXeXeXeXeXeXeXeXeXeXeXeXeX*XqX*X*X*X*X5XqX:X:X-X6X XL.I.j.3.P L 8 8 0 eXeXeXeXeXeXeXeXeXeXeXeXeXeXeXeXeXeX",
"eXeXeXeXeXeXeXeXeXeXeXeXeXeXeXeXeXeXeXeXeXeXeXeXeX7X7X*X:X%X*XqX7X7X@X7X6X'._.S.h.q.^ w 8 $ 8 eXeXeXeXeXeXeXeXeXeXeXeXeXeXeXeXeX",
"eXeXeXeXeXeXeXeXeXeXeXeXeXeXeXeXeXeXeXeXeXeXeXeXeX:.p 7XwX7X%X*XqX:X*XqX6X%X{.U.c.a.q.U s - # # eXeXeXeXeXeXeXeXeXeXeXeXeXeXeXeX",
"eXeXeXeXeXeXeXeXeXeXeXeXeXeXeXeXeXeXeXeXeXeXeXeXeXp.o.i qX9X7X:X5X@X@X:X7X9X8X'.U.l.q.2.Q 9 8 @ # < o.eXeXeXeXeXeXeXeXeXeXeXeXeX",
"eXeXeXeXeXeXeXeXeXeXeXeXeXeXeXeXeXeXeXeXeXeXeXeXeXeXe.g i @.:XqXqXwX*X*X4X7X4X4X|.D.l.0.U r f , _ a # i F o.eXeXeXeXeXeXeXeXeXeX",
"eXeXeXeXeXeXeXeXeXeXeXeXeXeXeXeXeXeXeXeXeXeXeXeXeXeXp.[ i o.p.i qXqXqX@X@X5X5X:X6X`.S.b.0.V a p ] ..o.M # # a O.eXeXeXeXeXeXeXeX",
"eXeXeXeXeXeXeXeXeXeXeXeXeXeXeXeXeXeXeXeXeXeXeXeXeXeXeX:.p i e.F eXeX7X5X*XqX7X*X:X0X`.J.0.a.^ } @._ ( _ ..A < # N eXeXeXeXeXeXeX",
"eXeXeXeXeXeXeXeXeXeXeXeXeXeXeXeXeXeXeXeXeXeXeXeXeXeXeXeXg eXeXeXeXeXeXeXeX5XqX5X@X:X=X).S.q.^ g .. .=.` S S O.[ p # eXeXeXeXeXeX",
"eXeXeXeXeXeXeXeXeXeXeXeXeXeXeXeXeXeXeXeXeXeXeXeXeXeXeXeXeXeXeXeXeXeXeXeXeXeXeXeX%X@X*X=X[.0.2.M ' >.z S =.=.S C -.} # eXeXeXeXeX",
"eXeXeXeXeXeXeXeXeXeXeXeXeXeXeXeXeXeXeXeXeXeXeXeXeXeXeXeXeXeXeXeXeXeXeXeXeXeXeXeX# # *X%X=X[.x.< >.S  .A = d  .=.d [ $.g eXeXeXeX",
"eXeXeXeXeXeXeXeXeXeXeXeXeXeXeXeXeXeXeXeXeXeXeXeXeXeXeXeXeXeXeXeXeXeXeXeXeXeXeXeXeX# z k , k d O.N ..x o.[ ; = d | G h eXeXeXeXeX",
"eXeXeXeXeXeXeXeXeXeXeXeXeXeXeXeXeXeXeXeXeXeXeXeXeXeXeXeXeXeXeXeXeXeXeXeXeXeXeXeXeX@ ] N 3 @.x l  .F O.i M 7.C = = F eXeXeXeXeXeX",
"eXeXeXeXeXeXeXeXeXeXeXeXeXeXeXeXeXeXeXeXeXeXeXeXeXeXeXeXeXeXeXeXeXeXeXeXeXeXeXeXeX# _ _ ( l +., 1 -.) -.l 1 | | eXeXeXeXeXeXeXeX",
"eXeXeXeXeXeXeXeXeXeXeXeXeXeXeXeXeXeXeXeXeXeXeXeXeXeXeXeXeXeXeXeXeXeXeXeXeXeXeXeXeX# k +.+.M ` ) # - | R | { eXeXeXeXeXeXeXeXeXeX",
"eXeXeXeXeXeXeXeXeXeXeXeXeXeXeXeXeXeXeXeXeXeXeXeXeXeXeXeXeXeXeXeXeXeXeXeXeXeXeXeXeX# 2 +.x ..d =.z # eXeXeXeXeXeXeXeXeXeXeXeXeXeX",
"eXeXeXeXeXeXeXeXeXeXeXeXeXeXeXeXeXeXeXeXeXeXeXeXeXeXeXeXeXeXeXeXeXeXeXeXeXeXeXeXeXeX# ] A S | k ..1 eXeXeXeXeXeXeXeXeXeXeXeXeXeX",
"eXeXeXeXeXeXeXeXeXeXeXeXeXeXeXeXeXeXeXeXeXeXeXeXeXeXeXeXeXeXeXeXeXeXeXeXeXeXeXeXeXeX[ g O.= -.k z eXeXeXeXeXeXeXeXeXeXeXeXeXeXeX",
"eXeXeXeXeXeXeXeXeXeXeXeXeXeXeXeXeXeXeXeXeXeXeXeXeXeXeXeXeXeXeXeXeXeXeXeXeXeXeXeXeXeXO.- O.< d X.# eXeXeXeXeXeXeXeXeXeXeXeXeXeXeX",
"eXeXeXeXeXeXeXeXeXeXeXeXeXeXeXeXeXeXeXeXeXeXeXeXeXeXeXeXeXeXeXeXeXeXeXeXeXeXeXeXeXeXX.p G A # | eXeXeXeXeXeXeXeXeXeXeXeXeXeXeXeX",
"eXeXeXeXeXeXeXeXeXeXeXeXeXeXeXeXeXeXeXeXeXeXeXeXeXeXeXeXeXeXeXeXeXeXeXeXeXeXeXeXeXeX[ h p -.# eXeXeXeXeXeXeXeXeXeXeXeXeXeXeXeXeX",
"eXeXeXeXeXeXeXeXeXeXeXeXeXeXeXeXeXeXeXeXeXeXeXeXeXeXeXeXeXeXeXeXeXeXeXeXeXeXeXeXeXeXeXA # O.eXeXeXeXeXeXeXeXeXeXeXeXeXeXeXeXeXeX",
"eXeXeXeXeXeXeXeXeXeXeXeXeXeXeXeXeXeXeXeXeXeXeXeXeXeXeXeXeXeXeXeXeXeXeXeXeXeXeXeXeXeXeXeX# eXeXeXeXeXeXeXeXeXeXeXeXeXeXeXeXeXeXeX"
};
