/* XPM */
static char *result[] = {
/* columns rows colors chars-per-pixel */
"64 64 107 2 ",
"   c #010101",
".  c #080604",
"X  c #0D0A06",
"o  c #0B0B0B",
"O  c #100C07",
"+  c #120E08",
"@  c #161109",
"#  c #1B150C",
"$  c #1F180E",
"%  c #131313",
"&  c #171818",
"*  c #1A1B1B",
"=  c #21190F",
"-  c #251C10",
";  c #281E11",
":  c #2C2113",
">  c #312516",
",  c #352817",
"<  c #372918",
"1  c #3C2D1A",
"2  c #232423",
"3  c #272828",
"4  c #2C2C2C",
"5  c #333433",
"6  c #363837",
"7  c #373838",
"8  c #3B3C3C",
"9  c #42321D",
"0  c #49371F",
"q  c #493720",
"w  c #4D3A22",
"e  c #523D24",
"r  c #554125",
"t  c #594327",
"y  c #5E4629",
"u  c #5F482A",
"i  c #604729",
"p  c #634B2C",
"a  c #694F2E",
"s  c #6B512F",
"d  c #6E5230",
"f  c #715531",
"g  c #755834",
"h  c #7B5C36",
"j  c #3F4040",
"k  c #424443",
"l  c #474949",
"z  c #494B4A",
"x  c #4F5151",
"c  c #535454",
"v  c #565958",
"b  c #5A5C5C",
"n  c #5E6161",
"m  c #626464",
"M  c #656867",
"N  c #666969",
"B  c #6A6C6C",
"V  c #6F7272",
"C  c #727474",
"Z  c #757877",
"A  c #767A79",
"S  c #7A7D7C",
"D  c #836339",
"F  c #8C693D",
"G  c #906C3F",
"H  c #7E807F",
"J  c #7E8180",
"K  c #828584",
"L  c #868A89",
"P  c #8A8B8B",
"I  c #8E9292",
"U  c #939695",
"Y  c #969A99",
"T  c #9A9E9D",
"R  c #9EA2A2",
"E  c #A3A5A4",
"W  c #A4A8A7",
"Q  c #A6AAA9",
"!  c #ABADAC",
"~  c #ABB0AF",
"^  c #AEB2B2",
"/  c #B2B4B4",
"(  c #B2B8B7",
")  c #B5BAB9",
"_  c #B9BCBC",
"`  c #BAC0BF",
"'  c #BDC3C2",
"]  c #C3C4C4",
"[  c #C2C8C7",
"{  c #C5CBCA",
"}  c #CACECD",
"|  c #CAD0CF",
" . c #CCD2D1",
".. c #D2D4D4",
"X. c #D3D8D7",
"o. c #D6DAD9",
"O. c #DADCDC",
"+. c #DCE0E0",
"@. c #E3E4E4",
"#. c #E5E8E7",
"$. c #E6E9E8",
"%. c #EBECEC",
"&. c #EFF1F1",
"*. c #F3F4F4",
"=. c #F7F8F8",
"-. c #FEFEFE",
";. c #000000",
/* pixels */
";.;.;.;.;.;.;.;.;.;.;.;.;.;.;.;.;.;.;.;.;.;.;.;.;.;.;.;.;.;.;.;.;.;.;.;.;.;.;.;.;.;.;.;.;.;.;.;.;.;.;.;.;.;.;.;.;.;.;.;.;.;.;.;.",
";.;.;.;.;.;.;.;.;.;.;.;.;.;.;.;.;.;.;.;.;.;.;.;.;.;.                  ;.;.;.;.;.;.;.;.;.;.;.;.;.;.;.;.;.;.;.;.;.;.;.;.;.;.;.;.;.",
";.;.;.;.;.;.;.;.;.;.;.;.;.;.;.;.;.;.;.;.;.;.;.                          ;.;.;.;.;.;.;.;.;.;.;.;.;.;.;.;.;.;.;.;.;.;.;.;.;.;.;.;.",
";.;.;.;.;.;.;.;.;.;.;.;.;.;.;.;.;.;.;.;.            . 5 k 4               ;.;.;.;.;.;.;.;.;.;.;.;.;.;.;.;.;.;.;.;.;.;.;.;.;.;.;.",
";.;.;.;.;.;.;.;.;.;.;.;.;.;.;.;.;.;.            3 P E P R P K B 4 .         ;.;.;.;.;.;.;.;.;.;.;.;.;.;.;.;.;.;.;.;.;.;.;.;.;.;.",
";.;.;.;.;.;.;.;.;.;.;.;.;.;.;.;.;.          5 U K E O.@.$.%.%.%.O.U %         ;.;.;.;.;.;.;.;.;.;.;.;.;.;.;.;.;.;.;.;.;.;.;.;.;.",
";.;.;.;.;.;.;.;.;.;.;.;.;.;.;.;.        o P ! E _ $.*.-.-.-.-.-.-.=.E %       ;.;.;.;.;.;.;.;.;.;.;.;.;.;.;.;.;.;.;.;.;.;.;.;.;.",
";.;.;.;.;.;.;.;.;.;.;.;.;.;.;.        . } @.@.] P ..-.-.-.-.-.*.&.=.+.v %       ;.;.;.;.;.;.;.;.;.;.;.;.;.;.;.;.;.;.;.;.;.;.;.;.",
";.;.;.;.;.;.;.;.;.;.;.;.;.;.;.      . E %.-.] 5 2 R =.-.-.-.+.M n } O.P 4       ;.;.;.;.;.;.;.;.;.;.;.;.;.;.;.;.;.;.;.;.;.;.;.;.",
";.;.;.;.;.;.;.;.;.;.;.;.;.;.;.      S @.-.=.m   * ! } =.-.-.Z   . z L T 5 &     ;.;.;.;.;.;.;.;.;.;.;.;.;.;.;.;.;.;.;.;.;.;.;.;.",
";.;.;.;.;.;.;.;.;.;.;.;.;.;.      . } =.-.$.5     & & ;.;.;.v       o K k 5     ;.;.;.;.;.;.;.;.;.;.;.;.;.;.;.;.;.;.;.;.;.;.;.;.",
";.;.;.;.;.;.;.;.;.;.;.;.;.;.      * } -.-.*.c       . ;.;.;.v       . K z 7     ;.;.;.;.;.;.;.;.;.;.;.;.;.;.;.;.;.;.;.;.;.;.;.;.",
";.;.;.;.;.;.;.;.;.;.;.;.;.;.      + ] -.-.-.o.k . X m +.;.;.o.l % % z R j 7     ;.;.;.;.;.;.;.;.;.;.;.;.;.;.;.;.;.;.;.;.;.;.;.;.",
";.;.;.;.;.;.;.;.;.;.;.;.;.;.      * ] -.-.-.-.$./ ] &.-.-.=.&.{ Q Q ` Q j 3     ;.;.;.;.;.;.;.;.;.;.;.;.;.;.;.;.;.;.;.;.;.;.;.;.",
";.;.;.;.;.;.;.;.;.;.;.;.;.;.      5 $.-.-.-.-.-.-.-.=.*.#.+.o. . .{ ~ P x o     ;.;.;.;.;.;.;.;.;.;.;.;.;.;.;.;.;.;.;.;.;.;.;.;.",
";.;.;.;.;.;.;.;.;.;.;.;.;.;.;.      _ $.-.-.%.@.%.$.O... . . .{ Q b & x z       ;.;.;.;.;.;.;.;.;.;.;.;.;.;.;.;.;.;.    ;.;.;.;.",
";.;.;.;.;.;.;.;.;.;.;.;.;.;.;.      % ..*.o.m 4 P ' | Q J P ' ) 5     2 *     ;.;.;.;.;.;.;.;.;.;.;.;.;.;.;.;.;.X O .     ;.;.;.",
";.. 9 ;.;.;.X : ;.;.;.;.;.;.;.        7 W U o   & I ( j   o U ' x . % 6 .     ;.;.;.;.;.;.;.;.;.;.;.;.        O 9 t 1 X ;.;.;.;.",
";.# s G D ;.> g g ;.;.;.;.;.;.;.      . v m 3 o 4 T ' m   & T ' R c m %       ;.;.;.;.;.;.;.;.;.;.;.;.  .   . 1 D D t @ ;.;.;.;.",
";.@ y D h 1 w h 1 , ;.;.;.;.;.;.          c k 7 L ( ^ T M N A M x c o       ;.;.;.;.;.;.;.;.;.;.;.;.;.X . . - d F y - ;.;.;.;.;.",
";.;.$ < f s i d $ $ ;.;.;.;.;.;.;.  .       4 N V V n v l m S l l o       ;.;.;.;.;.;.;.;.;.;.;.;.;.;.$   # i D y @   ;.;.;.;.;.",
";.;.;.. ; a D f # @ ;.;.;.;.;.;.;.;.% o           . * 7 l l l 3           ;.;.;.;.;.;.;.;.;.;.;.;.;.. : X 9 d e O   ;.;.;.;.;.;.",
";.;.;.. . @ h d X @ ;.;.;.;.;.;.;.                                          ;.;.;.;.;.;.;.;.;.;.;.  # s d u = O .   ;.;.;.;.;.;.",
";.;.;.  . : h f # 1 ;.;.;.;.;.;.          . 5 % . o * 4 4 * % % o             ;.;.;.;.;.;.;.;.;.  # e F F a : $ .     ;.;.;.;.;.",
";.;.;.. @ p p 1 0 s h ;.;.;.;.            / P Z I R ^ ] ..} ] ] ] K 5           ;.;.;.;.;.;.  X < i D s r e 9 9 w -   ;.;.;.;.;.",
";.;.;.. 1 s # . . > i h ;.;.          6 X.O.@.*.=.=.=.-.*.=.-.-.-.=.} P 8         ;.;.;.;.. X X s h w @ X . X O = =     ;.;.;.;.",
";.;.q y f 1 .   . . . a 9 O       . S *.-.-.-.-.-.-.-.=.@.*.-.-.-.=.@.{ L v .     ;.;.;.  . @ w i , .     . . # = X   ;.;.;.;.;.",
";.;.$ 0 9 X   ;.;.. : g g >     . ;.=.-.-.-.-.-.-.-.=.) j / @.=.-.$... .' S l       ;.    X w e $ .     ;.;.;.;.;.;.;.;.;.;.;.;.",
";.;.;.X ;.;.;.;.;.;.= t i -   ;.;.%.-.-.-.-.-.-.-.-.X.3   c J E @.+.| |  .R m *   o   . O e e X       ;.;.;.;.;.;.;.;.;.;.;.;.;.",
";.;.;.;.;.;.;.;.;.;.;.@ @ .   ;.@.-.-.-.-.-.-.-.-.-./ +   + o * Q +.| |  ._ b j       : e , .     ;.;.;.;.;.;.;.;.;.;.;.;.;.;.;.",
";.;.;.;.;.;.;.;.;.;.;.        ;.-.-.-.-.-.-.-.-.-.-. .3       2 ] #. .|  .' b z .   $ 9 = @     ;.;.;.;.;.;.;.;.;.;.;.;.;.;.;.;.",
";.;.;.;.;.;.;.;.;.;.;.      ;.;.-.-.-.-.-.-.-.-.-.-.-.] j o 4 ! %.+.| | | ^ z 8   X $ O = O ;.;.;.;.;.;.;.;.;.;.;.;.;.;.;.;.;.;.",
";.;.;.;.;.;.;.;.;.;.;.      o ! *.-.*.*.=.-.-.-.-.-.-.-.%.[ ..&.+. .| | { L x &   # . ; ;.;.;.;.;.;.;.;.;.;.;.;.;.;.;.;.;.;.;.;.",
";.;.;.;.;.;.;.;.;.;.;.      . S  .#.o.X.O.#.-.-.-.-.-.=.*.%.#.X. .| |  .) x b o   o : ;.;.;.;.;.;.;.;.;.;.;.;.;.;.;.;.;.;.;.;.;.",
";.;.;.;.;.;.;.;.;.;.;.;.      8 Q [  . . . .+.*.=.%.@.o.{ |  . .| | | { I Z o   .   ;.;.;.;.;.;.;.;.;.;.;.;.;.;.;.;.;.;.;.;.;.;.",
";.;.;.;.;.;.;.;.;.;.;.;.        l Q ' | | | |  .X. .| ( M R { ' } | | ( S *     o   ;.;.;.;.;.;.;.;.;.;.;.;.;.;.;.;.;.;.;.;.;.;.",
";.;.;.;.;.;.;.;.;.;.;.;.;.        b J ` { ) R I ^ { { Z . 7 C C '  .) U 2     % ;.;.;.;.;.;.;.;.;.;.;.;.;.;.;.;.;.;.;.;.;.;.;.;.",
";.;.;.;.;.;.;.;.;.;.;.;.;.;.      o 4 j A A b k 7 A I j       o V U S n       & ;.;.;.;.;.;.;.;.;.;.;.;.;.;.;.;.;.;.;.;.;.;.;.;.",
";.;.;.;.;.;.;.;.;.;.;.;.;.;.;.          N v 4 V ) ' ' V o     + A R n .     % ;.;.;.;.;.;.;.;.;.;.;.;.;.;.;.;.;.;.;.;.;.;.;.;.;.",
";.;.;.;.;.;.;.;.;.;.;.;.;.;.;.;.          j n N N V T T m * o % %         . ;.;.;.;.;.;.;.;.;.;.;.;.;.;.;.;.;.;.;.;.;.;.;.;.;.;.",
";.;.;.;.;.;.;.;.;.;.;.;.;.;.;.                    . b ^ m A H .               ;.;.;.;.;.;.;.;.;.;.;.;.;.;.;.;.;.;.;.;.;.;.;.;.;.",
";.;.;.;.;.;.;.;.;.;.;.;.;.;.          . % 4 n m V A S R } / c 5 o .             ;.;.;.;.;.;.;.;.;.;.;.;.;.;.;.;.;.;.;.;.;.;.;.;.",
";.;.;.;.;.;.;.;.;.;.;.;.;.          3 U { O.$.@.#.%.%.=.=.&.@. .! S b 7 V %       ;.;.;.;.;.;.;.;.;.;.;.;.;.;.;.;.;.;.;.;.;.;.;.",
";.;.;.;.;.;.;.;.;.;.;.;.          4 ) =.-.-.-.-.-.-.-.-.-.-.-.=.+. .[ ^ I I J J * . ;.;.;.;.;.;.;.;.;.;.;.;.;.;.;.;.;.;.;.;.;.;.",
";.;.;.;.;.;.;.;.;.;.;.;.        2 _ =.-.-.-.-.-.-.-.-.-.+.Q ..%.X.| {  .( N k n v o   ;.;.;.;.;.;.;.;.;.;.;.;.;.;.;.;.;.;.;.;.;.",
";.;.;.;.;.;.;.;.;.;.;.        o ! =.-.-.-.-.-.-.-.-.-.O.8   w o.o.|  .}  .( A N S l       ;.;.;.;.;.;.;.;.;.;.;.;.;.;.;.;.;.;.;.",
";.;.;.;.;.;.;.;.;.;.;.        C -.-.-.-.-.-.-.-.-.-.-.L     7 / / {  . .| | ) U I I o       ;.;.;.;.;.;.;.;.;.;.;.;.;.;.;.;.;.;.",
";.;.;.;.;.;.;.;.;.;.;.      % %.-.-.-.-.-.-.-.-.-.-.-.b     . o % ~  .} | |  .' U Y U       ;.;.;.;.;.;.;.;.;.;.;.;.;.;.;.;.;.;.",
";.;.;.;.;.;.;.;.;.;.        ;.-.-.-.-.-.-.-.-.-.-.-.-.T         & { +. .| | | | ] I Z 3     ;.;.;.;.;.;.;.;.;.;.;.;.;.;.;.;.;.;.",
";.;.;.;.;.;.;.;.;.;.        ;.-.-.-.-.-.-.-.-.-.-.-.-.$.m 2 * 8 ! =.-.o.| | | |  .[ B l     ;.;.;.;.;.;.;.;.;.;.;.;.;.;.;.;.;.;.",
";.;.;.;.;.;.;.;.;.;.        ! -.=.-.-.-.-.-.-.-.-.-.-.-.&.o.O.&.-.-.-.+.| | | |  .{ C c     ;.;.;.;.;.;.;.;.;.;.;.;.;.;.;.;.;.;.",
";.;.;.;.;.;.;.;.;.;.        ] -.%.-.-.-.-.-.-.-.-.-.-.-.-.-.-.-.-.-.-.+.| | | | { ' v m     ;.;.;.;.;.;.;.;.;.;.;.;.;.;.;.;.;.;.",
";.;.;.;.;.;.;.;.;.;.      . ] -...-.-.-.-.-.-.-.-.-.-.-.-.=.=.-.-.-.%...| | | |  .^ 7 n     ;.;.;.;.;.;.;.;.;.;.;.;.;.;.;.;.;.;.",
";.;.;.;.;.;.;.;.;.;.      o ! =.-.*.-.-.-.-.-.-.-.-.-.-.*._ U @.=.%. . .| | | | | Y 5 z     ;.;.;.;.;.;.;.;.;.;.;.;.;.;.;.;.;.;.",
";.;.;.;.;.;.;.;.;.;.      X P %.-.%.*.*.=.-.-.-.-.-.-.=.T 2 + H | ^ ( { | | | | { A j 4     ;.;.;.;.;.;.;.;.;.;.;.;.;.;.;.;.;.;.",
";.;.;.;.;.;.;.;.;.;.;.      V } &.#.O.O.+.@.&.&.=.*.%. .k     * m * l ( | | | | ^ j V o   ;.;.;.;.;.;.;.;.;.;.;.;.;.;.;.;.;.;.;.",
";.;.;.;.;.;.;.;.;.;.;.      5 ! o. . .{  . . . .X. . .) j           4 )  .| | ' C H %     ;.;.;.;.;.;.;.;.;.;.;.;.;.;.;.;.;.;.;.",
";.;.;.;.;.;.;.;.;.;.;.        U (  .| | | | {  .|  . .' B o         m |  .| ' L B 3       ;.;.;.;.;.;.;.;.;.;.;.;.;.;.;.;.;.;.;.",
";.;.;.;.;.;.;.;.;.;.;.;.      * Q { |  .| | ' { | | | | ( c o . o j ) { ` R A L %       ;.;.;.;.;.;.;.;.;.;.;.;.;.;.;.;.;.;.;.;.",
";.;.;.;.;.;.;.;.;.;.;.;.        b ^ ' | | | { ' | | |  .| ' U Z H ^ ) I x 7 b o       ;.;.;.;.;.;.;.;.;.;.;.;.;.;.;.;.;.;.;.;.;.",
";.;.;.;.;.;.;.;.;.;.;.;.;.        8 ! J Y R W Q R R U I U U T R R K l %             ;.;.;.;.;.;.;.;.;.;.;.;.;.;.;.;.;.;.;.;.;.;.",
";.;.;.;.;.;.;.;.;.;.;.;.;.            o % * 2 2 2 * % % o o * 3 3 %               ;.;.;.;.;.;.;.;.;.;.;.;.;.;.;.;.;.;.;.;.;.;.;.",
";.;.;.;.;.;.;.;.;.;.;.;.;.;.                                                  ;.;.;.;.;.;.;.;.;.;.;.;.;.;.;.;.;.;.;.;.;.;.;.;.;.",
";.;.;.;.;.;.;.;.;.;.;.;.;.;.;.;.                                            ;.;.;.;.;.;.;.;.;.;.;.;.;.;.;.;.;.;.;.;.;.;.;.;.;.;."
};
