/* XPM */
static char *_7ab91c336a14e2a89373b93d2d3e7edPcdbEMlC71dycFHj[] = {
/* columns rows colors chars-per-pixel */
"64 64 48 1 ",
"  c #7D9CA6",
". c #7E9DA7",
"X c #7F9EA8",
"o c #809FA9",
"O c #82A1AB",
"+ c #83A2AC",
"@ c #84A3AD",
"# c #85A4AE",
"$ c #87A6B0",
"% c #88A7B1",
"& c #89A8B2",
"* c #8AA9B3",
"= c #8BAAB4",
"- c #8CABB5",
"; c #8DACB6",
": c #8EADB7",
"> c #8FAEB8",
", c #90AFB9",
"< c #92B1BB",
"1 c #93B2BC",
"2 c #94B3BD",
"3 c #96B5BF",
"4 c #97B6C0",
"5 c #98B7C1",
"6 c #99B8C2",
"7 c #9AB9C3",
"8 c #9BBAC4",
"9 c #9CBBC5",
"0 c #9DBCC6",
"q c #9EBDC7",
"w c #9FBEC8",
"e c #A0BFC9",
"r c #A1BFC9",
"t c #A2C1CB",
"y c #A3C1CB",
"u c #A3C2CC",
"i c #ADCDD7",
"p c #AECED8",
"a c #AFCFD9",
"s c #B1D0DA",
"d c #B2D1DB",
"f c #B3D2DC",
"g c #B4D3DD",
"h c #B5D4DE",
"j c #B6D5DE",
"k c #B7D6DF",
"l c #B8D7E0",
"z c #B9D8E1",
/* pixels */
";29<wi,z<853l1128appua4i4sf166$urppi4wllllllfli+8ff>4%+4===->e4:",
";*0wi86j<889j1634wurwu6asalwf7$rwww1af$ollfiiqlp4q6$=+$X4>>>>aq-",
"t0t425<;324jw28886>9w>66>*4s=XXiapfffi,+li86889fp+>4>-%$%>$$>a9w",
"<6e61e096,<1<<368$9wa=rw=%*1X6saw++++1pfp4%=>796pX4>$$=>4i4>a--w",
"-30301fst*%;%188$+$8w%>>%4*1XoXai$>4waff8=*>4844==48=4>4w$pw$$$$",
"#+0f<5<3s,;>==-2X8$*+o4%=6:,$ooqwiisfwp$6864>66*44rq4%+46%pa=-->",
";;9s<1<4f125>959+6$=4++w6ww4,>X78fq$,l$$$8,%>4844=4>4>44iiiw$$%%",
";;3sjs55<w344ip54=+=6=+w*ww..1$4,>$-*w1$,7444>>=%*>466>riiiar$$=",
"%>42jjw1<;92tpi4694>84+wuww149=44,1>>$sl48,>>4,=-444uiiqw69uwq%$",
"#+4w1141<1w689w69->>w6=+8ww$%%>144fa>8a%>8%>=6>%$$4>4q9944we4:6X",
"+$2uww91;te---=->1>=ww6+4w111>14wpffa44sraa%>>$$$:*4>6q4>qrw-46$",
"+=>wueu8>5;-----864$ww96a%+=$%$$wrufs-iaapa47>4>4*4pwe4>49w4464X",
">%184ee=+8==-59w444646aw8%%$=>$8,9uuarl4>>,>4*4=>4q:pw447q6::--$",
"++=$484p9uupppp644689up>lw4-*==w9lw466w%>44>7$%>$iw:>w7we944>44-",
"w,wfjw8wp%5jj>%59p9a69p$ql44$>6997>6w46afp9,$6rq64>%*>4ww>4>>>>q",
"1,wf=28ww55jf,1pffpaurpp4l4>449r644>4Xs9fppq>,>ld>$$%7:*%4:4>>ww",
"1wl$5w9w888fwlpiffu4:$14$=8488qp44$*77*$eiid:q:$$:%$*::*$.i>>>q9",
"f%4486w8wwwhlfpplwXX4>,>=$189w$p474$4959*95X4:44$$q$4X4*%7al%lqd",
"9=814pw1841offslfi>$18$o4=48w$$+77$$$7795$i4$di4:%q444-%74:$X4=$",
"%4wwffp=11>58u=>wl,448414471>44449$X447*q4$4i$$9>94::4i7%%.X%>=%",
"4wwfffs84=$44#o+$8$>i4=+474444>49qX7944qi$$4iiq7>6>>4q7.*4$X44>4",
"w4%18wf=>+o>1>+88w%=f4>X88474444$$$q4747$4:$44i$9qw>>q**X78X74$d",
"e*=1=1=$-,X+p1X8w44*X444184677144$q444q4*$4=X$ii$ii:$::66*Xlpe4$",
"ll%*%9%>>w#+hh$14qip:444=64f168444954we44$X44$$i$dl>$*l4wq6iwi:l",
">fjl>1>,>e$#4h++*rp-=$44=8+864964444ipi4$4$$4=$dq4id$%ldl48>q7lq",
"=f#1l,>>>>=ps=f#+$=X$19>+4=9649=444*:iii:4ii$7gdq*qeq**-d7=ia$$=",
"%>11f%>w=>$>us9-$X>64$-->+89646,44 X$4iiq4*4dX94dd:qe75qi*:ld$$4",
"18lff4>w$=whfe-$pp4+7>XX-X896q9>$:X.$.:iq:4444$7.4d4i.d9qX$dl$*i",
"%=1ws4=>=2wfplwppqq4wpp6X$X1679>*$$X:4 iiwpii$$li4ddd7..77*%ld$z",
"pf+#sp+88fp+XwpX+=8l$=9>>>=8q9:$=$$*5444457$:$$$$77..7.@4:-7qeue",
"us1+1+>$8f1XXweX+*>>=+8>,-X998$14$4*994qw75*$4:4q4544ll****$eeue",
"upp1#ll1w>>Xwpp-+*>>=*6191%-$X$4*=5=4:4qq55e*X9755i44ql*****:77u",
"eep>lqll4>>eissqo447*84#lf$Xo4#ow7ee4444edpp5$77X*el479Xee=5eu7e",
"ddd7ll%l=4lpi   o755XX8$l5>X>7-+w*ee*47ipppp44:5XXX7977X5q9eueeu",
"5$dd7Xofpi4dl.5,>o08$X5-ofp>-q4Xwqwe7$:wa9dii444XX9774q4X-ee9eee",
"$*>>88>l  .ql.%55,o78X84$=4>>q7=$7we7$$9X$$$eq44z977.%445*:9*4lq",
"7>ddd04>,>4ll..o,e5=+lslf$>>%eq5X5q9$$wqi9$$X$4744l4q44q4*-ew-d7",
"$$7dq7#->>ll,%o%l,eq4fdld=>>$qe77w=$$99qi44X*X4744gplgll*%4-=-e5",
"777qd$==ll>>>>oolll50>flf+#84>4744X$qqq9i44$$$7757gdg5449*=eee:d",
"d7**$$*$4>>4>44ooofl47>5f45q45=4:44w99q*i454*X777qllg7ldl9==9e:5",
",$**=>$$%%544>4>,,lf,>44p44sd>q4:449qq$X$97$$$579alge5lggw=*-44-",
">$$$=*$$$4445o$.4e0lld444q458q8>=4:::=4455q$X4777gd4eiglll9%-44:",
">%%$***$5o4>ls4o>4q4llq44=8=$4q>4:44444=49q$4q578geliiggp9745:-:",
"4o44$$$>os0o,4#5448e,,4>>>7,qe5,:::444444*X$95qq9lglidleXX959:-4",
"$444444$0d74>4>545eeeee4487>>pq>::*7445444$944444 fddlga:.5glX-X",
".444*>>>4o4$*445dl5ieee8>>458p4>4:444444744q7$4444qq*:el44el4 XX",
"*>4>>d>q%55*44esdlse0ee,**>>sdd>::54444:4544qq7*$45%X%@5%4laX@X%",
"474%q$>4>$o%$oeeeds4ee,eeo>>ddf>:747=:4444X4447XX-4>X5555%97@XX$",
"olq5o-,5%e:,#755erllp,$0q$>>4pf>i4445:>5478+X:4,X@i4X55X9959X .X",
",eee5#-#ep-:,eede45sl>4q>$=e>4plhpq4>:4o444%+74i@@fd@-X@959--4%-",
"-54d445#e7%%eisp,4ifp4%*=>,q444llff>>>q,448548>f+@4g@XX4-X%--ee%",
",+ff5:,%e%:%pp44e,qld44>4=pp>>40pfflflp=4+558==--lg-l@X-@@a--ee$",
"%eqed0qdp$4pipiis44es04XoXql$448sflpqqq+o8884%==-85ggfi-@-4g@4@*",
"e>:4,ss5s4>disiis5,,-i44>,llX+=8ss$*fqq*+oo887fi444@=8g-%e@5--@@",
"fde,::,d>4ed$$4ppf4,$4>4,ll>=X>l5e+Xdqlo5=+84444*@4@=g-g*%%---@e",
"ee%pd5pe8q44*5pppe>4o5>sl4:>>+$dp0eophh#8$o+844=ggga=@l-4@---%ee",
"e>ep44fsf4qfppf4pssf4,+4,>4,>:$o+qe$i0q48p$+8ffs-fap=$=55@%-5445",
"qpe>=ddp444fpf*pfsss5544%45544,45peisf4$$$++p4df44d45=%*5@%-pa44",
",eq4>qpp4444>>7pfqisiqe75855$$*55,,so4+5h$X$4>p8aq54>fa4--*5494>",
"=54>>>>>>488744fss%pqed5400p04,>5%$$+44ipq+lf4=-4>4=X44>-5g-5i54",
"qq8q=->>=7q844>4p-%ppi440sqee>,eeq%o+4liio+lq4ql44>4%+$-44-=4949",
">>4>===>=77>4444p45ps44*%sq4i0,rpip%44ll-4+l49rpg*4=>44---44%984",
"p,qe,====744484ps044i5s5,4esp*0ipe%eX%$$X4+hlehh4o>:844>%-4>-ggg",
"lq40q>==q444885ppp4ee5i045f54:$iie7,%%$$%hlllperoi4:54->4---4le9"
};
