/* XPM */
static char *ed8e3378283748b3e36b4e7e76eadca0qqomZrLvGP7YaMW2[] = {
/* columns rows colors chars-per-pixel */
"64 64 34 1 ",
"  c #7D9CA6",
". c #7E9DA7",
"X c #7F9EA8",
"o c #809FA9",
"O c #82A1AB",
"+ c #83A2AC",
"@ c #84A3AD",
"# c #85A4AE",
"$ c #87A6B0",
"% c #88A7B1",
"& c #89A8B2",
"* c #8BAAB4",
"= c #8DACB6",
"- c #8EADB7",
"; c #8FAEB8",
": c #90AFB9",
"> c #92B1BB",
", c #95B4BE",
"< c #97B6C0",
"1 c #98B7C1",
"2 c #99B8C2",
"3 c #9BBAC4",
"4 c #9CBBC5",
"5 c #9EBDC7",
"6 c #9FBEC8",
"7 c #A5C5CF",
"8 c #A7C7D1",
"9 c #A8C8D2",
"0 c #ABCBD5",
"q c #ACCCD6",
"w c #AECED8",
"e c #B1D1DB",
"r c #B2D2DB",
"t c #B3D3DC",
/* pixels */
"9:r>3<,r>>,508880,0<00,,><3,,<<>>;$qw<3>,<*<qw;>-@>;*;*>6>;->3>6",
"32r>335r>3,,88888<000088-;>>,,<w0:3q%>3&><8,62+-++@>;>>>86***668",
"1:-,,<w6,333<;48;2,;%<0;;;>><88w09<>q800*<99@:>>**#;,-;,<>6838<,",
"6633;:,>>,23+388&88*&*>o;;*%+888ww;80990>318@>,@$*>:8<;1016>281>",
">w08&%-$>33$+#38$;;$<$>++$,-<>38808w2;>:,<>*&,3*,>>1$*>5860-<6,6",
"1>,q;-;***,o3$*o+,$;1;>#++<,8808<<16&>,>,3&,,88>*#>>$*38+X8#+40>",
">><q,,1;5<4+3$*,++8<68>>:+<3833>,6>488<>,2,,*>,<;>,<;*8,XX8**30>",
"011>5,<<99<1*+*1%+8$78  >#<>>;>>,>+033<<:>&*&,>23,86,;<>O68;;,0t",
"w6,>;3>999114,;4<+6888>,6*1>,>>*&34;>,:;1:*;,1,88864;;3<788&:<,w",
"><>:>6323624-;;61*+357$%$>>,108:>6>>3%>&1;$$$,>,666<:36438X@+<6>",
"66:;88*--*-:>:*85<+,7>>>;><80008>;0809$>:$$$>%,>38>,688><8++@,88",
"883;<--*&-&43<#783<0$+-@%$+888ww;8089q>2>,;>*,868>>>48><12++*-88",
"88&+3*-&136<<111<083%#$*;%3>48808w2;>::>*,*>,8;86>>36<>:;-$;%>3<",
"3,048880093,,23380-w8,-***7808<<16$>,>>4$$:$86;;83888>>;;>;++-$<",
"8388*<rw;$<4048239$8r<<$;<334>,6>4q093:%<862,>&&:>66>>,:>>66;6ww",
">33611ww:>0qw9q88801r>><,38<<>>>@w3w004;>:ww;&+$3;*$>;>:;66>:60*",
"647333w8w88w08>;$><@-5<3340<,%*32$$899q;6;+$>%+%:>*%o0:>;63,6w*1",
"183664www0ww8++<>>;*$>366*0>3,*:423$24&;:<<$$6%;$>&%300#t600$<<3",
"86>31>+w00ww0:+,3$o<*>36+@@63$@*5332$q<=q9>;=5<<>*&3>>#+;*$6*3>1",
"w8*>>:<68*;80:<>3<><<3>;<<<<4$@><4*4%588:;3>4;:<,84$&X+&;**%<66w",
"003<*$11@o+@3%;8,-+>31<<<;<36@<6<<49><<q92<<<2<:33o->$X><><<660w",
"60*-+o;>;+368#-w1;X6331<<<<$$$312<5<>6;%=<$89<238**+13X1<$06<$,3",
">**-;++8>o38,<*+<<,:3<333><<+6<,242$;:<<=;=6*::2,;3,*+w08:$8$*>*",
"4%::6+#ww$>>688;<<,*3,w>31<1<33;98<<$48<<509*<2;;w>88<860>ttt%*$",
">::;8++<w@+*88;*$<<*3+3113<<,<<889;*<%=269<q:>>2%www<2=8<t8;0tw;",
">;;;;*00*0$$$*X$>4;+<%6133*,<>%>999=<42<<;q;<6&2&%*w3=99$$&*0$:t",
"*;6-:%-806>;+;1<#-*;+341,<;<<XX%<998<;:22<56822:><99%&tt$$<$=<>w",
"<;6$*2007<3063+1>XX*X36344;*:+X$ :99:<>><2595<<5$q23+$ww$$0:3tq0",
"<*:*,30177800716003o++:134;**++>; 8096:>;;::224><XX22=$qw$t$%>88",
";,6,6<<108<>34w$*<::;*343-**$@*122><2:;<;=><:;>;<oo2*;2888900$$8",
"$6,;>6688;>63<;*+3;:-o364+,>*,*25266><;;;$$=<;22qw&**&$88888q:*<",
"*8@;$80,<8:<<>;**1>3>&*++%<%*1-,=<662<<>$=;>;5><5t*&%*%*3<8808<;",
"qq=;08008q<%3<2*3<$ww$X$:+X8<59>2<<5986<&<2o=38<32+66=<88>8888;9",
"<w;;q89989=$222XX3$q3=o;2=o8$85$<388663><=3;>>4<:2&2338888800929",
"0=;9q%$<854;o43$X2<<66;=6<+6988<%;qq<>=<<=9:9993;<<:<484888<$qq2",
"939<2&<04<:<=$24+9:;;;*;62*+360<<;$$;&o*<2&*8990;6>&%=2%<0<%%;;2",
"99<5w99q;%$;92&ow6<<>>;&86<+<6;;:2<$$5$:%<<3$32+>;<<$%86=q32;qq9",
"8<<<qqq=3$*w;98<923<>:>%662<23:;q9:;=5<<;<262$9<%w9;=;:=*92%%2q6",
"2:;44;=<;$+www29>963<$:<>>3<:<89>=3:4><=:23*8<%<9$%5;2268&q2328q",
"<*;<<;<<:;o$$wq><:36936>3;<:<:>q92<<22>:<<<58$$<q992>>;28;<q2%%$",
"3*&;;2<;>>>;;tt>>>393390;6<:>3<**<&98<>:<3<3%<:$<>9+53<=<;:;&&&;",
"63<;:2<2++$<66wwq23<633<63=*;>><=;=5%<=;:462%%;>$$00$82=;;:;%%&%",
"6=:<o=;wq3+=<9<qt6<>;3%$26;;;>4<<499;<=<<69<<+$:;$$8$032;;::$$&&",
"$;;<22=:;$><<38=:2;>=3;563;:>:>225<9=*%3589;$<$$:;$q6>63;;::$<<%",
"&2;;;$<:<:><<88896>:63;;q3;;;&2<<<<<<$3<;888;<99$3ww<:qw$&$&<<><",
";2<4:=*=;<4ww<88893;;<33q:;;;2<<<2222<52%:588<;>w+5<8qq6=$%o<><%",
"9<=qw$$=<88www8<88;$$;;qq0:<>3<<<>:<<<<33<=<3<;:<<$<=<w96$$*:>;=",
"%;;6:*$$+888w0=88=88+;;qq4><624<><<<<o<<22X=<3558%*8<<><q;;<2<$8",
"=;<$q=;$3;499qq8<$56$;;<9:&6$%*;2:<233+X;>:+$8<+;;$><<;<q:<$q5<$",
"=&$99=;=99w9<52<;<6;%*9<==86q9$$%*$<2>%+3<9$$q0$%$+236<<>6<;889>",
"<<$93%$8988;;5;<8=%*;:<*%433q:>%$*<<<2223;q+o<w$$X>;+><<>=2=<<w<",
"==$8+=$80<;4<24=<<<<*9<$5545q:<%%*;<$223**=;ww=w+o;++8;;<;2=+ww;",
"24q0$=08q9<6<$224<X++334455$q:2:;;;%<33:*===33www0*+*;0%:2<$869q",
"qw2w<:0q9q:;+X<29:<;;99456+$$62*&>*;=$223q9<>>+*3q=$9&2=;$%8=:>;",
"==w;;9q%&4;+$;=$;;>:w8>;;;<<<<<23>+38<><<3<=+<+*w=q*$$**=$8q04;;",
"2q929<2%22q$X=$X9=qt;;;<<<<;<<3<q:;8w*+<<>*wwwq*$q;<$=**o8886$00",
"<q9q<5q99wwwq&+*;6>;;<;<<<<<:$*=3;:wq$+;900;wqq*$%23+$*<;<49;80<",
"qqq<<<q94$*2q=%9*<>=<<><<<2;<;<3<3=23X+;=00:<w<2&**<+%*0q<<305;*",
"59q<<<<=<+&q=q==:3<<3<<;;>22<>3<+3233+X$*93q83>;wq<***<;6<;;89<;",
";=;;325900=$w;3;302:6393<<>>>*&++232=*;*;*;>;:*+>>=;2w;303;;:;;=",
"=;;=2534qq*$%2568><6q665=;643*++;=+%&=69$2w2>>>*$$*>>>;<6>55633;",
"=&;&33:<0<<===9q<2$*03<86:6989+%;$+0**88%<3w;>;::>:<:;>;66:;;<;;",
"=&=&2<<22;>w92;q2q2:<830;6869=q>*+*;w+;$==0<$;;3<<;=*;:=wtw0;68;",
"==%9<2:44:;58;99<96<:2<%<o696<>:*$6$3*;$$8<$q>;3;;>>=*>;w85w6<33"
};
