/* XPM */
static char *_5c374cdadac4cc8ebb53e47a4fb145fBOAl6KxyK5aHFrgn[] = {
/* columns rows colors chars-per-pixel */
"64 64 37 1 ",
"  c #7D9CA6",
". c #7E9DA7",
"X c #7F9EA8",
"o c #809FA9",
"O c #82A1AB",
"+ c #83A2AC",
"@ c #84A3AD",
"# c #85A4AE",
"$ c #87A6B0",
"% c #88A7B1",
"& c #89A8B2",
"* c #8BAAB4",
"= c #8DACB6",
"- c #8EADB7",
"; c #8FAEB8",
": c #90AFB9",
"> c #92B1BB",
", c #95B4BE",
"< c #97B6C0",
"1 c #98B7C1",
"2 c #99B8C2",
"3 c #9BBAC4",
"4 c #9CBBC5",
"5 c #9DBCC6",
"6 c #9EBDC7",
"7 c #9FBEC8",
"8 c #A5C5CF",
"9 c #A6C6D0",
"0 c #A7C7D1",
"q c #A8C8D2",
"w c #ABCBD5",
"e c #ACCCD6",
"r c #AECED8",
"t c #AFCFD9",
"y c #B1D1DB",
"u c #B2D2DB",
"i c #B3D3DC",
/* pixels */
"q:u>3<,u>>,6w000w,w<ww>24*3;;;0,&*0q$*><06+1rr;>-@>;-**:0,-*>3>7",
"32u>336u>3,,00000<wwee007;3,&&,>@40q;+;,170,02+-+++>;:::08*;*77q",
"1:-,,<r7,333<;40;2,;&1w&+23##$<,0qq07+<,31wq+:>>%-@*>%$-037730<,",
"7733;:,>>,23+300&00*&&>$<<7$@>100wXXoX<12,2w+>,@$&,>0>,0;;7;172>",
">rw0&%-$>33$+#30$;;$<$>@;<7+<73<0yX>>-%<31>&&,2*,>>0&q0<*><#;6,6",
"1>,e;-;***,o3$*o+,$;1-,$&@*%7<7<7y+;,2>:22*,,0q>&@,2;w,0q44$+;6>",
">><e,,1;6<4+3$*,++0<70>>>&;43,,<1,%$<>-;,3,,->,<:>,070->r7r+<;>,",
"e11>6,<<qq<1*+*1%+0$80 X>%,<,$;;3,;>3>,,:>*%*>>24,q00q8*wwr@3$*3",
"r7,>;3>qqq114,;4<+7000>,3-<>>>:*#ww12>:;1>%:,1,00031>>1@077>4q&2",
"><>:>7323724-;;71*+368$%%>><3rw;3e%>3&>&1;$$$,>,7677<178ww,&$$$*",
"07:;00*--*-:>:*06<+,8>>>;><80rrw<>e0eq$>:$$$>%,>20>,7,>w+<@>0;;1",
"003;<--*&-&43<#803<w$+-@%%+000rr;qwqqe>2>,;>*,070>>>7,**;,%*:>2q",
"80&+3*-&137<<111<w03%#$*;%3>400w0w2;>::>&,&>,0;07>>161;;-;$;%;2<",
"3,w4000wwq3,,2330w-r0,-***80w0<<27%>,>>4$&:$07;;07000,>;;>;+#-%<",
"0300*<ur;$<4w4023q$0u<<$;<334>,7>7weq7;%<072,>&&>>77>>,:>>77>7er",
">33711rr:>werqe000w1u>><,30<<>>>#e2rwq4;>:rr>%+$2>%%>;>;;77>;7w-",
"748333r0r00rw0>;$><@-6<334w<,%*34##0wwe:6>@@:&O%>:&&+0>>;73,7r&2",
"103774rrrwrr0++<>>;*$>377*w>3,*:424%22#>:1,%#6&,#,&&2we#y7ww$1<3",
"07>31>+rwwrrw:+,3$o<*>37+@@73$@*4424@e,#ee:-*7,>,%&2>>#+:*%7&3>2",
"r0*>>:<70*;0w:<>3<><<3>;<<<<4$@>,4&q,#>0#%6>6>>;>07$&X+&;*&&<77r",
"ww3<*$11@o+@3$;w,-+>31<<<;<37@<71>6e%%>ee01:,>;>72.->@X>,>,177wr",
"7w*-+o;>;+370$*r1;X7331<<<<$$$314,4#,>#1>e#464->7&;+13o4,&e7<%,3",
">**-;++0>o30,<-X<<,:3<333><<+7<,462&%:>#@we@qw>O;;6,*+rqq>&q&*>&",
"4%::7+#rr$>>700;<<,*3,r>31<1<33;0q1>%#>>#%q#re>%-r>80<07e>yyy&&&",
">::;0++<r++*00-*$<<*3+3113<<,<<000-&,%@>-%w0:00%#yrr,3-01u0-euu-",
">;;;;*ww*w$@$*.$>4;+<%7133*,<>%>00q-,qe#4re6*606*%*w3*0w%#&&e#>u",
"*:0;;*;8w1:%X>1,#-*;+341,<;<<XX%,e00>->rO7>ee:801<0w&&ur##,&;>>r",
"3;<*:0r01$;70<+1>XX*X37344;*:+X$.>00,,>>,%4o,r>eXr33+$ru%&w:1r0w",
"<*>7700<<$3<0017ww3o++:134;**++>-o0w0e00#%re>eew3XX33*#re*w*>-,4",
"w70w<w0ww,>$;<r$*<::;*343-**$@*111,1,2&-%&&#44oo3XO<-*3770023>*:",
"wwr*wwwwr<<>:;:*+3;:-o374+,>*,*261772,%#->>81,,1ry%**&$740080,>,",
"<;;1ww7ww077,:>**1>3>&*++%<%*1-,:,7621q*%421,e1>qy*&&&-*>,<r7>;;",
"33,,www&00031>1*3<$yr@X$>+o0,60>1,,qew0,#44o%6r244Oq0&1,>@er1422",
"7>,,<w*%w03&333XX3@r3;X;1*+0%00$,20ww0e>,:2OOo2424o,421,&060e,qr",
":,,,<w<,q0,;+32$X3*@rw;-4<+70003%-7w4ee0>,4@o422,01.-6>#q->>-w7>",
"1>230w4,>2><;+31X4<$%>;;71*+1703%@4@##%00,>y244O&>,1&--0re6-*;>0",
"<331www3>%+>0<*+ywrr$;;*071+,77$%72wq%@@%-4,>e,0118>:%00q7#04q0w",
"31>:>0e1>$*r:00<wryr$;:$771<0*+$4660>>%#%,2>,w0wee7-->:>7>71-2w0",
"*;-ww:,>:+@yry<0>ryr%$3<>>3<,$@7666e,>%@#24,1q71*6q-,>76714-42,6",
"$**<>:<>>;+++yr>2>,y>;0>3;1;<:7446%w>41#@2421,2,&%w-e,-12>-224#-",
";$&&*<<>>>>>:uy>>><r><wr;7,;>3776#@#62%#%4,,4:&>:#w0>4,-1>%#*0->",
"$$$*><<<@+@<77rrr1<>7<3373-*:>:;>,1117@@>24,20e#2re6-72>-:&##620",
"*%$>+>>rw3O-<0,rr7<>-3$$<7;:>:<<,1-127#,72662:>e@7,ee-464$2,&44e",
"$$;+w0@::$><<30;>1:>-3;773;>:>,<,,1,%%#62676211>1*4.,e>40-#&>2>-",
"<<$0r3>>1>><<00007>>72:;w3;;;*3<,2:1,@71>242>wew:>rq:eee*e*-*>>>",
";;;:+>**>,1rr<00803;;<33w:;;;3><,1,41172&12>22>-&14&,244reeq:&1-",
"r;7&>>*><00rer0<80;$$;;wrr:>;<,>11:,,,114q6&76$#%%1-,e4:#&>2,4>-",
"$:<;$+*$+000rr;00;00+--rwr,><<3;:,,12@>*&47%:-&>-,:1*64**:06q4&4",
";;,$0-;%3:300rre>$77@>;>w7>2:,13;;<134O>$*o+,*-<:,@-:6700w0,r2,%",
"**$00-;*00r0<<er;,7;$*0,107,;01;;,o11>#,$*<o+0<76>->#24w6@>q14q,",
"><%03$$000q;>0r0<*%*;:312603:7-;;4><<13-+*3*o0*76..>@1>:%*&6>>w,",
";;$0+;$0w<<0;0rr<>,,*w0<<00*+3<300*<+313>;4,%040q>,6*,,>:--%,re>",
"44wq*;w0wq0w><0w7>++X7w%<3,w30w000#+333;;;7<-$000#&%>>,2w0:>q6qe",
"er<r>>rqwqqw1>>-w,<;:rw:07200%<rr<%@++1<>-073@:3,>>:>,00w4>7:>::",
";;r;>0e&$<w0e<>$,>1>07>3*>333<<rr>-2-X3<<*70118*&-*&*@64,:0ee6-:",
"<w030<<%<w0w0;>$33wr1;>;40<;*<3rqr77*++31<,100<$*%%,*4:>&q0q6@ww",
"<e0w<7r00r<ww0w-;<00w:7:$$:*+>3rrr00q%+3e003w;w<>$1;>1>3>,4q-qw,",
"er0><<wwr%0w000<3%31@>:,<$$7*<,-rw0<*++r>r0<7:0>;*073>;we1,4e6:*",
"7w6<,<<::3w6<,0331+w<@rw:;*7313*3:>w*X$>>e3w00<*$0003;<;61:-001-",
"*<$;01<><>0<-:<3*0,$>w$$4>7<40*;3<007+ur>&->;<@;$0w<<w;3e2-:;>-:",
",7$-r<>$<<3;,3<,7w@$>ww03:147031<w00++y7>0r1<3*;w0w03>;<7>77647*",
"<,<*X<<,>,;*323<3$<:$<>0;3w0<<<7*40:>+r<330w;0>>r007<:>*67>-:,:*",
";300;<1>;3<0<<27<*%:>;>w1<4><7>3w04;>@ww774,,>>0r%*><>,-eure:70-",
"-3q*-$<<*3$33:70<<**>4>,4><<,>+r3r000,<,r0>*040<<*3w6>>>r07e412q"
};
