/* XPM */
static char *_7ca3d9536814713f9f4ad6f27fe6cedhFT32XMRSDwYB5Ji[] = {
/* columns rows colors chars-per-pixel */
"64 64 34 1 ",
"  c #7F9EA8",
". c #809FA9",
"X c #81A0AA",
"o c #83A2AC",
"O c #85A4AE",
"+ c #87A6B0",
"@ c #88A7B1",
"# c #89A8B2",
"$ c #8BAAB4",
"% c #8CABB5",
"& c #8DACB6",
"* c #8EADB7",
"= c #8FAEB8",
"- c #90AFB9",
"; c #92B1BB",
": c #95B4BE",
"> c #97B6C0",
", c #98B7C1",
"< c #99B8C2",
"1 c #9BBAC4",
"2 c #9CBBC5",
"3 c #9DBCC6",
"4 c #9EBDC7",
"5 c #9FBEC8",
"6 c #A5C5CF",
"7 c #A6C6D0",
"8 c #A8C8D2",
"9 c #A9C9D3",
"0 c #ACCCD6",
"q c #AECED8",
"w c #AFCFD9",
"e c #B1D1DB",
"r c #B2D2DB",
"t c #B3D3DC",
/* pixels */
"8-r;1>:r;;;178979>9197@+07>9979>7>;==$=+80>1qq=-$O;$$%%-5>=%;1;5",
"2<r;114r;1:>77777>75$-+$#+15=1;q8#o,>;$7897>7>+$+o+;===;5>;=$557",
":=*::>q5:111>-57=1>>++=-;7>>17qq7;o711>>1599o=;;$$o$>++>2=;717>>",
"1511=-:;;:,1o577$71:7$+11:>9=+oo>795:==;1117o;>o+$;;7=19qq$;17,;",
"7888##%#;11+oO17@;>59>@11.$1;>;58q9>$$;;1<;$$>1$>=>7+799tq+$>5>5",
"O*:0=*=$$$:.1+$.o>>57:>=1=>>779q79#11,->,1$>:77;$+;>+7,qqq++o20-",
"@*>0::,=5>2o1+$>oO7797;=8;5595+>q+++1;$=>1::$;;1=;>9951;>9;==19;",
"q>>;4:>>87>>$o$>$o1+-51>$#1>;@$+7;+>2;;>;=@$$;;11;7795>;>>$=$>8t",
"q5>;=1:797>>2;=5>o51>;=,1;;:;-==+qq>1;==>-$=:>:79757>17-;>>$=>>q",
";>--;5<24512%;=5,$o111+==>;>1q9=19$=1#=$,=+++:;;555>;751>+>oo>5-",
"75-=77%%$%%-;-$75,o>5;;;-;>77qq9,;9799+-=+++;$:;17;;575>>>1++>77",
"771=,=%%%%%11:+671,9+o=+@+O777qq=9999q;1;>=;$>757;;;55;>>5$o$=77",
"77$o2%%%,25>>>,,>971+++$=@1;17997q1=;=-;$>$;>7=75-;15>;;;;==+;1>",
"1>817789871:>,1179=q7>%$$$7707>>15@=>;;2++=+75==75777;;=;;;oo$+>",
"7177$>qq-@,5827159+7t>>+=,112;>5;19q85=+>751:;#@;;55;;>-=;55;5qq",
";255>,rq;;9qq7q7789>t;->>17>>;;;Oq1q991=-=qq;+.$1=$#;=;=;55=;59$",
"547111q7q99qq7;=+;>O$1,1249>>@$1,#+7980=3=++;# #=;$#o9-==51>5q#1",
",61544qqq70q7.o>;;=$$;155+9;<>#=3,3+5,+-=>>++3#>+;$+19q+t5q9+>>1",
"85;11;oq9qqq9-o:1+.>$;15o+o51+O$3<3,+8>.w8==%3>->$#1;-+o=$+1$1;>",
"08=;:;,47$=7q;>;1>;>>1;=>>>>4+o;>3+7>#>8+#5=5--=-71+$  $=$$#>55q",
"00:4>;21+.o+1+=7>=o;1,>>>=>15O>4>>38++>787<->==>51 =;+ ;;;>>559q",
"25;75;::=.147+=q>= 411,>>>>+++1,<><+,=+>>8+355==5+$o<1 1<$85>+>3",
">-;885+7;.17>:%o>>;;<>111;>>o5>>,3,##==++88+88=o==3>$oq97>+7+$-$",
",;>,9@+qq+;:577=>>>$1>q;1<>>>1<=78>>++-=++8#w0-#$q;77>759-ttt#$+",
":>;>9-$<qoo#78*$+>>$1o1<>1>>>>>988=#>++==+07-88#+tqq>3*8,t7=0tw=",
";1287>79$q+++$ +;1=o>#4,11$>;>@;888*>78+1003%573##$q<%88++#$8+-t",
"12187>=781$+ ->>+%$=o14<;>=>>$+$>887>*>0+3>08*77,>88##tq++>#=;;w",
"q;;:19qq5*+891.>-  $.12<55;>57$>+=87===>;+3 ,q>8 0,3.+ww++8-3wqw",
"t;<::799t5895525991.oo=<,4$1>+;;>+888888#+08>0001  ,1$+qq#t##-80",
"5>1111@O>1.+$<q+$1--=$145;;+8>@93,>>,,#=###+,3  1 .,%%<777889++8",
"=;><1+-$$@*O#==$o<=-% 121+7>=>>$>>55,,#+==-7>>,>w0%##$#787880;+=",
"#;11+o=%$1,+$=-$$1;1:#$+$191;%=;=>35,,7#+3,>>0>-37+>**#$1>8898=+",
"$$=-#,%#<>,o>>,$<>+t0+o*537#,3<>>><8899,+,1 #38><=+7=;,87>8788*w",
"=3,,#-73++  >11  ,+0,=o%>8+++,,#=388898>>*1 oo,>3> 37378778800,t",
"-3>=-51o+==*+<3# 3#+w8=$*7>+>3,,#*383888;>,+o,>=3,%+,78<887>#003",
"153==3=3+;>1>%-> <>#%-==>#08>13,#+3##+#87>>8,,>#73>+=><#>9,##==,",
"+88=+=59+#%<85=owqqq#%=*,<8#-53#$3383#+%=-,>>7>#773>,#58=81,=000",
"+88;%8w=*#%,58,,88qq#%=#53>37=+%3>->%=+=>>>,,5,,,,8,==%#%8,##,07",
"1=>q9=>=-oo++1%-<87,#$$*;-1,,+#,=**==**=>=33,,,1<77>-*787$01<,58",
"=$=,==>;;=o,17%=8>=+>=$$>=,*,=<>###%#%=>,>0>,838,5835%$,7=>83*$$",
"-%#%$>>->=#37>,*+>>>=-%-=5-=;,,;#####%$,,3w,8080778q7$$%,;=*-<=+",
"###%=,,,%-+=>388*>>>=1,333=%->-3883%#%*-<w5<988>*+>705$$==>%58-#",
"###;+==w98.++77%%#,>=,$#,5==;=58+#3,>>%>=>;<87 o>=>3,1=1==,3-78#",
"++*.87+-=#8#++# +=5=#-,35<==;>33>$3***=$%*%,98;o>1=  113;;<<%585",
">,#703=;>,>%# =>>#==*>==83===$>>>3;=8#3>==%%<9->=51=o,w8+=#38=87",
"==*=+=%%>>*$78<+,=o+==>,3%%$=>=,,,-<>>3,->#-%3+=815*=7q%18> ,9>8",
"q=5#;-%->7,8853,388,%=$7>>=+#3,,3-->>>>,<>%,33#$3$>$-t7>>q0--888",
"#=,=#o$#+33 o%30#%,;;-=>+%3#+5%,>>,,> >>3>+%>>=#=,>1%1150+t><;+$",
"*=>+7==+>11 o#==#+,>==-3>=3>$737,=>,13+ *>-o+7>+,<+<115>.+0+q3>%",
"$$+78%%=515*o#==##1>,>1=**3>%#773; ,,-+ 1>8ooqq+$  ,1>%><*w=777>",
">>#71##77853o>,,%3>+5>>>-$75,+-1>1=>>,,11=qo+>q+. ;%.=<8,>%%>>0>",
"**+7o*#88-%+o,13  1#3,3>,$57,,8$-3$>o1,1$$%=q0%q+ =++7353#$*.qq=",
"<388%=898533=#1,+ ,%+,-,<,>,873*;1oo,11-$=%=11qqw8$o%-78#$$#858q",
"80,w>-078758>-+>1#3==5;>888<8-8831+ ++>>187>;=o$1w%+8%=++##7=-==",
"==8==70#%,8573>+#33,05#8-85>3%>3-,$#+>>=>3>=+>+$q*0$+##$=+#q05==",
",w838>,$,8787=>$,>0w=%#>,w8,>*>%,>1+oq7=>-$qqq8$+0=>+#$$#+#75#99",
">q7q>5w88w,880w->+>->=78,=58q==-;=7o+>0$19q=q88%+#,1o+%=#*%7=78<",
"qw8>>>w80#8qw89,<=-%>>1,=;8#-t;====$78%8;99>>q>>#$$>o$%33=>385=%",
"378,>>>==>8w57w838,>,>1%-%=->8$=5%=$=35>-91973-=q0>$$$>=3>==78,=",
"====1<33>>q88$87881-517,5-,t99>=5#$58598>$=;=-%+;-==,0=183==--==",
"===$151->>,9%+807>-585733$-=>1>#-%>17>97>7w1;;;%+#$->==,5;55515$",
"$$=$,1-,;>,9,>8q,,%#w3>85,3-$=*>5>1>>,q3557q%;=--;->-=;%55;==,=$",
"$$$$<>>><,00<>>738,->38w=58>,>+5,%-5358558q>+-=1>>=%%=-%qtw8=57=",
"=%#7>,=3<3988>78,95>,83-==8<-=$5+=#5817q777+9;=1===>%%;=q73w3,17"
};
