/* XPM */
static char *_38b493599614df2d1cb3eea67235c3aE1RsLjrHtqFsun5I[] = {
/* columns rows colors chars-per-pixel */
"64 64 41 1 ",
"  c #7E9DA7",
". c #809FA9",
"X c #81A0AA",
"o c #82A1AB",
"O c #83A2AC",
"+ c #84A3AD",
"@ c #85A4AE",
"# c #87A6B0",
"$ c #88A7B1",
"% c #89A8B2",
"& c #8AA9B3",
"* c #8BAAB4",
"= c #8CABB5",
"- c #8DACB6",
"; c #8FAEB8",
": c #90AFB9",
"> c #91B0BA",
", c #92B1BB",
"< c #93B2BC",
"1 c #94B3BD",
"2 c #95B4BE",
"3 c #96B5BF",
"4 c #97B6C0",
"5 c #98B7C1",
"6 c #9AB9C3",
"7 c #9BBAC4",
"8 c #9CBBC5",
"9 c #9DBCC6",
"0 c #9FBEC8",
"q c #A5C5CF",
"w c #A6C6D0",
"e c #A7C7D1",
"r c #A8C8D2",
"t c #AACAD4",
"y c #ABCBD5",
"u c #ACCCD6",
"i c #AECED8",
"p c #AFCFD9",
"a c #B1D1DB",
"s c #B2D2DB",
"d c #B3D3DC",
/* pixels */
"9=2.&,9;o2&969w92-9<8r26r22&&66@&qrru,9,$&<-wr19ywrr:,6,q2--29,0",
"61w42$-=;O69525602ruurq,r162&,869@86@1122=;&r&,:9r769,2,rq--=99q",
"5<;;4<o.=o686892-22-&2w&@96@@&9996@r2*uq279ur=16<<997-&-u9099r6,",
"0987,695o+.,569,-80*&&2#269&@,29&q2,22*;99r2u,,,7--&2,29,:r9,q02",
",iyw&$:=:,=678-=&*-&2&<o@-q-,8229r62,:2,62,y,29@6@*6+68-$2o2u2ro",
"5,2u:-:=-=o284@,-,&-6,<&#@97qqrq95:9586,26208r66=o*6&6r&#ur<uuu6",
",,4u125-942@<@&2+oq566&02*96uq-26@O;566,,569w9559,-96,,@&&$76oo6",
"u55,9426rr45*+*2-+q&<65@&,62-$,=2,&699-&-,-<1666=,,q9,&,,,q2225a",
"a92,-91wrr458<-92o98-,956&6,-&2:;-.899@,2,-,,,-,1,,q79=@6622r22u",
",5,,19689967=,;06=&-&&972,=1-,8162&=oo&,,-$@$,:666166r2*77o&6w9<",
"q9,-ww=====,<,&w06*=@<29#725-76@au+o#,+@2&&@,-226921qr22,8-<,79q",
"qr6-6-=====662#qq67-26,-&956.o7@a6-.-6&&22;,-2r9q<,19r91=r10820r",
"qw*+7==-599554556r6,8252,o66@ 6=@ur,-82&,2&,1q;r9,<69<282&=96662",
"82r9rwrrrr722667qy-r9,,22,o66.96@&<--952@$,$r9--r9qrq--<666@;;&5",
"q7wr&4ia:$49y8r69r&9r-,&:q6&oauai&-,-95-2q062,&&;<691,,-2799-qyu",
"189055au:<yuuruwwrr6u5-,u,qq5uuiu&;2,87,22yr1-o&q9-,,,-:,962,9u=",
"99q877iwurruur2;@26+=6,-uaa2q,aai##61<77r<4<41$76rr,&9,,,9929u&6",
"6w7990iaaruaqoo2,,-&&,6<=@ua,6,2r<=72;72w0qq0w2yy@a::au#a9ur&626",
"w0<66:oiuuiar,o16$o6*,66&-qa,,:24-19:=84wwq<&wr7@@rrq,-@,&&8&9<6",
"ur=,,,59q&;qi,2282:226,,267ru9-224$;=;1*4u6&&,=76-a.o &*-*&&200u",
"uu75&@64@oo@6@:r6-o,76222,67q696@4<@O*9q=u77;yuy62-,,&@<<<2200uu",
"9u*-oo-,-o79q&-u2-o99662522&&;9679w7<-**=w6##6uw5&-*29@92*u02&27",
"1*&=;o+r,o8q22-o222,66686<22@616w,<<*-qww*y766wy&-,q<@urr1&q&&2&",
"8$;,0O@ii@220rr-272-62u,6666262:87<4;**7w;1y7#&$@,<796r0r,ada&&-",
",::;q@@2a@o&rr--#22-6@855762222qwq,=4-=-7;==***;;::777-w7aq-uaa:",
",;;;;&ry&u@@@& #<9;O2&9666&222&,rww<1r6**=<*+<,47<276<rw;-;*u#2w",
"&:0=:&-ru7-@ ,62@---o68622,12  &1w90=r2<#;4-@6*77#<972yw==<*;,19",
"2:9&&9au9-&rr6.6, .-o69598,&:+.@O:29-#ur<;7<$wqq07&<24w=:,2<8r06",
"5=--2qara0rr9059rr6.+o,669--&oO,:#;07$*1;;06*+70w7##7=7yur8<&299",
"rO66uro wr.@&6a$&8::,&699-&=@@=4<:yyiu$-;&q07O109&$87;y7uyr9,:<d",
"+,@8u<  ww o&::&@6::& 698+1,&2&904rudy*=<#0024w*+#9778*$wwwu<4<<",
"aa29,- 0rr-o&,:&&6162&-oo$2&-6-2<7<did#@81,<772#@0842768*97#1-==",
"0pp4;;wrwr9#444%64#pu# #<OOr49w47<4<4i1<0<7*<<9<0744-9777#r4%r6;",
"d#d;;dur    677  6#u7;.;4- r%ww%47745y44w9<-%#4779-*<<9*w4*4r*-7",
"OOurr4id ;4%.97# 5*#ir;-04 0www7*1w066w0447##676<9<*45<9w#*4www4",
"4;p   0d *:4;O79 04#*<;;w4*O70w7O#0*%*%w9:4dw6<O-<44<447#4:#44w#",
"74;;;;dd. .;w4%.pupi#--*w04.490##07yw#O##<7rwd7w74w4;406*#;:##wr",
"7%*;-dd;- -a<rw4updi%-;%9944w%O#099w<<##%7wO rw*<0y-*464<%%;:%#r",
"***dd;;;;O#uup4w<ipp##64:4944##0898y<<O##w4  wwO#-<4-:r4;:*#<;*u",
"-%*<<;4<<;OO#pu:4<4p4;w<7-4;4;9990%y<74##4<O0rw;O*44<-;94<0y-477",
";*<;*<7<;<<;:pp4:44y:4uu;0<;<7009#O#07OO#4<wwrr0.446-<-;9:;:4#;-",
"%y;77464#OO400ppu444047707--;;;;<11440##<7wwi    667#;--:;;;#%*-",
"#iuu44;uy7#-4w4ii94;;7##49;;::5441<479O4974wp :<-O77*;;7:::<###*",
"***i6*07;#:447w<<4<<-7;0w4;<<:444441###77970dO*<4<#:*466:;::#44#",
"44wy%%i74:<44wwrw0<<07;;y7;;;*6417:44O07<647<*O#:r7;O7pp#*.*44<4",
" i77O#w4<44pu4rwww7;;477u<;;;54414477487#:<144=%w6u:;wd;..O.4<<%",
"9  47*%44wriiiw4ww;%#;;uuu;;;44;44;144<077*#64+O;*9;<puO..O*:4;-",
"4##<*#;%Owwrii<ww-wwO;-uyu4:647;:4445O4477..;:;O4646*66..O#444#w",
"67;%7*;%7;9wruii:%00#;;<uu;y4446;-4477O.;:< Or< 54#6666..O.#u0<#",
"-<#0w---wwir44ui-40;#*w<4rpir0<;;4.54<% 94r##ppO*  666**;%-;wrw4",
"44#w7##wrrr-<wiw4*%%;<74<5ippi;;;0<446767;uOO4i#O.;;O**-0w#-44i4",
"-;%wO;%ry44w<wii4:44*ry;<47uipppir%4O646**--ii-i#.-#Or**rrO*Opu:",
"67yy%;ywrrry<4wu94.OO0p%449yyuu00wO 777<*---66iuuy*O*;uO;#-%w0ru",
"ui4i<<iryrru4:<;r44;;aa O%0uy#%u90##O.776ur4<<#%7u-#r*7*-#Ow;::;",
";-i;;wi#*4yri<<O4-4;dd;- -p4w# y0i.4*.64464-O4#*u;u*##**-#ruu9;-",
"4uw7r44%4rwyw<<O9;ud;;;;#.ir7w#wii#9#.O76<*iiuy*#u;4#***.wwr0#yu",
"4iru49iwri4ryyu<:%4;;44;;## 9r#r90<7r#O7yuu-uuu%#%66O%*6;47r;wu4",
"uuy444iyi%yuuyy444;-44;44:;4rrruu4*##OOu<yu<4i46%**4O%*ry449r0;*",
"0wy4444<;4yy9rur9r44964%#%59:;u 4O6p% #4:u7uw7<-uu4**%4;04;;rr4;",
";;;;667744riy#ywrr6:09r94;-4%#.#44rr0Opu4**<;<*O:4;-6u;7y7;;;:;;",
";;;*797:4<4r*#yrw4;9r5ww-;rrw#..5arr#Od0:wp7:<<*#%*<4;;49<90090*",
"**;*76<4<44y44yu44-%uw4r9:rrrr#44ap;:Op69wrp-<;<:::<;;<*00<;-4;*",
"****544<77ry944w4u4;49uu%9rrw%r -#% :#dpwui4#:;7<4;-*;<-ipiy;0w;",
";*%w44<994yyr4ww4ww44u54-#rrw5;%%#%%papdrww#r:-7<;;4--;;pr9p047w"
};
