/* XPM */
static char *_6ee666a1fd44a959fee0dc36769de25WbVvVnGCL5iVBSDI[] = {
/* columns rows colors chars-per-pixel */
"64 64 99 2 ",
"   c #5F7C90",
".  c #627F91",
"X  c #648496",
"o  c #698797",
"O  c #658699",
"+  c #698799",
"@  c #668A9C",
"#  c #6B8C9D",
"$  c #708F9F",
"%  c #6E909F",
"&  c #70919F",
"*  c #6B8FA0",
"=  c #6D94A3",
"-  c #6E98A7",
";  c #6D97A8",
":  c #6E9AAA",
">  c #7195A4",
",  c #7399A6",
"<  c #799BA7",
"1  c #7297A9",
"2  c #739CAB",
"3  c #799EAB",
"4  c #739FB0",
"5  c #75A1AE",
"6  c #7AA1AE",
"7  c #7CA1AE",
"8  c #7FA4AF",
"9  c #6FA6B5",
"0  c #76A2B0",
"q  c #76A3B2",
"w  c #79A1B0",
"e  c #79A3B2",
"r  c #7BA3B2",
"t  c #79A4B0",
"y  c #7AA4B0",
"u  c #7BA5B0",
"i  c #7BA5B2",
"p  c #7AA5B3",
"a  c #7BA7B3",
"s  c #7EA5B1",
"d  c #7DA6B1",
"f  c #7EA6B1",
"g  c #7FA5B3",
"h  c #7FA7B2",
"j  c #7DA7B4",
"k  c #7CA7B5",
"l  c #7DA7B5",
"z  c #77A8B6",
"x  c #7BA8B6",
"c  c #7FA8B4",
"v  c #7EA9B6",
"b  c #7FAAB7",
"n  c #78A7B8",
"m  c #75ABB9",
"M  c #7BA9B8",
"N  c #7CABB8",
"B  c #7FABB8",
"V  c #7FACB9",
"C  c #7CACBA",
"Z  c #7DB1BE",
"A  c #7DB4C1",
"S  c #7FB8C6",
"D  c #7CBCCB",
"F  c #7DC0CF",
"G  c #7CC4D2",
"H  c #80A3AF",
"J  c #81A6B2",
"K  c #80A7B4",
"L  c #80A9B4",
"P  c #80AAB6",
"I  c #82AAB6",
"U  c #80ACB7",
"Y  c #80AAB8",
"T  c #80ADB9",
"R  c #80AEBB",
"E  c #83AFBB",
"W  c #81AEBC",
"Q  c #89AEBA",
"!  c #82B0BC",
"~  c #81B2BF",
"^  c #84B4BF",
"/  c #88B2BD",
"(  c #83B5C0",
")  c #83B5C1",
"_  c #87B6C2",
"`  c #88B6C1",
"'  c #86B8C3",
"]  c #84BAC5",
"[  c #86BBC6",
"{  c #89BAC5",
"}  c #84BDC9",
"|  c #8BBDC9",
" . c #85C2CE",
".. c #8CC1CB",
"X. c #82C8D6",
"o. c #89C9D5",
"O. c #82CCD9",
"+. c #90CBD5",
"@. c #8AD2DE",
/* pixels */
"6 6 7 s L 7 < < 7 7 < < 5 H 8 < O > > > > < 3 3 , = , 3 3 2 < 5 2 6 < < , 6 < 6 K L 6 3 3 L Y J J x J i 5 < < < 5 5 5 6 6 s s b ",
"w w s s s 7 6 6 s s < < 5 s i , X > > > > $ , > , 3 2 3 3 3 6 ^ 6 6 6 < 5 5 < 7 s L , > g Y L B b g i 6 5 2 - 2 5 6 j s 6 3 6 b ",
"6 g K w K 3 6 s s s 6 2 2 i i , + X , X X , > - 6 2 2 3 3 3 L R 6 6 5 5 < 5 < 6 6 , > 3 Y b g s 6 0 2 i a 5 0 s j J ! L 6 5 i j ",
"7 7 J w 4 6 K R Y 7 3 , , , 5 + > # # > # # > R i n i g g g J b U 6 6 5 6 6 i 7 < > > 5 g b 6 , , > , s ' ^ b L b N ] L 6 6 q 6 ",
"s w 7 7 6 7 b R b 6 , 1 , - 1 o 1 , 3 b i b V M n b s j ! V ! _ N 5 , 5 7 s 6 6 & > 6 2 < 5 5 < < > < 3 6 6 j U R ^ ' i 6 2 i i ",
"i 7 6 6 3 < 6 s 6 , , , , - , + > x g x V B Z b b b N ! [ V R b 6 < 5 , 5 6 6 5 # > < , , 5 , , , - 2 3 > < 6 i L Z V b 8 5 5 6 ",
"i g g 3 > > 2 3 2 2 , - = % - X 3 g g Y B B V ) ) ) } ) ! C g b 8 5 , , 5 5 5 i 6 > 5 , - , , = = > 2 2 < , < 6 7 J i i i 6 2 6 ",
"6 g i 2 > > 5 < 7 2 , , & $ . # b B B V R V Z V x } M 2 6 0 0 0 i 5 5 , < 6 6 6 8 > = , = - , 0 , > , < 2 , 5 6 5 6 3 3 5 i 6 8 ",
"w 6 7 3 , 1 > & > , 3 2 1 + # > R L Y E Z _ } i 5 n 0 0 2 : 2 0 a 5 5 - 5 6 2 6 i 2 # , 2 2 2 2 2 , , > < 2 - 3 < 2 i 6 i 0 0 w ",
"s s , > - 2 1 - & > # + o # $ > C V ! E b b V 2 z n 9 9 0 4 0 : 5 6 - 5 q q i q z 5 , = > 1 : > 6 6 2 , 6 2 - = 1 2 s i i i 0 6 ",
"7 g + > # * # = > $ o $ , , < > x C x x } A 0 : 5 9 0 q 0 9 0 0 2 2 5 z x i x q 5 w 6 1 # 1 2 2 6 6 6 6 6 w 2 3 1 6 w n i w 6 0 ",
"6 # K K L L b J L , > 3 < , < , C m 5 z A x i i 5 5 2 0 9 0 q 0 5 2 5 5 i 5 q 2 2 5 5 i = = 5 0 2 i i s b ) A i s 6 q x n w 5 6 ",
"# 1 b B R ^ ..^ b b $ = * + , n 2 , - 2 ) V b z x q q z 4 0 w 0 5 5 5 : 5 5 5 5 5 5 0 i % # i 6 w i n B V ) V B w s B B s 0 i # ",
"2 g n B U R / { L b $ + + > 1 , > - - 5 A _ Z V i z C i q q M q 5 q 5 5 q x i x 5 5 0 x = 1 i x B B B S V ) ] Z B g b B V B = n ",
"i i 6 s g b R R b s > $ 1 5 1 1 1 : ; 2 E C N V V C Z N m q 0 i q x q i i C i q 5 5 0 @ # x q n M C A 0 0 i M } B 0 0 ) ^ = s i ",
"g 6 w g g s b i i n > 2 6 5 1 1 1 : - 2 C ) V ^ Z V Z V V C g w q q x C C q q q 2 2 : X @ 2 2 2 2 : 2 2 2 5 0 B n i B < b n s w ",
"i 6 6 6 6 6 i n b 6 , i 0 0 5 5 2 5 2 2 B R ( E E ) M ! C A B n n 0 x n C q 0 5 : : X X @ : : : : - ; 5 1 5 0 z z 5 0 O g L x w ",
"g 7 6 i i i 0 0 x i > 5 2 2 2 : , 2 0 0 G D ' A V B V C M g n n q 0 M M C 0 0 2 : @ X X X : : : : : : 4 2 2 2 - - @ @ g n Z E w ",
"6 g s i n n i n 5 , X 2 : 2 2 5 5 0 0 6 D G } } ) _ ( ! M w b g M B B C V 0 0 2 = ; = = @ X : : 2 - : 2 - : - = = X # g i V i n ",
"5 g J i b 0 i 3 1 O o 5 4 1 2 5 5 i M 5 : D A B B V M C C ) B ) n M M V B 2 1 = - : 5 : = @ : : 9 : 9 2 , , > o @ + 3 5 0 5 5 i ",
"1 6 V B n 0 0 2 # + # , 2 0 0 0 5 i i i q C m q 6 6 2 i C C m 0 s R w i = X . 2 2 9 2 2 = + = O X = : 1 = : + % , , % = : 3 3 i ",
"2 i b R i 0 n i > = + + 2 0 0 0 4 i n s D 9 m : 2 5 2 0 B B 0 n V 4 2 # O # , , : 5 0 0 2 O X @ X @ @ = # X = , , > % % : = , 3 ",
"2 q w w 6 6 g M 1 = 1 + 1 , i M i 0 n D G 2 q 2 2 2 : : 0 n n M = - 2 1 X = 0 0 : 4 4 0 0 O X 5 z 0 A A V 0 O = , < , > = 1 , 2 ",
"2 0 0 i i 6 n * , 2 2 > w 0 6 n b n D G 0 0 0 2 1 : 1 2 1 m m : = 2 0 : O 2 m 0 5 2 : 0 2 o @ q 0 Z } @.+...M # & 6 < 2 < , < < ",
"s 4 j s n 5 w Y ` 0 2 1 i i i i w i M A : 5 2 2 2 : 5 2 1 1 O # : 2 4 ; # 2 5 2 2 - 5 q = o # 2 2 0 i _ ^ .. .E N H & 6 7 7 < 7 ",
"n 6 0 w w 0 4 3 g ' E > , q 0 n V n A 9 5 - = = - : 2 # . . X # : 0 : * ; - : : 5 : 5 5 X @ = - 2 1 4 | ^ ^ I b R L 2 6 L / L L ",
"0 2 3 3 4 0 0 , 6 s 2 1 1 2 5 A A B ) m 5 0 : : - : - - - = O * : = O X : 2 - - - : 4 @ + 1 : - : 0 L | ` U N b L 8 6 < j 8 7 L ",
"B 0 3 0 2 n C 0 w 2 0 0 = : 4 2 6 w ) 6 2 : - : = 5 5 : - : * O ; O O * : : - - : - - % - : , , - 2 R Z ! ! b b i 6 6 < 7 6 6 6 ",
"S 0 w q C M s M z 4 1 q - 1 - - 2 2 2 2 , = , 5 i x B V M m e = * 1 * - - # O - - @ @ @ 5 - = = - 1 _ N I B I b j 6 7 & & , < < ",
"w e 0 4 4 A n M M n i n 2 # = = : : - 5 > % 2 s i 5 w n B A w : 1 1 , 2 1 - @ X X X = m x : - = - , { / b h h 8 h j 7 5 6 < & 5 ",
"3 0 w 0 0 } A ] M V S C - X # - = = 1 0 > 2 5 i b n 5 4 0 O.0 ; - : 2 4 : 0 2 O @ 9 z 2 - - , > , 6 { ! I h 6 < 7 6 8 < 7 < 5 6 ",
"0 2 2 ] ] }  .M 4 0 q q , O # = > , 1 2 # 2 5 b i 0 0 0 M O.m = : , : 2 : 2 i @ % : m : - - > & > H ` 7 7 j 8 6 6 6 7 7 7 7 & 7 ",
"0 0 M V n ( V < > & = , , @ + > < > > & , 5 2 x s 6 5 a Z ] z 5 : , 2 2 - 1 2 = X 5 Z 2 : 2 , - , ^ ^ 6 3 J H < < < 6 7 7 < 7 7 ",
"Z Z A 0 5 0 6 < > % = > = ;   = > , # # 6 b 6 x b s 5 a j [ b 9 , , 2 : - - 1 = X 9 9 - : 5 5 5 ^ ^ ! ^ J 7 < 3 2 < < < < 7 6 H ",
"E Z A m w z 4 2 < & > = = ; . . X o # % 6 x s V C q 2 2 6 R z 5 2 : 2 5 : : 2 % X # - : - = 5 Z ..L R { 3 < < < 3 < , < 6 < 6 L ",
"0 n Z M 2 0 2 , , = = = = ; X + # % # 5 0 5 5 a z : 2 5 6 L N 5 2 : , , - - : % X % , : - = < b L ! / ^ H 3 < < < 7 7 7 6 < 5 H ",
"A 4 9 : : - , - - - = = = O @ # 5 > + 2 5 5 5 q 0 2 5 5 6 b ^ q 5 : - , 1 , 2 = o # , 2 : 2 , - , q ^ U L J J H J K I I H 7 < 6 ",
"q 2 : 2 - : 2 - 2 - = % = *   O # # = 5 5 , , < 2 2 : , 6 V Z 5 - , - - 1 = 2 1 = # > 2 1 0 1 , 1 , Z Z L L Q L Q Q Q / L J 5 6 ",
"3 , : ; 1 2 0 : 2 0 2 5 : : 1 * O : 5 2 5 < , 5 2 < 5 z Z b i < - 2 = = = = 2 2 , = 1 - 6 < 1 , L 6 i / { L L Q Q Q Q L H H < < ",
"2 < 1 1 2 0 0 0 0 z x Z M n n = @ 0 2 2 5 - : 5 q x V ) } z = > , , = = = > 2 6 - % # q 6 3 3 g 6 3 2 3 L 3 E ` Q Q L J H 7 7 7 ",
"n s 6 < < 6 V z M A m A V ] 0 = O i n x i , = 2 5 V ( } 5 , > > = = % & > , 3 3 < # # b 3 3 s i h & & & 8 & 7 8 J J b L H 7 L J ",
"C V b 6 6 7 j N ] A A M A A 2 # o : 2 i ) Z n V Z ^ o.X.- , < , > > = < 1 1 3 n 1 * 3 3 g 3 3 s 6 < 6 6 8 H & & < < 8 j H 8 J U ",
"z b 5 6 L b z V A ) A n 9 4 : O # = - 5 0 A A Z ^ ' } 5 , - 5 , < < 5 6 3 3 < < > w g K E Y s Y 6 < & 7 6 7 & 7 & , 3 s j Z 6 < ",
"< Z b i / N Z [ | } M 0 : 4 : # - = - - 0 0 x i V ! Z 5 , 1 5 5 6 7 < 6 3 3 4 1 > 3 3 s K Y | ] < 6 < 6 6 8 7 7 7 < > 6 7 6 , < ",
"Z C A M [ ^ ! N s b 0 4 : ; @ * 9 : ; ; 4 q : 0 0 A A 1 1 2 2 q s x 5 3 w 3 < > 3 3 3 J K L ` Y < 6 7 6 6 7 7 6 5 & & , , , , < ",
"0 b ) V S S x i i 0 0 0 : - = @ @ : : ; 2 2 : : 0 x 5 : 2 1 4 w q x b n i 6 # * 3 3 2 B g ` ( E 8 j 7 < 6 6 7 5 & < , & & < , , ",
"0 M [ ) C q 2 M z 5 4 : : : = X @ 2 0 5 5 1 : - 2 i , = : 2 0 0 i m m 0 M = @ = 1 3 J E ` ' E ' s s 6 6 5 6 8 5 6 5 5 , , < 5 & ",
"0 q 0 0 2 2 2 0 5 9 4 5 : - ; X - 5 : : 5 1 = ; z V = : : : 0 n z q 0 M n * * < n 3 s g Y Y Y | Z j 6 s i 8 8 u 8 6 5 , - , , & ",
"2 1 2 : : 2 2 : 5 5 9 , - % = % 2 ; = ; , , 2 5 Z 5 % % = - 5 n M 0 n i w * 1 > i i i s ! Q R ..' / / U L L L R M w i 2 = - > % ",
"- : 2 2 2 : 5 5 2 2 2 5 2 = = = : : - - 2 5 6 x Z % % = - ; 0 i V x 6 0 2 # 1 1 2 q i j U / L Q ^ ../ ^ I U R ! b 6 s 3 > - - , ",
"2 , < , : 5 0 : 5 5 2 6 2 : @ : 2 2 2 1 5 i i 6 = % % = = - : 5 q q 1 1 = * 0 w 6 i s U U ! 7 L L I L U U / ^ s 6 3 < , > > - : ",
"5 2 5 : 2 5 0 2 5 : - 2 2 % - 5 5 5 2 2 6 b q 2 - = ; = - - : 2 2 4 1 * * > 0 2 , 2 5 5 < > & 5 3 J L ^ { ^ N 5 1 2 , > > 1 , , ",
"2 5 0 0 0 2 , 4 z 5 2 3 5 = 0 6 w 0 2 6 M C 0 = = ; ; ; - - ; - 2 2 : 2 0 2 0 C , 1 1 1 - % = > < < 6 6 8 6 C 5 2 , 3 2 < 2 < , ",
"1 5 0 i n 4 0 0 z m 5 6 5 = g n x i 3 6 s q C - = = ; : = = ; ; 4 0 = q C V C Z # # = : 2 , , , , < > , 6 5 C 6 2 5 2 w 5 6 5 < ",
"2 q q n B C z 0 9 2 i q 2 > 5 0 n 0 2 i b 4 m 4 : : 9 : = - - : 0 1 * M R L x x 0 ; , 1 : 1 5 1 , - = - 5 i z m i 3 , w 5 i 5 2 ",
"- 5 i m M V z 2 , : 0 0 2 # 2 q 0 2 4 0 n 0 0 : : : 9 : : 5 5 5 4 @ = n C x M M 0 5 5 2 # # - 1 , , 5 , 2 2 i V s 2 2 i i 3 2 6 ",
": 2 q x b b U j 2 2 2 6 2 @ + = s 4 w w 3 3 2 - 1 1 2 0 4 0 w 0 0 0 4 n 2 Y _ A i 5 q 0 O O = = ; 2 0 2 0 2 2 3 3 3 w q 2 2 < 1 ",
": 2 w w 6 b / { 7 < 2 i 5 = + O O s 0 w e 0 , = 1 : 1 = 1 < 0 w 0 0 0 R w L J n w 2 V V * O = # : 2 0 2 0 e 0 0 3 2 0 0 2 2 2 3 ",
"1 2 2 5 2 R ` J L L ( i 0 : + + , * = , w w 2 - - 1 2 1 , 2 0 4 0 0 i M i i i 6 5 5 B i @ O * - 2 1 1 0 0 4 4 2 6 0 0 2 < 2 2 2 ",
"1 : 1 1 3 3 R { ^ _ Z , 2 2 - + * , = = = 1 , 2 1 < < < < 1 3 w 6 6 n B 5 5 6 0 1 0 B b # = w n 0 5 1 : : 2 4 q q q 0 3 3 n w 6 ",
": - 1 1 2 i b V i z Z 5 : 2 - # * * * 2 3 , = 1 : 2 2 * * 2 4 0 3 6 5 5 5 q 5 5 3 w g # = n B i n i i n 0 n w 0 n q e q 2 0 w e ",
"2 2 2 2 : 5 0 2 , - 5 5 , , , @ = 5 3 2 < 2 O = * @ @ = 2 0 4 0 2 2 5 q 5 5 2 5 4 4 6 O = A M 0 g M n n i s 0 M q M q < 3 w n g ",
"2 4 2 2 : 1 2 5 5 5 5 2 : 5 2 = 1 5 2 2 4 4 1 = O = ; 2 4 0 0 4 2 2 Z m m 1 2 5 : : 4 > > g b b b M j i w n w w q e 0 w n w w 3 ",
"w 0 2 0 2 2 5 6 5 5 5 3 5 : = # i 2 2 2 1 : : = * = q 0 0 0 0 0 : 0 5 , 5 2 5 5 < 3 < > , x R b i q i 5 4 2 0 0 g e 0 n B ! V g "
};
