/* XPM */
static char *result[] = {
/* columns rows colors chars-per-pixel */
"64 64 64 1 ",
"  c #5F7C90",
". c #627F91",
"X c #638396",
"o c #698797",
"O c #658699",
"+ c #698799",
"@ c #66899C",
"# c #6A8C9D",
"$ c #6E919F",
"% c #70919F",
"& c #6B8FA0",
"* c #6D94A3",
"= c #6E98A7",
"- c #6E97A8",
"; c #6E9AA9",
": c #7295A4",
"> c #7399A6",
", c #789BA7",
"< c #7197A8",
"1 c #749CAB",
"2 c #799DAA",
"3 c #749FB0",
"4 c #76A1AE",
"5 c #7AA1AE",
"6 c #76A3B2",
"7 c #7AA5B2",
"8 c #77A8B5",
"9 c #7CA9B6",
"0 c #78A7B8",
"q c #75ABB9",
"w c #7DACBA",
"e c #7EB0BE",
"r c #7DB4C2",
"t c #7CBECC",
"y c #7CC0CE",
"u c #7CC3D1",
"i c #80A4AF",
"p c #81A6B2",
"a c #81AAB6",
"s c #81ADBA",
"d c #89AFBA",
"f c #83B1BD",
"g c #88B3BE",
"h c #83B5C2",
"j c #88B6C2",
"k c #84BAC6",
"l c #89BAC4",
"z c #86BCCA",
"x c #89BDCB",
"c c #84C1CE",
"v c #8BC1CE",
"b c #91C1CB",
"n c #86C3D1",
"m c #8EC4D2",
"M c #8FC8D5",
"N c #8CCEDC",
"B c #92C6D3",
"V c #92C9D6",
"C c #93CDDB",
"Z c #98CDD8",
"A c #96D0DD",
"S c #9CD2DD",
"D c #97D3E0",
"F c #A1D8E3",
/* pixels */
"X25pa222i5>>2p5,OV11>,,O27,3252422b,>5557s3,japppap722122327277a",
"@7777252pi2,597>OV32:<1+<112556s:5g544%5pp:,Bsaa977311222227727p",
"&:p77227p75,177>&V6>137&&21255w565s7,5552,:lsaa7222792,12,2p2277",
",#p277psa5,>>,2+1x33761mO6977p59s557555i2%>C7732>:222<,,22p77575",
"3+5727as76>:>=>O7h7767991*7wssfs74,=$474:#xz142,,:,,21,,22225176",
"7@222,777,>>>=>+7w77w9e9x&wwksss541:$o$XXOs9,1;>:;21>2,222577227",
"7*<2::2222>=:$-X777a99wkA;0hsw77551;4>OXXOw6;>>-=:,5,>2227675525",
"5,&2:%2,4>>>%%.#sswpssswwx&15677844>,,=XXO:>>>>1>::>2>2472525765",
"72+2,::::>21*+#:sspsfrk86A#;9116681>452OX@&>11112>>:,2>>,2777372",
"23&%*1<>%:#OO%%%wwsww7826cw@;14455>4666OX1O>,1->442,44*><1777775",
"7a+@&&@*>%+%,<2%9w96kh6268n*;6;14446w7w@Xk&*1,>>5555565>,7767745",
"2#17spspp>:2<:2,8w6qrw4666kn&84>,;46616@Xxh*<,3356779ff532777362",
"&:pssjbsas:&&+,0>:>1rew766qMO362>441146@Xxw1*<27467wwh52777s777#",
"179asshj99%++:,<==;6hjf996wzM&725664696@Xm1h&130wwehws55pp7wsw*s",
"7777p9sd79:#,1-<;>-1CwwsfwewCO7797666w7&&x60<<168wr67559227hh:BS",
"p277797797:,63><>-=1Ahwhwwfwx7<7879ww66&@x67w@,11111222576w,p7B7",
"7227277795*666441111zfffwhwwws&376w7w96@&x121*&-==>1=156846+7997",
"pp77777792+411;11466NCvfswfwwwM<6679w66@Oz751;@*;=;3141==@#77fs7",
"3777077061O>;;112664yNrkjfffw7j<1www966#Ox653<-&;;;;;>:*@X+77w77",
"22227171:OO5121646964y68ww9ws99V<www944@On616>1&=;63>>:O@X246367",
"13131131#++#117665956r3;4429w96hO*76>64*&z616>1*O=>;*:O$O$$*-157",
",<11,133:=OO16666686rq6;41>4w967D@*45464&w727111@##*&X*>O$$$*:>5",
"1:<;3<:1<-=X,167769yy43;11=146666XO*7464@1666112*>FSVw+#X>>:*>>,",
"3.&&@&*,>1>O<76096cN64441=>;1w8141OX=486@1427217=6AcsgsXX5,,,,>,",
"11*O@=17s62@*77796xr;4111;41224446OXO44;O>417221#aZs52pg$5%25,,i",
"1;;&*6637js*OD67w7x63>*==;;,>,44446X#@4;X<h1231>+5Bs5229&225sgap",
">27,*>62565>Xk6rr9zw6;;;=4>22124444O**O=X<z2541-@wZ5p52i:*52p75p",
"&::>21767661Ow1447hM7;;;*;6;;;164414@;*@Ohk445,>+wZ5ap226#2>5555",
",*9h76476356*@;-113V7*>189www0774:>8O;4@Xxw12411@sZaa92a7#%,%,>,",
"&1Dw3w7wwq76>Xn*;>;M7#29747wqw76>=44O&6OXxs,144>@5Bgap557=$45,%4",
"V7w77krk0wrw=Xh-=*>V1,1777617r661;66;X4XXzs:144:+>lsa75555o5445o",
"077rkzzw3766,X7*:>>M11607666wr61;;;;4O&XOxw=44>:O2l5pii522$%,,$o",
"767w0sw<>%*1:@#v>>>,565775588984>>>44@OX.xs;661@@ef5i5,5,,$XXOO5",
"wee6672,:$%%*=X6::##zl59975679w4;>>;;;OXXvw>611=hkgfii,5,,%OXX#7",
"wweq6>132%:**-X oo##lB6ww61176841;44;;*XXv6;6>@wv9sg5,%55,,OOO57",
"7q663>,31>=**;.O%##1wV598;1577w44;:>==;XXv6;1:>apsglii,,,,,$O:55",
"w6111:,761**&OO#2:+,4C666;4257f61==>::1@XB16;1<->4fsppiiii52O5,5",
"615w6,7754=$&*X@@#*64m9,21;166w4;>==>=>*O7>>&61,;2ef9saddsiiXi,5",
"2577,>796944;-;&O;;11ej41>46964>=,***=>1X*<@s2,>557fgpdsddipoi5,",
"77772897668ew00&@614414844w6662:>;**=:14@@Oxh2225222w5agddp5%i25",
"9a979sw970wrqk7*O77w1=;r3;w644=::*$%:<22&O<V7,272,>>2,,,ppp52Ops",
"w7wwsw9wwwwwwr1&+;16;4;>84;9122>*:::<223&OVh72272>,,52,,:>55iopa",
"seswhwwwrsw006;X#*=1-6;;18;4==2>,,552,,2OhBpsp7a22,2522,,,455=:,",
"khfewsw9www6333&=*;>36114641>>2455,52,3<&C2i7pll22255ii2,>>25>o,",
"uzzhh*sw7s7776>>;;;*36;47961>1168722722&xd2i0pxa222255i2,:%>,%O5",
"trwws1swsww9076;=;;=;;;;69;;>>66690772&zj32p0pssp7p22552:>>*:,o7",
"qq37@10ww777w66@@;444==-46<;;;666w800-&x33iaaa9hpp725755,22>>,$5",
"qq11=,3w007w51#@*;;;4;=-6w*-;;66966qwXr1+23p777js7776a77554;=>$@",
"641O1>;66qq=:1<O>;--1,24e6$$*;6w00700O0:7557ap5ssggs7p597554===X",
"611*=;>1wq;*16;O;1-;,457q*$$==17w031O+>:27677a57ajjsasa5555,%>:O",
"41O;;4,1-O&-;4-&111;1854**$**=;476>X.&37276aa9255sasdff75,,,%:;$",
">*@=;1@. .@331#<41114811=**==;;;11XO+<7111422>:225pglgw5%55,,:==",
"1@===@@=*O*;*@@11112901=**;;**=;13X-136w<,>;-*:>,,5555941>22,2>>",
";@;@@*;-;*@:@@;6762756w-**;;=**;;OX&3www@#*;1=>>,>::56981411454>",
"@*@6mwww66>1>$14664776k;;;;;*;-33X@699w06=<:;>1,1>*=468862,55654",
"@Ozm676666441*1661167zr;;;q3;;6; X&7s9w96431@*-:>=11145f64586124",
"kMj976578>151@#*77162V3->>11136XOX-63shh6477XO&=;;6;6>71227612,>",
"z578669fw2564=+XO7w7CC,*:;<<,13XX;7s777654ww#O**=261666125611>1,",
"917757saawf64;#o,&1wxx1*-<,<,3@O@10w755611s7@O&*1:1611134462,13>",
"95w7549ffj8111=+&<hVh:131,,11@27@17w656527w7@:7776<:=63066621776",
"979w444598e4;1=#*6mhh7163;1&O131:4444444177&:0w77607377600773377",
"4599;;444414>>>@:Cw4hx706&O@>636OX166544112O&ww77ww7777666622377",
"14664445774>111*-w161ww1O&-336=&XX8qq;,4<31:<ws70w77777377737772",
"2=21>;,588441;=#62726ww-&&1661@=@X4>4;44122:,7sw7676311773300ss7"
};
