/* XPM */
static char *result[] = {
/* columns rows colors chars-per-pixel */
"64 64 148 2 ",
"   c #040404",
".  c #0C0C0C",
"X  c #141414",
"o  c #1C1C1C",
"O  c #352B15",
"+  c #242424",
"@  c #2B2B2B",
"#  c #343433",
"$  c #3C3C3C",
"%  c #40300E",
"&  c #775A1C",
"*  c #4F4227",
"=  c #4D483E",
"-  c #66542D",
";  c #6F592B",
":  c #685A3C",
">  c #444444",
",  c #4B4B4B",
"<  c #5A554A",
"1  c #545454",
"2  c #5C5C5C",
"3  c #605F5D",
"4  c #6F6A5F",
"5  c gray39",
"6  c #6C6C6C",
"7  c #747474",
"8  c #7B7B7B",
"9  c #CD9215",
"0  c #FFAF04",
"q  c #FFB007",
"w  c #FFB10A",
"e  c #EDA816",
"r  c #F4AD15",
"t  c #FEB413",
"y  c #FEB51A",
"u  c #C29128",
"i  c #D59C21",
"p  c #DDA836",
"a  c #EEAC20",
"s  c #FDB721",
"d  c #FEB823",
"f  c #F5B52C",
"g  c #FCBA2B",
"h  c #EAB43F",
"j  c #F6B832",
"k  c #FBBC34",
"l  c #F7BD3F",
"z  c #F9BC3B",
"x  c #FFC13C",
"c  c #B8954B",
"v  c #E6B345",
"b  c #EAB543",
"n  c #EDB94A",
"m  c #F6BD44",
"M  c #F4BE4B",
"N  c #EFBF56",
"B  c #EDBE5B",
"V  c #F2BE51",
"C  c #F0BF58",
"Z  c #DEB662",
"A  c #DCBB74",
"S  c #D1B77F",
"D  c #D6B97C",
"F  c #DABB79",
"G  c #E9BE63",
"H  c #E4BD6B",
"J  c #E1BD70",
"K  c #FFC343",
"L  c #FCC34A",
"P  c #FDC752",
"I  c #FFC956",
"U  c #FFCC5F",
"Y  c #EDC164",
"T  c #E6C06E",
"R  c #FFCE65",
"E  c #E6C274",
"W  c #E5C37B",
"Q  c #F2CB76",
"!  c #FED274",
"~  c #FFD57A",
"^  c #848484",
"/  c #8C8C8C",
"(  c #949494",
")  c #9F9D97",
"_  c #9C9B9B",
"`  c #A19F9A",
"'  c #BDAE8D",
"]  c #ACA495",
"[  c #A3A19E",
"{  c #ACA699",
"}  c #AFA99D",
"|  c #B4A991",
" . c #BBAE93",
".. c #B5AE9F",
"X. c #A4A4A4",
"o. c #ACA9A4",
"O. c #ABABAB",
"+. c #B6AFA0",
"@. c #B7B1A3",
"#. c #BCB5A4",
"$. c #B5B2AA",
"%. c #B3B3B3",
"&. c #B8B7B2",
"*. c #BDBDBD",
"=. c #C0AF8B",
"-. c #CCB584",
";. c #C5B289",
":. c #D1B780",
">. c #D6BB81",
",. c #D8BE85",
"<. c #C4B492",
"1. c #C3B69A",
"2. c #DDC083",
"3. c #FFD783",
"4. c #FFD884",
"5. c #F2D28E",
"6. c #F8D68F",
"7. c #FFDB8E",
"8. c #FFDD93",
"9. c #FFDE9A",
"0. c #FFE09E",
"q. c #EFD7A4",
"w. c #FFE3A5",
"e. c #FFE5AD",
"r. c #FFE6B2",
"t. c #FFE8B7",
"y. c #FFEABC",
"u. c #C2C2C2",
"i. c #CCCCCC",
"p. c gray83",
"a. c #DBD9D4",
"s. c #D8D8D8",
"d. c #F2E2C1",
"f. c #FFECC3",
"g. c #FFEECA",
"h. c #FFF0CF",
"j. c #EAE6DD",
"k. c #F5ECDB",
"l. c #FFF1D3",
"z. c #FFF3DB",
"x. c #E3E3E3",
"c. c #ECECEC",
"v. c #FFF7E4",
"b. c #F2F0EC",
"n. c #FFF9EB",
"m. c #FFFBF4",
"M. c #FFFEFB",
"N. c #000000",
/* pixels */
"N.N.N.N.N.N.N.N.N.N.N.N.N.N.N.N.N.N.N.N.N.N.N.N.N.N.N.N.N.N.N.N.N.N.N.N.N.N.N.N.N.N.N.N.N.N.N.N.N.N.N.N.N.N.N.N.N.N.N.N.N.N.N.N.",
"N.N.N.N.N.N.N.N.N.N.N.N.N.N.N.N.N.N.N.N.N.N.N.N.N.N.N.N.N.N.N.N.N.N.N.N.N.N.N.N.N.N.N.N.N.N.N.N.N.N.N.N.N.N.N.N.N.N.N.N.N.N.N.N.",
"N.N.N.N.N.N.N.N.N.N.N.N.N.N.N.N.N.N.N.N.N.N.N.N.N.N.N.N.N.N.N.N.N.N.N.N.N.N.N.N.N.N.N.N.N.N.N.N.N.N.N.N.N.N.N.N.N.N.N.N.N.N.N.N.",
"N.N.N.N.N.N.N.N.N.N.N.N.N.N.N.N.N.N.N.N.N.N.N.N.N.N.N.N.N.N.N.N.N.N.N.N.N.N.N.N.N.N.N.N.N.N.N.N.N.N.N.N.N.N.N.N.N.N.N.N.N.N.N.N.",
"N.N.N.N.N.N.N.N.N.N.N.N.N.N.N.N.N.N.N.N.N.N.N.N.N.N.N.N.N.N.N.N.N.N.N.N.N.N.N.N.N.N.N.N.N.N.N.N.N.N.N.N.N.N.N.N.N.N.N.N.N.N.N.N.",
"N.N.N.N.N.N.N.N.N.N.N.N.N.N.N.N.N.N.N.N.N.N.N.N.N.N.N.N.N.N.N.N.N.N.N.N.N.N.N.N.N.N.N.N.N.N.N.N.N.N.N.N.N.N.N.N.N.N.N.N.N.N.N.N.",
"N.N.N.N.N.N.N.N.N.N.N.N.N.N.N.N.N.N.N.N.N.N.N.N.N.N.N.N.N.N.N.N.N.N.N.N.N.N.N.N.N.N.N.N.N.N.N.N.N.N.N.N.N.N.N.N.N.N.N.N.N.N.N.N.",
"N.N.N.N.N.N.N.N.N.N.N.N.N.N.N.N.N.N.N.N.N.N.N.N.N.N.N.N.N.N.N.N.N.N.N.N.N.N.N.N.N.N.N.N.N.N.N.N.N.N.N.N.N.N.N.N.N.N.N.N.N.N.N.N.",
"N.N.N.N.N.N.N.N.N.N.N.N.N.N.N.N.N.N.N.N.N.N.N.N.N.N.N.N.N.N.N.N.N.N.N.N.N.N.N.N.N.N.N.N.N.N.N.N.N.N.N.N.N.N.N.N.N.N.N.N.N.N.N.N.",
"N.N.N.N.N.N.N.N.N.N.N.N.N.N.N.N.N.N.N.N.N.N.N.N.N.N.N.N.N.N.N.N.N.N.N.N.N.N.N.N.N.N.N.N.N.N.N.N.N.N.N.N.N.N.N.N.N.N.N.N.N.N.N.N.",
"N.N.N.N.N.N.N.N.N.N.N.N.N.N.N.N.N.N.N.N.N.N.N.N.N.N.N.N.N.N.N.N.N.N.N.N.N.N.N.N.N.N.N.N.N.N.N.N.N.N.N.N.N.N.N.N.N.N.N.N.N.N.N.N.",
"N.N.N.N.N.N.N.N.N.N.N.N.N.N.N.N.N.N.N.N.N.N.N.N.N.N.N.N.N.N.N.N.N.N.N.N.N.N.N.N.N.N.N.N.N.N.N.N.N.N.N.N.N.N.N.N.N.N.N.N.N.N.N.N.",
"N.N.N.N.N.N.N.N.N.N.N.N.N.N.N.N.N.N.N.N.N.N.N.N.N.N.N.N.N.N.N.N.N.N.N.N.N.N.N.N.N.N.N.N.N.N.N.N.N.N.N.N.N.N.N.N.N.N.N.N.N.N.N.N.",
"N.N.N.N.N.N.N.N.N.N.N.N.N.N.N.N.N.N.N.N.N.N.N.N.N.N.N.N.N.N.N.N.N.N.N.N.N.N.N.N.N.N.N.N.N.N.N.N.N.N.N.N.N.N.N.N.N.N.N.N.N.N.N.N.",
"N.N.N.N.N.N.N.N.N.N.N.N.N.N.N.N.N.N.N.N.N.N.N.N.N.N.N.N.N.N.N.N.N.N.N.N.N.N.N.N.N.N.N.N.N.N.N.N.N.N.N.N.N.N.N.N.N.N.N.N.N.N.N.N.",
"N.N.N.N.N.N.N.N.N.N.N.N.N.N.N.N.N.N.N.N.N.N.N.N.N.N.N.N.N.N.N.N.N.N.N.N.N.N.N.N.N.N.N.N.N.N.N.N.N.N.N.N.N.N.N.N.N.N.N.N.N.N.N.N.",
"N.N.N.N.N.N.N.N.N.N.N.N.N.N.N.N.N.N.N.N.N.N.N.N.N.N.N.N.N.N.N.N.N.N.N.N.N.N.N.N.N.N.N.N.N.N.N.N.N.N.N.N.N.N.N.N.N.N.N.N.N.N.N.N.",
"N.N.N.N.N.N.N.N.N.N.N.N.N.N.N.N.N.N.N.N.N.N.N.N.N.N.N.N.N.N.N.N.N.N.N.N.N.N.N.N.N.N.N.N.N.N.N.N.N.N.N.N.N.N.N.N.N.N.N.N.N.N.N.N.",
"N.N.N.N.N.N.N.N.N.N.N.N.N.N.N.N.N.N.N.N.N.N.N.N.N.N.N.N.N.N.N.N.N.N.N.N.N.N.N.N.N.N.N.N.N.N.N.N.N.N.N.N.N.N.N.N.N.N.N.N.N.N.N.N.",
"N.N.N.N.N.N.N.N.N.N.N.N.N.N.N.N.N.N.N.N.N.N.N.N.N.N.N.N.N.N.N.N.N.N.N.N.N.N.N.N.N.N.N.N.N.N.N.N.N.N.N.N.N.N.N.N.N.N.N.N.N.N.N.N.",
"N.N.N.N.N.N.N.N.N.N.N.N.N.N.N.N.N.N.N.N.N.N.N.N.N.N.N.N.N.N.N.N.N.N.N.N.N.N.N.N.N.N.N.N.N.N.N.N.N.N.N.N.N.N.N.N.N.N.N.N.N.N.N.N.",
"N.N.N.N.N.N.N.N.N.N.N.N.N.N.N.N.N.N.N.N.N.N.N.N.N.N.N.N.N.N.N.N.N.N.N.N.N.N.N.N.N.N.N.N.N.N.N.N.N.N.N.N.N.N.N.N.N.N.N.N.N.N.N.N.",
"N.N.N.N.N.N.N.N.N.N.N.N.N.N.N.N.N.N.N.N.N.N.N.N.N.N.N.N.N.N.N.N.N.N.N.N.N.N.N.N.N.N.N.N.N.N.N.N.N.N.N.N.N.N.N.N.N.N.N.N.N.N.N.N.",
"N.N.N.N.N.N.N.N.N.N.N.N.N.N.N.N.N.N.N.N.N.N.N.N.N.N.N.N.N.N.N.N.N.N.N.N.N.N.N.N.N.N.N.N.N.N.N.N.N.N.N.N.N.N.N.N.N.N.N.N.N.N.N.N.",
"N.N.N.N.N.N.N.N.N.N.N.N.N.N.N.N.N.N.N.N.N.N.N.N.N.N.N.N.N.N.N.N.N.N.N.N.N.N.N.N.N.N.N.N.N.N.N.N.N.N.N.N.N.N.N.N.N.N.N.N.N.N.N.N.",
"N.N.N.N.N.N.N.N.N.N.N.N.N.N.N.N.N.N.N.N.N.N.N.N.N.N.N.N.N.N.N.N.N.N.N.N.N.N.N.N.N.N.N.N.N.N.N.N.N.N.N.N.N.N.N.N.N.N.N.N.N.N.N.N.",
"N.N.N.N.N.N.N.N.N.N.N.N.N.N.N.N.N.N.N.N.N.N.N.N.N.N.N.N.N.N.N.N.N.N.N.N.N.N.N.N.N.N.N.N.N.N.N.N.N.N.N.N.N.N.N.N.N.N.N.N.N.N.N.N.",
"N.N.N.N.N.N.N.N.N.N.N.N.N.N.N.N.N.N.N.N.N.N.N.N.N.N.N.N.N.N.N.N.N.N.N.N.N.N.N.N.N.N.N.N.N.N.N.N.N.N.N.N.N.N.N.N.N.N.N.N.N.N.N.N.",
"N.N.N.N.N.N.N.N.N.N.N.N.N.N.N.N.N.N.N.N.N.N.N.N.N.N.N.N.N.N.N.N.N.N.N.N.N.N.N.N.N.N.N.N.N.N.N.N.N.N.N.N.N.N.N.N.N.N.N.N.N.N.N.N.",
"N.N.N.N.N.N.N.N.N.N.N.N.N.N.N.N.N.N.N.N.N.N.N.N.N.N.N.N.N.N.N.N.N.N.N.N.N.N.N.N.N.N.N.N.N.N.N.N.N.N.N.N.N.N.N.N.N.N.N.N.N.N.N.N.",
"N.N.N.N.N.N.N.N.N.N.N.N.N.N.N.N.N.N.N.N.N.N.N.N.N.N.N.N.N.N.N.N.N.N.N.N.N.N.N.N.N.7 X %.N.N.N.N.N.N.N.N.N.N.N.[ N.N.N.N.N.N.N.N.",
"N.N.N.N.N.N.N.N.N.N.N.N.N.N.N.N.N.N.N.N.N.N.N.N.N.N.N.N.N.N.N.N.N.N.N.N.N.N.N.%.> X X / N.N.N.N.N.N.N.N.N.N.7 X , N.N.N.N.N.N.N.",
"N.N.N.N.N.N.N.N.N.N.N.N.N.N.N.N.N.N.N.N.N.N.N.N.N.N.N.N.N.N.N.N.N.N.N.N.N.%.6 @ $ / @ ^ N.N.N.N.N.N.N.N.N.> + # $ N.N.N.N.N.N.N.",
"N.N.N.N.N.N.N.N.N.N.N.N.N.N.N.N.N.N.N.N.N.N.N.N.N.N.N.N.N.N.^ 2 _ N.N.N.6 @ $ 7 v f $ 7 N.N.N.N.N.N.N.N.6 @ ( / + N.N.N.N.N.N.N.",
"N.N.N.N.N.N.N.N.N.N.N.N.N.N.N.N.N.N.N.N.N.N.N.N.N.N.N.N.$.: * - O %.&., o c w q 0 y $ 2 O./ ^ ( N.N.N.=.# 8 k D @ / N.N.N.N.N.N.",
"N.N.N.N.N.N.N.N.N.N.N.N.N.N.N.N.N.N.N.N.N.N.N.N.N.N.&.6 $ ; 0 0 % > @ @ [ 0 0 0 0 f @ $ @ # # X ^ N.] $ $ A 0 T $ 8 N.N.N.N.N.N.",
"N.N.N.N.N.N.N.N.N.N.N.N.N.N.N.N.N.N.N.$.X._ / ^ 6 $ X . X u r i & X @ 5 ( p a r v v 5 # 8 *.O.# 7 *.> , =.t 0 B > 6 N.N.N.N.N.N.",
"N.N.N.N.N.N.N.N.N.N.N.N.N.N.N.O.6 > # . . . X .     .                   . . X X o @ > 2 8 _ / > , 8 # ) y 0 0 M 2 , N.N.N.N.N.N.",
"N.N.N.N.N.N.N.N.N.N.N.N.N. .1 o = 5 1 X $ > > + X > / , # 1 O./ / ( ( 6 , $ # $ 8 . .         X o $ 1 B q 0 0 d ^ @ N.N.N.N.N.N.",
"N.N.N.N.N.N.N.N.N.N.N.:., . $ / i.s.X.8 *.M L H S m t j M z v.8.m.e.0.y m V B W m.b._ *.7 $ @ . o . 8 s 0 0 0 w o.X $.N.N.N.N.N.",
"N.N.N.N.N.N.N.N.N.N./ # $ _ G g x.X.> X 6 j 0 0 0 0 0 0 0 t n.v.n.z.! q 0 0 0 0 I m.m.h.z.L B %.i.# F 0 0 0 0 0 2.# 5 N.N.N.N.N.",
"N.N.N.N.N.N.N.N.N.8 + 3 -.y 0 g 7 @ @ X o D 0 0 0 0 0 0 q w n.v.n.z.d 0 0 0 0 0 f.l.m.n.v.s 0 4.M.5.t 0 0 0 0 0 z 6 + ( N.N.N.N.",
"N.N.N.N.N.N.N.[ , + 7 B q 0 0 A o 7 %.1 X <.0 0 0 0 0 0 0 q v.n.n.t.q q q 0 0 0 L h.r.m.n.q q 8.v.e.0 0 0 0 0 0 0 E 1 1 N.N.N.N.",
"N.N.N.N.N.N.( # , ) z 0 q 0 0 ;.o < # s.o [ t 0 0 0 0 0 0 t l.m.n.! D G t 0 0 0 q w.g.m.m.x 0 0.8.m.q 0 0 0 0 0 0 g / # N.N.N.N.",
"N.N.N.N.N.N.> 2 A t q 0 0 0 0 ;.o ,   p.+ 6 L 0 0 0 0 0 q s v.l.n.Q @ # ) k 0 0 q R z.n.M.e.q 8.t.n.R 0 0 0 0 0 0 w ..@ &.N.N.N.",
"N.N.N.N.N.> $ ;.t 0 q 0 0 0 0 G $ # 1 1 X #.w 0 0 0 0 0 0 0 g.l.l.L :.> + / d 0 q t n.t.m.t.q K n.l.z.0 0 0 0 0 0 q ,.@ / N.N.N.",
"N.N.N.N.7 X [ s 0 0 0 0 0 0 0 t D 1 @ , { g 0 0 0 0 0 0 0 0 ~ n.y q w H 3 @ -.q q 0 w.v.R m.w.s r.n.l.k 0 0 0 0 0 0 V 1 1 N.N.N.",
"N.N.N.N.o @ _ m w 0 0 0 0 0 0 0 0 L H Y y 0 0 0 0 0 0 0 0 0 ! g.~ q q q D $ 1 Y 0 0 0 q w ~ l.f.d m.v.y.0 0 0 0 0 0 d / @ N.N.N.",
"N.N.N.N.7 # . 3 ;.z w 0 0 0 0 0 0 0 0 0 0 0 0 0 0 0 0 0 0 0 I f.t.t 0 0 y _ X ^ y 0 0 0 0 w t w q R h.f.0 0 0 0 0 0 0 <.@ X.N.N.",
"N.N.N.N.N.n / $ # 6 | F t 0 0 0 0 0 0 0 0 0 0 0 0 0 0 w V j 0 9.v.3.0 0 0 m 2 $ H 0 0 0 t H F t q q q q 0 0 0 0 0 0 0 J $ 8 N.N.",
"N.N.N.N.N.N.N.*.5 + X o -.0 0 0 0 0 0 0 0 0 0 0 0 0 0 V $ 7 z y 7.3.0 0 0 w ] o 7 m 0 0 B 1 2 m 0 0 q q 0 0 0 0 0 0 0 n 2 , N.N.",
"N.N.N.N.N.N.N.s.6 o X + ' w 0 0 0 0 0 0 0 0 0 0 0 0 f.9.6 + ^ g 0 0 0 0 0 0 z 8 @ 3 ` S ^ @ / s 0 0 0 0 0 0 0 0 0 0 0 y ` o _ N.",
"N.N.N.N.N.N.-.5 # 7 ' F s 0 0 0 0 0 0 0 0 0 0 0 0 0 7.v.' X X ^ B f 0 0 0 0 d O.$     X X + ^ >.A T G m y 0 q 0 0 0 0 0 C , # p.",
"N.N.N.N.N.6 @ o / m 0 0 0 0 0 0 0 0 0 0 0 0 0 0 0 0 x M.6.1 + @ > ^ S N g z _ X X .   X X + X + + # = 2 ( S P z g d t 0 w O.X X.",
"N.N.N.N.^ # 5 -.g 0 0 0 0 0 0 0 0 0 0 0 0 0 0 0 0 0 w M.M.! A ] 5 @ @ , / 5 @ # 6 # X 7 @.N.#._ ( 8 6 , @ @ , 6 7 / ] ;.-._ + 7 ",
"N.N.N.^ . 5 p.w 0 0 0 0 0 0 0 0 0 0 0 0 0 0 0 0 0 0 0 z.M.t.U t x.i._ 1 + + , 1 + @ _ N.N.N.N.N.N.N.N.N.N./ 5 , > # @ + o o X $ ",
"N.N.N.+ . 1 [ A N n Y A A J J J Y M z y w q 0 0 0 0 w 8.m.v.y.9.P y s.@.7 1 @ # 8 N.N.N.N.N.N.N.N.N.N.N.N.N.N.N.N.N.N.D Z ) $ @ ",
"N.N.N.#.5 o o @ $ , # X X X + + $ , 6 /  .F H H H H H q.k.m.k.j.d.e 4 9 @ # 7 >.N.N.N.N.N.N.N.N.N.N.N.N.N.N.N.N.N.N.N.N.N.q j N.",
"N.N.N.N.N.N.;.7 2 1 5 _ X._ ( / 6 1 > + o + @ @ @ @ @ 7 6 %.c.*.2 # , 5 [ N.N.N.N.N.N.N.N.N.N.N.N.N.N.N.N.N.N.N.N.N.N.N.N.N.N.N.",
"N.N.N.N.N.N.N.N.N.N.N.N.N.N.N.N.N.N.N.N.1._ / / / / / / _ X.+.N.N.N.N.N.N.N.N.N.N.N.N.N.N.N.N.N.N.N.N.N.N.N.N.N.N.N.N.N.N.N.N.N.",
"N.N.N.N.N.N.N.N.N.N.N.N.N.N.N.N.N.N.N.N.N.N.N.N.N.N.N.N.N.N.N.N.N.N.N.N.N.N.N.N.N.N.N.N.N.N.N.N.N.N.N.N.N.N.N.N.N.N.N.N.N.N.N.N.",
"N.N.N.N.N.N.N.N.N.N.N.N.N.N.N.N.N.N.N.N.N.N.N.N.N.N.N.N.N.N.N.N.N.N.N.N.N.N.N.N.N.N.N.N.N.N.N.N.N.N.N.N.N.N.N.N.N.N.N.N.N.N.N.N.",
"N.N.N.N.N.N.N.N.N.N.N.N.N.N.N.N.N.N.N.N.N.N.N.N.N.N.N.N.N.N.N.N.N.N.N.N.N.N.N.N.N.N.N.N.N.N.N.N.N.N.N.N.N.N.N.N.N.N.N.N.N.N.N.N.",
"N.N.N.N.N.N.N.N.N.N.N.N.N.N.N.N.N.N.N.N.N.N.N.N.N.N.N.N.N.N.N.N.N.N.N.N.N.N.N.N.N.N.N.N.N.N.N.N.N.N.N.N.N.N.N.N.N.N.N.N.N.N.N.N."
};
