/* XPM */
static char *result[] = {
/* columns rows colors chars-per-pixel */
"64 64 49 1 ",
"  c #A7C3D5",
". c #ADC6DB",
"X c #AFC9DD",
"o c #B0C5D7",
"O c #B1C5DC",
"+ c #B3CADD",
"@ c #BACDDD",
"# c #BDD0DE",
"$ c #ADCCE4",
"% c #ADCDE8",
"& c #B5C6E0",
"* c #B4CDE2",
"= c #BACEE1",
"- c #AED1E9",
"; c #B4D1E6",
": c #BCD2E4",
"> c #B5D3E9",
", c #BBD5E9",
"< c #BDD9EB",
"1 c #C0D0DC",
"2 c #C0CFE1",
"3 c #C3D5E4",
"4 c #C8D7E5",
"5 c #C5D8E6",
"6 c #CADAE6",
"7 c #C2D7E9",
"8 c #C4DBEB",
"9 c #CBDDEC",
"0 c #D5DEE6",
"q c #D1DEEA",
"w c #C6DDF0",
"e c #CADFF1",
"r c #CDE1EE",
"t c #D7E0E7",
"y c #D8E1E7",
"u c #D4E2ED",
"i c #DAE5ED",
"p c #DEE8EE",
"a c #CDE2F1",
"s c #D4E5F1",
"d c #DAE6F1",
"f c #D7E8F2",
"g c #DCE9F2",
"h c #E1E8EE",
"j c #E2ECF3",
"k c #E8EFF6",
"l c #E3EFF8",
"z c #E7F1F6",
"x c None",
/* pixels */
"xxxxxxxxxxxxxxxxxxxxxxxxxxxxxxxxxxxxxxxxxxxxxxxxxxxxxxxxxxxxxxxx",
"xxxxxxxxxxxxxxxxxxxxxxxxxxxxxxxxxxxxxxxxxxxxxxxxxxxxxxxxxxxxxxxx",
"xxxxxxxxxxxxxxxxxxxxxxxxxxxxxxxxxxxxxxxxxxxxxxxxxxxxxxxxxxxxxxxx",
"xxxxxxxxxxxxxxxxxxxxxxxxxxxxxxxxxxxxxxxxxxxxxxxxxxxxxxxxxxxxxxxx",
"xxxxxxxxxxxxxxxxxxxxxxxxxxxxxxxxxxxxxxxxxxxxxxxxxxxxxxxxxxxxxxxx",
"xxxxxxxxxxxxxxxxxxxxxxxxxxxxxxxxxxxxxxxxxxxxxxxxxxxxxxxxxxxxxxxx",
"xxxxxxxxxxxxxxxxxxxxxxxxxxxxxxxxxxxxxxxxxxxxxxxxxxxxxxxxxxxxxxxx",
"xxxxxxxxxxxxxxxxxxxxxxxxxxxxxxxxxxxxxxxxxxxxxxxxxxxxxxxxxxxxxxxx",
"xxxxxxxxxxxxxxxxxxxxxxxxxxxxjhjgjhhjhhxxxxxxxxxxxxxxxxxxxxxxxxxx",
"xxxxxxxxxxxxxxxxxxxxxxxxzjjjkjjzhjpjgiiuyxxxxxxxxxxxxxxxxxxxxxxx",
"xxxxxxxxxxxxxxxxxxxxxxjjjjjzkjjgjgjjdisstuutxxxxxxxxxxxxxxxxxxxx",
"xxxxxxxxxxxxxxxxxxxxggpppjgzjzlfjljgfuffuuut0xxxxxxxxxxxxxxxxxxx",
"xxxxxxxxxxxxxxxxxxgppppphghgllglgzllffgfuyii0q0xxxxxxxxxxxxxxxxx",
"xxxxxxxxxxxxxxxxxjjjphpppigjgllllglfllggiiyiq443xxxxxxxxxxxxxxxx",
"xxxxxxxxxxxxxxxxjjhjihipifigggglllfllggggp0q60133xxxxxxxxxxxxxxx",
"xxxxxxxxxxxxxxxjjhjpppgpiiiggllgffffffggfuu6664413xxxxxxxxxxxxxx",
"xxxxxxxxxxxxxxkhhhppgfiiiiijggfgggjddgdhiuqutq13431xxxxxxxxxxxxx",
"xxxxxxxxxxxxxjhhjhiiyiiiiifggffgsdddfdddiuq646641111xxxxxxxxxxxx",
"xxxxxxxxxxxxkhhkhiyfuuuiifdggfffffjagdqsru9564431@=@1xxxxxxxxxxx",
"xxxxxxxxxxxxhkjhipyyuuiuufifgfgfsfdssusquur9653#@+==#xxxxxxxxxxx",
"xxxxxxxxxxxhhpiiityuiiiufddfggjggfjsdjquusr98:7*+@+@::xxxxxxxxxx",
"xxxxxxxxxxxjipyitiuiutriggfgjdjgdjdjiddiuf9r987*==:@:#xxxxxxxxxx",
"xxxxxxxxxxhhhiiqutuiuusdgfjgdjfjddhddssuuss99w8,****+::xxxxxxxxx",
"xxxxxxxxxxhhyqiiuuiuusffggdpgdjpjdjdissssese8887,>;::::xxxxxxxxx",
"xxxxxxxxxhiyhyiquyiusfdggdgfgjjjjdddddssaar99w8<,;$::::3xxxxxxxx",
"xxxxxxxxxihiyh0iyuiaddgfjgdggzjjdjghdssaasuwaw88>>*>>:::xxxxxxxx",
"xxxxxxxxxyyyq0qudurfdggdjdjjjgjjgddhdduasaraaw88>;;>,>:>xxxxxxxx",
"xxxxxxxx0hyyiqiddfrsdjjjjfgjjggjdshdissaaasa98ww<>>>;,><xxxxxxxx",
"xxxxxxxx0y0iq0qhfusddgdjgggggpgfghhsissssaaaaw<a<,>>>;>><xxxxxxx",
"xxxxxxxx0hi0iddjssddgjjjgpggggggddddsdssaas8ww<<,,>%-;>:8xxxxxxx",
"xxxxxxxx0yiyqdhdidjjjljpgpggpzgigsuddssaara88wa<<,-;-$>><xxxxxxx",
"xxxxxxxxyyiidqddddjjljddgggzgggfdsdhad9aaa8aw8a<,>%--->>:xxxxxxx",
"xxxxxxxxqqhqhjdddjzjjjgpgjgjfsifsusdfsrr98e8ee8<,---$-%;>xxxxxxx",
"xxxxxxxxhhqjidpdjjjgjgpfggfggifudqusura8e88ww9<<<>%-$$-$>xxxxxxx",
"xxxxxxxxiiqhdidiljjjffggggfffffuurdruaawweeee8,8>>>-$$$-<xxxxxxx",
"xxxxxxxxihdiijjdjjjgidgfffisfiurs99sr98999ue9997,>%$*>;*:xxxxxxx",
"xxxxxxxxidqhhjjljjgsffdsggfsaurrurrsa8aaa9a4r999<>:**>*,7xxxxxxx",
"xxxxxxxxxqhhgjhjjjhffffdffa8r99ras9urafueuq9q499:7:=***9xxxxxxxx",
"xxxxxxxxxidjhhhjkjgsffgfsaa98999frarrar99quu4d64:5<=:787xxxxxxxx",
"xxxxxxxxxdijdlhjjlffsgffrrr89a99uusa9sr9ua9rq36353=77289xxxxxxxx",
"xxxxxxxxxfhdhjjlggdgffsa9a89ar9srrsr99q99rsq46473:#76898xxxxxxxx",
"xxxxxxxxxxdggjlklggfffsea89u99ufssurq9s99q93644734:7785xxxxxxxxx",
"xxxxxxxxxxgjhlhljgdfssew899frrissfse9e9se47q537133353=5xxxxxxxxx",
"xxxxxxxxxxxgjljgdffsaase8899rffussuusq99e774533::37363xxxxxxxxxx",
"xxxxxxxxxxxlhlglfffaaaew9e8usssqusu9r987=33+@@:73333:8xxxxxxxxxx",
"xxxxxxxxxxxxlgggfafaeawe999sqssds99977:==:==+=+@@@:#5xxxxxxxxxxx",
"xxxxxxxxxxxxldfgfsaawaawaususqiuu9972&=>&OO:@+73#@#::xxxxxxxxxxx",
"xxxxxxxxxxxxxjfsaaaaaasuqu9qsdqqs7::=:&&.$*+&=@*#@+:xxxxxxxxxxxx",
"xxxxxxxxxxxxxxffawaaaur99tr6uu997:==+&XXXo++++++++Xxxxxxxxxxxxxx",
"xxxxxxxxxxxxxxxeawauaa9ur9ru99973++O+XO.++++XX+++;xxxxxxxxxxxxxx",
"xxxxxxxxxxxxxxxxawa9889r68599637=:==*.OO*O+ .X*$+xxxxxxxxxxxxxxx",
"xxxxxxxxxxxxxxxxx8r999868tr6695333:@+OO.O++..;*&xxxxxxxxxxxxxxxx",
"xxxxxxxxxxxxxxxxxx<78<69r6566657@OO=+*O. O$+;::xxxxxxxxxxxxxxxxx",
"xxxxxxxxxxxxxxxxxxxx8879685669#33@@@O.XX+=***xxxxxxxxxxxxxxxxxxx",
"xxxxxxxxxxxxxxxxxxxxxx8855;564632@=O==:+*=:xxxxxxxxxxxxxxxxxxxxx",
"xxxxxxxxxxxxxxxxxxxxxxxx:::555532@=2@=:@:xxxxxxxxxxxxxxxxxxxxxxx",
"xxxxxxxxxxxxxxxxxxxxxxxxxxxx77q133=@=xxxxxxxxxxxxxxxxxxxxxxxxxxx",
"xxxxxxxxxxxxxxxxxxxxxxxxxxxxxxxxxxxxxxxxxxxxxxxxxxxxxxxxxxxxxxxx",
"xxxxxxxxxxxxxxxxxxxxxxxxxxxxxxxxxxxxxxxxxxxxxxxxxxxxxxxxxxxxxxxx",
"xxxxxxxxxxxxxxxxxxxxxxxxxxxxxxxxxxxxxxxxxxxxxxxxxxxxxxxxxxxxxxxx",
"xxxxxxxxxxxxxxxxxxxxxxxxxxxxxxxxxxxxxxxxxxxxxxxxxxxxxxxxxxxxxxxx",
"xxxxxxxxxxxxxxxxxxxxxxxxxxxxxxxxxxxxxxxxxxxxxxxxxxxxxxxxxxxxxxxx",
"xxxxxxxxxxxxxxxxxxxxxxxxxxxxxxxxxxxxxxxxxxxxxxxxxxxxxxxxxxxxxxxx",
"xxxxxxxxxxxxxxxxxxxxxxxxxxxxxxxxxxxxxxxxxxxxxxxxxxxxxxxxxxxxxxxx"
};
