/* XPM */
static char *result[] = {
/* columns rows colors chars-per-pixel */
"64 64 67 1 ",
"  c #5F7C90",
". c #627F91",
"X c #638396",
"o c #698797",
"O c #658699",
"+ c #688799",
"@ c #66899C",
"# c #6A8C9D",
"$ c #708F9F",
"% c #6E909F",
"& c #70919F",
"* c #6B8EA0",
"= c #6D94A3",
"- c #6E98A7",
"; c #6E97A8",
": c #6E9AAA",
"> c #7195A4",
", c #7399A6",
"< c #789CA7",
"1 c #7197A8",
"2 c #749CAB",
"3 c #799EAB",
"4 c #749FB0",
"5 c #76A0AE",
"6 c #7AA1AE",
"7 c #76A3B2",
"8 c #7AA5B3",
"9 c #77A8B6",
"0 c #7CA9B6",
"q c #78A7B8",
"w c #75ABB9",
"e c #7DACBA",
"r c #7DB1BE",
"t c #7DB4C2",
"y c #7DB9C6",
"u c #7CBCCB",
"i c #7DC0CF",
"p c #7CC4D2",
"a c #80A7B4",
"s c #81AAB6",
"d c #81ADBA",
"f c #82B1BE",
"g c #88B3BF",
"h c #83B5C2",
"j c #88B6C4",
"k c #84B9C5",
"l c #89BAC5",
"z c #85BCC9",
"x c #8ABECB",
"c c #91BFCB",
"v c #85C2CE",
"b c #8DC1CD",
"n c #94C3CF",
"m c #81C6D4",
"M c #8EC5D3",
"N c #81C8D6",
"B c #8EC8D5",
"V c #81CBD9",
"C c #93C5D2",
"Z c #91C9D6",
"A c #93CCDA",
"S c #9CCFDB",
"D c #8AD2DE",
"F c #96D1DE",
"G c #99D5E2",
"H c #9AD8E5",
"J c #A0D5E0",
/* pixels */
"633+Cd3a3a<<<a8<X>>>&,37<X=333<3<6<<,3668a8,aaaaaaa85<<,556Xxl80",
"783+cg33a3<<68a>o$>,>$,>2>+2336h66<<5536aa,>3ddaa88652-<662@da60",
"387OCg38aa3<287,oo2XX,>sx3**3<dd655533<63,$3dsa866669668986=6680",
"aa3OCjasa3<,,,3o>$#>#$2Gs77#28aad6666666<>,7a833,>,0kg0s0s68g666",
"3a3.njsh03,,2>2O,,3800GAe887#8hhs5,56686&><2<5<<,>2336asdg;j8668",
"838.nd3872,>,>,+,8a0eqG0edef8=ds65<,6666>><2222,,,<3,<690d*M6556",
"8a8.cs333<,,==>X38aaadHkhhzje>>8855,65686><,-2,==,,5,,3678#k66<5",
"3a8.ca3362,,&$.#0ddedhHxez8277O885,,<5668%=,=-,2,,&<<,<666@M6868",
"838.<=>&>,32=#o>aesffBB89w7w522O855-56<582#,22=2<,,,2<,2,3OM8833",
"38<.=5,,&>*+O$$>ddgehZr<7w755:7265,5787896<%=22256<,55=,>2*Cq778",
"aadje##=,$o$<,<$0e99BB8257:w7:4q@25998q7787>>>226766686,22#B8873",
"33Slaa08a>>31>3<e959yd5877577w77M@55857<2278>=2738600ff87,*C8373",
"*8jddjbgds$$*+,0<-,2hf0995954777r57222655258%#87778sehd08,*j087#",
"Cxsaddgjae$o+>11==:5rhf09909778895=57q095579>288eethdhzea42ede$8",
"lda8asdd08>$2212-2;2rddff0rrq8q359x#2q87557@+988qqr787eze31jh$08",
"aaa88s8808><72212:-2ef9ferf000qq789f#57722:X#2222222224eq2*,e888",
"8aa33308062875552522eeffdhedet0077qF7O722:OX@:::-,:2,55w9,#X6008",
"asa8087888>2222:2275izkrdeee000q9800NO*2:@XXX:2:2::55::-:@X80fd7",
"8dd8q88q72X<:222<775upzzhghd08a0qeeeMeXOO*#=#X:::::2-2-==XX88s88",
"3aa8e483#OX54<257898:utred9edtah8eeek2XXO:5:=@::4:42,,,O#o657777",
"3sse8773OO#>237776867ww57<58eeq88hh9%XX%:47:=#=OO:::=-O%>,&=2328",
"2ses88q*O=#+27877897uww:<227fq7qdC2#o%>,24792XXOO@#%%X%2<>%&==>,",
"4088437OO#1+2278879vu57222:277wq==2>X=974:227OX577tre5X%2,>>=>2<",
"287888OX=@**237we7up75552,:22ww:=272O:9752:75X@79riDBb0%&6<,2223",
"838a82O3h7=*288888qt:52<::522>;#247-#27:::57=X#<279hjxbds6&3665<",
"873e7*128jxM2738e8r972==::2#X .#4::#=:2:2285Xo=:2<2ljfsdda36685,",
"7433@;72683G255thahw7:::::=-==O*:=@X:2==-:2@##=-:5exhde8a66&5<&&",
"e737*ne8724z8:5557h72:-:=:72;==X=OX*::::::-%@X=--2eegdda066&,,<&",
"h73OCx787457=>:-22222=2290eeeq7>$>===#O--@@O@X@&-,kddaaa87<#%<oX",
"3;#lGkeqeq872*==-2-2>#<08679qr82->222-#XXX:Bi@%,=,lfs68636$>&f8=",
"O#xG0zhzeehh4X#===25&25808548V7:::25:72OOwZv5@,,&6lgaa3<22o,,FfZ",
"4CCkkzxw477kxO#=>,22><298758eN7=;2:2:27O=5h::@&&&8g68833,,#>Cb0d",
"5few9fe2>&=5B=X,,,,$23208788ee95:,22-:<OBqt:2*==,fk6<33,>>X6Gaa8",
"kht77832>%&>t2.&>,#$2s308qq88897,,2::-;@hM7::*25fkffa3<&&.#dAaaa",
"drte672<,&>==;..Xo##8e8ae8q78q872:<2::2@8x2::@=rbadg332>#X>ada0s",
"8wr77722,>>==:.o$$*27378q887q8872:,2>;@=272:-@>a0dgd<>#o$Oga0a08",
"t44:2:,,-====X##2>+2227888888qe72:,,>>@=3824:@==<5f06&>2XF80d858",
"7:2::=:-2,*==<Oo##=322237qq788e7:,-::-O2tk312#;2,,0f636@@b30e658",
"<22,<2252555<22#O:2232348q4q906,=<=--=#2hM823@h800aff,>XA,95<666",
"223,,577599567q*#7224378q88hr7,>2:=>=>=2jB873#bg66660&X28,,,<366",
"33<<<6a70e66608=O880027898sz72>>>,=>>117hM383#Cd83337#Ob322<<<80",
"63a<<a66d686<06#+:2qhe888qzN>,22>=,,,O<8hC338#Md83383X8e2225226d",
"66<3a66686e337:X#=-28q7q8qy7,,<2,<<,3+33jC8ad#Zg3338+387555556<9",
"36a6<3<60ff332:OO=:-78q88ef<,22265<<,*4eMh388OAk337q >752:22572u",
"f683a<aa0074::***::=77q80et222<25532#>3Gd33a3OFd388O#O2:<222565y",
"8633<6637752::*X*:::488q905222272872O34e343a4OAfa83O#O22<2767872",
"e63368<7w42:::*X47424qq878:::-275577O1z3,3ahaOAd87#*#X>277777887",
"js33<2277775;:@XM72247847e>=-:77572;*7A3833a3OCzs18,>X+27777887y",
"ls32:222555:,%O7M=;:2565et===:77844*1xx>68786OjhdOe2;qO2,8q878zp",
"hj,2:5725:55:@@Hh;::,588kM,%=:26743O0Z8,38802@ad1d>23k*473q07up7",
"0b,,:25:25:52#=G7<::<886B9===-:542$OZk77888d2O63O8ah7kO788q07qt2",
"#C5525557:222Ozh727<7e89M=;==,:232*qA08388482XOO343akhG3838e8tq4",
"@nd872-5752,=#A777339w7qv=:;==::22OMh9eee07eeX*@472683F*55tfeh97",
"@hxe8457we56%;z88833a7rqM=::-==::;XMxeeeeddeeX=#8e7727xO:5577h75",
"==Cqwe954287X=777758a2w7Z:4:=:::2@*Gd08eq8e8qO@778q745A3=::22226",
"=@Chee83:252@#2877278847Z24722222X4Mddq90eeq=##2889eq87d===:=27>",
";Ohl0ssa522%#@@%873832:4Z22327244O2e4ahh88eeXX=:wet8eeqx@=-==27=",
":*;C0sfl6<5O:-#X+8877833M:112237:X;e88a978de*X;;5e85777GX%=,<27*",
"12#jasjaad0@5:oo,*;2334ex11,2343X 7e96682edaOO225222222B==2225*q",
"21o0a6djfg:%22-@$,**$2,472313>=*XX7q558628e8XACz871>=>5::#=>,2OB",
":;O188ee99%9:5-#=**231>1222**3==XX565575378#=At0878722722XO##*2x",
"222*7242,==B,,,@*73<23O=*@*qBz44@O<756<5227o8F088877<252:X#*=+kq",
"342O4222<=0e:52%>422322*O*tqt8777Xww9225:43>1sa87872:=2-#@X3>@32",
"q44O=2775#B,5:-#72222::24GB878877X7:5:55133>exda77422====XOO*h84"
};
