/* XPM */
static char *result[] = {
/* columns rows colors chars-per-pixel */
"64 64 108 2 ",
"   c #010101",
".  c #080604",
"X  c #0D0A06",
"o  c #0B0B0B",
"O  c #100C07",
"+  c #120E08",
"@  c #161109",
"#  c #1B150C",
"$  c #1F180E",
"%  c #131313",
"&  c #171818",
"*  c #1B1B1B",
"=  c #21190F",
"-  c #251C10",
";  c #281E11",
":  c #2C2113",
">  c #312516",
",  c #352817",
"<  c #372918",
"1  c #3C2D1A",
"2  c #232423",
"3  c #272828",
"4  c #2C2C2C",
"5  c #333333",
"6  c #363837",
"7  c #373838",
"8  c #3B3C3C",
"9  c #42321D",
"0  c #49371F",
"q  c #493720",
"w  c #4D3A22",
"e  c #523D24",
"r  c #554125",
"t  c #594327",
"y  c #5E4629",
"u  c #5F482A",
"i  c #604729",
"p  c #634B2C",
"a  c #694F2E",
"s  c #6B512F",
"d  c #6E5230",
"f  c #715531",
"g  c #755834",
"h  c #7B5C36",
"j  c #3F4040",
"k  c #424443",
"l  c #474949",
"z  c #494B4A",
"x  c #4F5151",
"c  c #535454",
"v  c #565958",
"b  c #5A5D5C",
"n  c #5E6161",
"m  c #626464",
"M  c #656867",
"N  c #666969",
"B  c #6A6B6B",
"V  c #6F7272",
"C  c #717474",
"Z  c #747877",
"A  c #767A79",
"S  c #7A7D7C",
"D  c #836339",
"F  c #8C693D",
"G  c #906C3F",
"H  c #7E807F",
"J  c #7E8180",
"K  c #828585",
"L  c #868A89",
"P  c #8A8C8C",
"I  c #8E9292",
"U  c #949695",
"Y  c #969A99",
"T  c #9A9D9D",
"R  c #9EA2A2",
"E  c #A4A5A5",
"W  c #A4A8A7",
"Q  c #A6AAA9",
"!  c #ABADAC",
"~  c #ABB0AF",
"^  c #AEB2B2",
"/  c #B2B4B4",
"(  c #B2B8B7",
")  c #B5BAB9",
"_  c #B9BCBC",
"`  c #BAC0BF",
"'  c #BDC3C2",
"]  c #C2C4C4",
"[  c #C2C8C7",
"{  c #C5CBCA",
"}  c #CACECD",
"|  c #CAD0CF",
" . c #CCD2D1",
".. c #D2D4D4",
"X. c #D3D8D7",
"o. c #D6DAD9",
"O. c #DBDCDC",
"+. c #DDE0DF",
"@. c #DCE0E0",
"#. c #E3E4E4",
"$. c #E5E8E7",
"%. c #E7E9E9",
"&. c #ECECEC",
"*. c #EFF1F1",
"=. c #F4F4F4",
"-. c #F7F8F8",
";. c #FEFEFE",
":. c None",
/* pixels */
":.:.:.:.:.:.:.:.:.:.:.:.:.:.:.:.:.:.:.:.:.:.:.:.:.:.:.:.:.:.:.:.:.:.:.:.:.:.:.:.:.:.:.:.:.:.:.:.:.:.:.:.:.:.:.:.:.:.:.:.:.:.:.:.",
":.:.:.:.:.:.:.:.:.:.:.:.:.:.:.:.:.:.:.:.:.:.:.:.:.:.                  :.:.:.:.:.:.:.:.:.:.:.:.:.:.:.:.:.:.:.:.:.:.:.:.:.:.:.:.:.",
":.:.:.:.:.:.:.:.:.:.:.:.:.:.:.:.:.:.:.:.:.:.:.                          :.:.:.:.:.:.:.:.:.:.:.:.:.:.:.:.:.:.:.:.:.:.:.:.:.:.:.:.",
":.:.:.:.:.:.:.:.:.:.:.:.:.:.:.:.:.:.:.:.            . 5 k 4               :.:.:.:.:.:.:.:.:.:.:.:.:.:.:.:.:.:.:.:.:.:.:.:.:.:.:.",
":.:.:.:.:.:.:.:.:.:.:.:.:.:.:.:.:.:.            3 P E P R P K B 4 .         :.:.:.:.:.:.:.:.:.:.:.:.:.:.:.:.:.:.:.:.:.:.:.:.:.:.",
":.:.:.:.:.:.:.:.:.:.:.:.:.:.:.:.:.          5 U K ! O.$.&.&.&.&.O.U %         :.:.:.:.:.:.:.:.:.:.:.:.:.:.:.:.:.:.:.:.:.:.:.:.:.",
":.:.:.:.:.:.:.:.:.:.:.:.:.:.:.:.        o P ! E _ =.-.;.;.;.;.;.;.-.E %       :.:.:.:.:.:.:.:.:.:.:.:.:.:.:.:.:.:.:.:.:.:.:.:.:.",
":.:.:.:.:.:.:.:.:.:.:.:.:.:.:.        . } #.#.] I +.;.;.;.;.;.-.*.-.+.v %       :.:.:.:.:.:.:.:.:.:.:.:.:.:.:.:.:.:.:.:.:.:.:.:.",
":.:.:.:.:.:.:.:.:.:.:.:.:.:.:.      . E &.;.] 4 2 E -.;.;.;.#.N n  .O.P 4       :.:.:.:.:.:.:.:.:.:.:.:.:.:.:.:.:.:.:.:.:.:.:.:.",
":.:.:.:.:.:.:.:.:.:.:.:.:.:.:.      S #.;.-.M   * ! ..;.;.;.U     z K T 5 *     :.:.:.:.:.:.:.:.:.:.:.:.:.:.:.:.:.:.:.:.:.:.:.:.",
":.:.:.:.:.:.:.:.:.:.:.:.:.:.      . } -.;.%.5     & * | ;.;./       + K k 4     :.:.:.:.:.:.:.:.:.:.:.:.:.:.:.:.:.:.:.:.:.:.:.:.",
":.:.:.:.:.:.:.:.:.:.:.:.:.:.      * } ;.;.=.c       . ;.;.;._ .     o K z 7     :.:.:.:.:.:.:.:.:.:.:.:.:.:.:.:.:.:.:.:.:.:.:.:.",
":.:.:.:.:.:.:.:.:.:.:.:.:.:.      + ] ;.;.;.o.k . o m #.;.;.%.z % % z R j 6     :.:.:.:.:.:.:.:.:.:.:.:.:.:.:.:.:.:.:.:.:.:.:.:.",
":.:.:.:.:.:.:.:.:.:.:.:.:.:.      * ] ;.;.;.;.%./ ] *.;.;.;.=.{ Q Q ` W k 3     :.:.:.:.:.:.:.:.:.:.:.:.:.:.:.:.:.:.:.:.:.:.:.:.",
":.:.:.:.:.:.:.:.:.:.:.:.:.:.      5 %.;.;.;.;.;.;.;.-.;.;.-.@. . .{ ~ I x o     :.:.:.:.:.:.:.:.:.:.:.:.:.:.:.:.:.:.:.:.:.:.:.:.",
":.:.:.:.:.:.:.:.:.:.:.:.:.:.:.      _ %.;.;.&.#.&.%.O.%.%.X. .{ Q b % x z       :.:.:.:.:.:.:.:.:.:.:.:.:.:.:.:.:.:.    :.:.:.:.",
":.:.:.:.:.:.:.:.:.:.:.:.:.:.:.      % ..=.o.m 4 P '  .^ J I ' ) 5     2 *     :.:.:.:.:.:.:.:.:.:.:.:.:.:.:.:.:.. + .     :.:.:.",
":.. 9 :.:.:.  : :.:.:.:.:.:.:.        7 W U o   & I ( 8   o U ' x . % 7 .     :.:.:.:.:.:.:.:.:.:.:.:.        + 9 y 1 X :.:.:.:.",
":.# s G D :.> g g :.:.:.:.:.:.:.      . v m 3 o 4 T ' n   & T ' R c m %       :.:.:.:.:.:.:.:.:.:.:.:.      . 1 D D t @ :.:.:.:.",
":.@ y D h 1 w h 1 , :.:.:.:.:.:.          c k 7 L ( ^ T M N A M x c o       :.:.:.:.:.:.:.:.:.:.:.:.:.X . . - d F y = :.:.:.:.:.",
":.:.$ < f s y s $ $ :.:.:.:.:.:.:.          4 N V V n b l m S l l o       :.:.:.:.:.:.:.:.:.:.:.:.:.:.$   @ p D y @   :.:.:.:.:.",
":.:.:.. : a D f # @ :.:.:.:.:.:.:.:.% %           . * 6 l l z 3           :.:.:.:.:.:.:.:.:.:.:.:.:.. : X 9 d w O   :.:.:.:.:.:.",
":.:.:.. . @ h d + + :.:.:.:.:.:.:.                                          :.:.:.:.:.:.:.:.:.:.:.  @ d f u - + .   :.:.:.:.:.:.",
":.:.:.  . : h f # 1 :.:.:.:.:.:.          . 5 % . o * 4 4 * % % o             :.:.:.:.:.:.:.:.:.. @ e F F s ; $ .     :.:.:.:.:.",
":.:.:.. @ p p 1 0 s h :.:.:.:.          % ] Y S U E ^ ]  .} ] ] ] K 5           :.:.:.:.:.:.  O , p D s r e 9 0 w -   :.:.:.:.:.",
":.:.:.. 1 s # . . > p h :.:.        . N &.-.-.=.=.-.;.;.=.-.;.;.;.-.} P 8         :.:.:.:.. X . a h w + X . X + = =     :.:.:.:.",
":.:.q y f 1 . . . . . a 9 +       3 } ;.;.;.;.;.;.;.;.=.#.=.;.;.;.-.#.{ L v .     :.:.:.  . + 0 p > .     . . @ = X   :.:.:.:.:.",
":.:.$ 0 9 .   :.:.. ; f g >     l =.;.;.;.;.;.;.;.;.;./ j / #.-.;.%...| ] S l       :.    o e e $ .     :.:.:.:.:.:.:.:.:.:.:.:.",
":.:.:.. :.:.:.:.:.:.= t p =   4 #.;.;.;.;.;.;.;.;.;.X.3   c J E $.@.| |  .R m *   .   . O e w O       :.:.:.:.:.:.:.:.:.:.:.:.:.",
":.:.:.:.:.:.:.:.:.:.:.@ @ . . ! ;.;.;.;.;.;.;.;.;.;./ +   + o & Q @.| | } _ b j     . : e 1 .     :.:.:.:.:.:.:.:.:.:.:.:.:.:.:.",
":.:.:.:.:.:.:.:.:.:.:.      2 -.;.;.;.;.;.;.;.;.;.;. .3       2 ] $. .| | ' n l .   $ 9 $ @     :.:.:.:.:.:.:.:.:.:.:.:.:.:.:.:.",
":.:.:.:.:.:.:.:.:.:.:.      :.&.;.;.;.;.;.;.;.;.;.;.;.] j % 4 ! &.@.| | | ^ z 8   X $ O $ O :.:.:.:.:.:.:.:.:.:.:.:.:.:.:.:.:.:.",
":.:.:.:.:.:.:.:.:.:.:.      o ! -.-.=.=.-.;.;.;.;.;.;.;.%.[ ..*.O. .| | { L x &   @ . ; :.:.:.:.:.:.:.:.:.:.:.:.:.:.:.:.:.:.:.:.",
":.:.:.:.:.:.:.:.:.:.:.      . A  .$.X.X.o.%.;.;.;.;.;.-.=.&.$.X. . .|  .) x b o   o > :.:.:.:.:.:.:.:.:.:.:.:.:.:.:.:.:.:.:.:.:.",
":.:.:.:.:.:.:.:.:.:.:.:.      8 ! ' | |  . .@.=.-.&.#.o.{  . . .| | | | I Z o   .   :.:.:.:.:.:.:.:.:.:.:.:.:.:.:.:.:.:.:.:.:.:.",
":.:.:.:.:.:.:.:.:.:.:.:.        z Q { | | |  . .X. .| ( M R { ' {  .| ^ S *     o   :.:.:.:.:.:.:.:.:.:.:.:.:.:.:.:.:.:.:.:.:.:.",
":.:.:.:.:.:.:.:.:.:.:.:.:.        b J ` { _ T I ^ { } Z o 6 V C '  ._ U 3     o :.:.:.:.:.:.:.:.:.:.:.:.:.:.:.:.:.:.:.:.:.:.:.:.",
":.:.:.:.:.:.:.:.:.:.:.:.:.:.      o 4 j Z A b k 7 Z I j       o V I S n       * :.:.:.:.:.:.:.:.:.:.:.:.:.:.:.:.:.:.:.:.:.:.:.:.",
":.:.:.:.:.:.:.:.:.:.:.:.:.:.:.          N v 4 V ( { ' V .     + A R n .     % :.:.:.:.:.:.:.:.:.:.:.:.:.:.:.:.:.:.:.:.:.:.:.:.:.",
":.:.:.:.:.:.:.:.:.:.:.:.:.:.:.:.          j n M N V Y T n & % & %         . :.:.:.:.:.:.:.:.:.:.:.:.:.:.:.:.:.:.:.:.:.:.:.:.:.:.",
":.:.:.:.:.:.:.:.:.:.:.:.:.:.:.                    . b ^ m Z H .               :.:.:.:.:.:.:.:.:.:.:.:.:.:.:.:.:.:.:.:.:.:.:.:.:.",
":.:.:.:.:.:.:.:.:.:.:.:.:.:.          . % 5 b m C Z S R | / c 5 %               :.:.:.:.:.:.:.:.:.:.:.:.:.:.:.:.:.:.:.:.:.:.:.:.",
":.:.:.:.:.:.:.:.:.:.:.:.:.          3 U ] O.%.#.#.&.*.=.=.*.#. .! H b 6 V %       :.:.:.:.:.:.:.:.:.:.:.:.:.:.:.:.:.:.:.:.:.:.:.",
":.:.:.:.:.:.:.:.:.:.:.:.          4 ) =.;.;.;.;.;.;.;.;.;.;.;.-.O.| [ ^ U I J J * . :.:.:.:.:.:.:.:.:.:.:.:.:.:.:.:.:.:.:.:.:.:.",
":.:.:.:.:.:.:.:.:.:.:.:.        2 _ -.;.;.;.;.;.;.;.;.;.@.!  .&.o.|  .| ( M j n v o   :.:.:.:.:.:.:.:.:.:.:.:.:.:.:.:.:.:.:.:.:.",
":.:.:.:.:.:.:.:.:.:.:.        + ! -.;.;.;.;.;.;.;.;.;.O.7   w O.o.|  .{  .( S N A z       :.:.:.:.:.:.:.:.:.:.:.:.:.:.:.:.:.:.:.",
":.:.:.:.:.:.:.:.:.:.:.        C ;.;.;.;.;.;.;.;.;.;.;.L     7 / ^ {  . .| | _ U I I o       :.:.:.:.:.:.:.:.:.:.:.:.:.:.:.:.:.:.",
":.:.:.:.:.:.:.:.:.:.:.      % %.;.;.;.;.;.;.;.;.;.;.;.n     . o & !  .} | | | ` U T U       :.:.:.:.:.:.:.:.:.:.:.:.:.:.:.:.:.:.",
":.:.:.:.:.:.:.:.:.:.        :.;.;.;.;.;.;.;.;.;.;.;.;.T         & { $. .| | | | ] I Z 3     :.:.:.:.:.:.:.:.:.:.:.:.:.:.:.:.:.:.",
":.:.:.:.:.:.:.:.:.:.        :.;.;.;.;.;.;.;.;.;.;.;.;.%.M 2 * 7 ! -.-.X.| | | |  .{ B l     :.:.:.:.:.:.:.:.:.:.:.:.:.:.:.:.:.:.",
":.:.:.:.:.:.:.:.:.:.        ! ;.-.;.;.;.;.;.;.;.;.;.;.;.*.o.O.*.;.;.;.@.| | | | | { C c     :.:.:.:.:.:.:.:.:.:.:.:.:.:.:.:.:.:.",
":.:.:.:.:.:.:.:.:.:.        ] ;.&.;.;.;.;.;.;.;.;.;.;.;.;.;.;.;.;.;.;.@.| | | | | ' v m     :.:.:.:.:.:.:.:.:.:.:.:.:.:.:.:.:.:.",
":.:.:.:.:.:.:.:.:.:.      . ] ;...;.;.;.;.;.;.;.;.;.;.;.;.-.=.;.;.;.&...| | | | | ~ 8 n     :.:.:.:.:.:.:.:.:.:.:.:.:.:.:.:.:.:.",
":.:.:.:.:.:.:.:.:.:.      o ! -.;.=.;.;.;.;.;.;.;.;.;.;.=._ U $.-.&. . .| | | | | Y 5 l     :.:.:.:.:.:.:.:.:.:.:.:.:.:.:.:.:.:.",
":.:.:.:.:.:.:.:.:.:.      . L &.;.&.=.=.-.;.;.;.;.;.;.-.T 2 + S | ^ ( { | | | | { A j 4     :.:.:.:.:.:.:.:.:.:.:.:.:.:.:.:.:.:.",
":.:.:.:.:.:.:.:.:.:.:.    . C } =.$.o.O.@.#.%.*.-.=.&. .k     * n * l ( | | | | ^ j V o   :.:.:.:.:.:.:.:.:.:.:.:.:.:.:.:.:.:.:.",
":.:.:.:.:.:.:.:.:.:.:.      5 ! o. . .{  . . . .X.X. ._ j           4 _ | | | ' C H %     :.:.:.:.:.:.:.:.:.:.:.:.:.:.:.:.:.:.:.",
":.:.:.:.:.:.:.:.:.:.:.        U (  .| | | | |  .| | | ' B o         M | | | ' L B 3       :.:.:.:.:.:.:.:.:.:.:.:.:.:.:.:.:.:.:.",
":.:.:.:.:.:.:.:.:.:.:.:.      * Q { |  .| | ' { | | | | ( c o . o 8 ) { ` T S J %       :.:.:.:.:.:.:.:.:.:.:.:.:.:.:.:.:.:.:.:.",
":.:.:.:.:.:.:.:.:.:.:.:.        b ^ ' | | | { ' | | | |  .' U Z H ( ) I x 8 n o       :.:.:.:.:.:.:.:.:.:.:.:.:.:.:.:.:.:.:.:.:.",
":.:.:.:.:.:.:.:.:.:.:.:.:.        8 ! J Y R W Q R R U I U U T R R K l %             :.:.:.:.:.:.:.:.:.:.:.:.:.:.:.:.:.:.:.:.:.:.",
":.:.:.:.:.:.:.:.:.:.:.:.:.            o % * 2 2 2 & % % o o * 3 3 %               :.:.:.:.:.:.:.:.:.:.:.:.:.:.:.:.:.:.:.:.:.:.:.",
":.:.:.:.:.:.:.:.:.:.:.:.:.:.                                                  :.:.:.:.:.:.:.:.:.:.:.:.:.:.:.:.:.:.:.:.:.:.:.:.:.",
":.:.:.:.:.:.:.:.:.:.:.:.:.:.:.:.                                            :.:.:.:.:.:.:.:.:.:.:.:.:.:.:.:.:.:.:.:.:.:.:.:.:.:."
};
