/* XPM */
static char *result[] = {
/* columns rows colors chars-per-pixel */
"64 64 68 1 ",
"  c #5F7C90",
". c #627E91",
"X c #648396",
"o c #658699",
"O c #698799",
"+ c #66899B",
"@ c #6A8C9D",
"# c #6F909F",
"$ c #70929F",
"% c #678DA0",
"& c #6B8FA0",
"* c #6D94A3",
"= c #6E98A7",
"- c #6D97A8",
"; c #6E9AAA",
": c #7195A4",
"> c #7399A6",
", c #799BA7",
"< c #7197A8",
"1 c #749CAB",
"2 c #799EAB",
"3 c #749FB0",
"4 c #76A0AE",
"5 c #7AA1AE",
"6 c #6FA6B5",
"7 c #76A3B2",
"8 c #7AA5B3",
"9 c #77A8B6",
"0 c #7CA9B6",
"q c #78A7B9",
"w c #75AAB9",
"e c #7DACBA",
"r c #7EB1BE",
"t c #7DB3C2",
"y c #7DBDCB",
"u c #7DC0CF",
"i c #7CC4D2",
"p c #80A7B4",
"a c #81AAB6",
"s c #81ADBA",
"d c #82B1BD",
"f c #83B4C1",
"g c #88B6C2",
"h c #85B9C5",
"j c #89BAC5",
"k c #85BCC9",
"l c #8BBDCA",
"z c #87C1CE",
"x c #8BC1CD",
"c c #90C1CD",
"v c #83C4D2",
"b c #8EC5D3",
"n c #82C8D6",
"m c #89C9D5",
"M c #82CCD9",
"N c #8FCCDA",
"B c #92C6D3",
"V c #94CAD6",
"C c #98CAD6",
"Z c #93CDDA",
"A c #9ACDD9",
"S c #8AD2DE",
"D c #94D0DD",
"F c #9CD2DD",
"G c #97D4E1",
"H c #99D6E3",
"J c #9BD9E6",
"K c #A0D5E1",
/* pixels */
",141>45e05,$5p5,O:2840l82*122$O,,o,>>5558a5,ppapppp84>>,4455550a",
">;470ehr854,500>O#1818:::2122@5f1@>,45>5p8::8aaa088541>455085,50",
"==17rdh5554>450$OO1810e881,12,as8O=4,5,55,@2aap85225044580sa5580",
"r7errzz455,>>>5O:#&887zh8888<88aeX,855552X>70852>:>0jdaa0sjp5555",
"etdddh5845>>>*>o:<p800fe002**0fgsX4>5005O#4114,,>:>5550addd05555",
"9e8eee454>>>>>>O<88000Gl0071h0sa8O$4555#@:>,,4;>>>>2>,50add08448",
"7147074254>=##*X%p0s0afGhfhfss0884@*@4X*4O>>;>>-*>>5>,>550558545",
";;145:,>4,>>##X#%sppseeZek048148454O4@*5>o+>->>1>>:>,>5555545555",
">;<22::#$,>>*O@$&0as7*fh59464=14044X&*@ooX@<<1>1,>>:,1>>>5858845",
"1<<>13><$@XOX#$$+-<e&8V19w674331541*+@---O1@:1;>45>>4,<>,>780845",
"12:1&&@&@$O@1,,@+1@4HGh>46476117>447*9077*:X#>115855884>>4588845",
"2100pa0&bx:5>:2:ew@6Nk3849446777417;@471>1oX:&3758800dd055808845",
"2180ss3HZV:#@O,3>>O=Dk0098943387147;*457411o@@274000ehe0880s008@",
"00800%HlfC#OO:<*:-o1Gjd084w083q777447088847-&>000eet0fhepp0s008V",
"08283JgssZ:@11<>;;o1Jdessedrq88378789e87447+@0990et988ek088gfdAg",
"801@jp0880:253>;>-o1Jr0drree0e0q799e07971;;XO4>>;;>11170080>pHp8",
"8<&l82q805>874444>o0Zeddsheest009700r8413;oX+;;;;=>1>44ww40X5e05",
"1@ss888800:111;11=O7uyhdsaee00q07900e774;oXoX=;;;1;3;11=*+@58ds8",
"Xjpaq08q4>X1;>11,;o4yikkhfsf03ap90ee9474**@*@X;3;=;3;1***X@80078",
"f8p00281<OX431177=o43itree0estaf000e01*#=14;*o;;6;33>>>o#o547788",
"18se0731OO#>15477*87tNw77110ee990e7q#XX4;36;:O&oX=;;#;O#*>##-,58",
"18000770::OO13774@07vtw451,70079021@o#>>13481o<oXo@*@X#>>>##*->5",
"1208288e<*<O>1800+8zu44>1;-;79q0*<1<X#74;3337+Kcr9tde4X#*>>:*>>>",
"2328820%>11#75390%yi74441>>11ww;*17>X4w741;411AherDSVze#Oo>,>,>,",
"838p828jB01*88889+et;4,1;;412<O@;11;@173;=44*dg;;9Fdgjxss>X#55$p",
"03388338ZVf:17500+kt7>**;;4@  .@;3;@*;;;1184Xj,-1,Cljdaesp,4$0aa",
"712217712j2><17tfobq7;;;=;-*-*o@;*oX;;-*=16+@;1=;4ABgs0ap8a55#$p",
"072219078e73*;413oh91;=1*341--*X-oX*1;=>===#<>=>=1Chdssa055$5,#X",
"h9830q50qb03<<;-1o0f<*;3900eeq7*#:*-*@o-=+++4>**=>xdas0a055,,>,>",
"23733088fb3211**%oth:#,p840qqt01-<>1>=+oXX=w7==*:>jdap5p055,,>,>",
"23111t0rfkee*1&-+oze#11800117i9-=;41=71o+674;=>>$5jsp5555p55,5,4",
"812trsr8bh8311*-+oV1#1308778eM9*;>1;=10+%1w===,$$pdp5pp5,,555,,5",
"38803p8ll:111;41@Ox@>>400559ed9;;>14=>1*o1r;13;*4rB5$pp$,p,p5p,p",
"eee8p32f:1>>>171O@e@505008580ze9>>;;;=-*X97;4;45dddspp$p5$$pp$,p",
"0ee038Z2@2,,134=oo##5e80e4>>8d04>;,1;;>,.&73=*4ejaad55$5,,,,5,,p",
"qeqqq0Z+::1,47,>oo#445589=445a047;>>-;11+Okh**50asdd55,,$5,555,,",
"w777qqh&>8221<12X++14>59714450d91;==<:,1&o8k;1<2,5dda54>>=4455,,",
"93337b31:22111,,X+*744>>4>=>5er4>>==<-11<ob0>8>2>,Ax0p>$==$=,555",
"27713V<<<208711,o-;44>>44>40re7>=1*=**11<ole,,:1545Cda55>>$$=,,,",
"12112l%7238e0051o;145=;440ehz4>*>1#*-<243obf822855,Ca5s5=>44$==>",
"094bj<<2318q0t73o1008>=17edh4>>>**#$:>28>obe22282,:C28p2>4>,;>->",
"90Jd1448e7870e1-X;19rr7erfmn=,,>$:*,<123:.f002222:220821>>11>;-<",
"80G18000e17363;*X%;49etdgfk7>=4>,,452,22%#3gsp8822220p224440,4>:",
">eG5dsetft0731;&X*;=39e8edz1>1,455,5,,3:O<<lppps22p20app5>>,14>:",
"eeG0hf00087;1;@%+;;*19118kN>>1180025822%:2%lsp8p,2285lpp8,,>=>:>",
"70J0tte00774;=%o+;;;;1;;7ebf1>1740q882&X22%lfs8p5pp,,ad,27,>:>>>",
"70ht0930943;;;*o@;7;1=;-10k1;;3779w671o:3p&fla2222228ps2284>>>,>",
"ee8311174634;=-X;71;4>--7bh*;;7907708oo332:3lpp222288sf22051:>>:",
"be>;=14;446>=*##;=*=>>>4rD>#*;70q8888&>148>*d555p,2p8ps02882<-*$",
"h;113;144114;*%=;-;;,550zh##-=10eq321&<1,88@pp5s2pp252sf2202:<<<",
"1=1>;14>1;144=+411;>18x8==***-;478>>&&78400@p525pp,222a0222>:>-*",
"54,114444111;#=484117fV7*==%->;;111&&<23>14@,,>2,22p020212>>$:X*",
"17877>=6771>4#7527,20re-*==**=;;;117730e<<>&**:>:,255252>1++:dCj",
";7780137we445*90081887e;=%;;-**;37&lee0e@@*&*->>,,>25522+&sBcd2,",
";07qee9464884*47971887k;;;3;-==;3>*V000q9=<&@>11<>-<10-782a08023",
"-17qqe0,>;47,O10731888b;;13611413+qCs000741-+&<-*;1&=,0d82187212",
"-1700aa04>44>#o#882721h-<111327373l02pft8109Xo@oX+%18130223811>2",
";1775adj5,484*OXO88828g*<><>>13087Ve80807300ooo@*,442382228311>,",
"<1,4,dgapdd54=#o>&<188s--<11731212Ae88852200oo&*;>>7333323222131",
"><;;,5dgdds444*O&:&&&&<<>:328>7255Ae44581800@&8097<<-72e02812882",
";-<<180e09w9=>*#&&&12+&13177113854F44474288&:0q0088838032782328q",
"-1>1;47,>=45=4>+&0bb1*X:8187173311C8444,132X&t088q0q002228731288",
"&111;=>4454=4;1@*Hk111+&81351871,;Fwq1141;2:<0000q07833222388032",
"%7334;55445>44=%8V311>%&13977777;7V;4;44<2,:1ssp07872322222qqesp"
};
