/* XPM */
static char *result[] = {
/* columns rows colors chars-per-pixel */
"64 64 74 1 ",
"  c #5F7C90",
". c #617F93",
"X c #638396",
"o c #658699",
"O c #698799",
"+ c #66899C",
"@ c #6A8C9D",
"# c #708F9F",
"$ c #6E919F",
"% c #71919F",
"& c #678EA0",
"* c #6B8FA0",
"= c #6790A0",
"- c #6D93A3",
"; c #6E98A7",
": c #6E97A8",
"> c #6E9AAA",
", c #7195A4",
"< c #7399A6",
"1 c #799BA7",
"2 c #7197A8",
"3 c #739CAB",
"4 c #799EAB",
"5 c #739FB0",
"6 c #75A0AE",
"7 c #7AA1AE",
"8 c #6FA6B5",
"9 c #76A3B2",
"0 c #7AA5B2",
"q c #77A8B7",
"w c #7CA9B6",
"e c #78A7B8",
"r c #75ABB9",
"t c #7CACBA",
"y c #7DB1BE",
"u c #7FAFC0",
"i c #7DB3C1",
"p c #7CBCCB",
"a c #7DC0CF",
"s c #7CC4D2",
"d c #80A3AF",
"f c #81A6B2",
"g c #82AAB6",
"h c #82ADBA",
"j c #89AEBA",
"k c #83B2BE",
"l c #89B3BD",
"z c #83B4C2",
"x c #88B6C1",
"c c #85B9C6",
"v c #89BAC5",
"b c #85BCC9",
"n c #8ABDCA",
"m c #90BDC8",
"M c #8BC1CD",
"N c #91C0CD",
"B c #80C6D3",
"V c #8CC4D1",
"C c #82C8D6",
"Z c #89C8D4",
"A c #82CCD9",
"S c #93C5D2",
"D c #92C9D6",
"F c #93CDDA",
"G c #9ACDDA",
"H c #8AD2DE",
"J c #95D1DF",
"K c #9DD2DD",
"L c #97D3E0",
"P c #9AD5E2",
"I c #9AD8E5",
"U c #9CDBE8",
"Y c #A1D7E2",
"T c #A5DBE6",
/* pixels */
"744fOd4412n14f04X,,%%140hP39777w7o36%7770h71Gz0f0004966>>3OXuV53",
"900fO544*z04400,O,,,,#,,0P44177k7o777717f0,vVhgf00099eyteq&Xq543",
"4000.454*J44300,OX<XX<,tFV3471ghwo676717417Jhgf0777erttyc0@o30we",
"dff4#5f55G3<<34O,,O,#@nFx0007wfgto6077771,M700943<6kziyti6+o33ek",
"04d4.*g-v0<:<,<O<<50wwkVww0wkkkxtO%67777%,v337433<70hhee9>X+><69",
"0004XX4*k3<<3,<+<0gwttUthttkMNhh7X667776,,3<<33<<39www999<o=-;;9",
"0f04Xo*-43<<-$:X4fwggvZxzkbkbtw97O6<66777,3<<<<>,1477333>-o>>>-6",
"4f0<O.X<73<<%%.#0wwwhDntebt677799o%616777$,;<;<63<<33333,-o=>>>>",
"044**oX-,173,+@,wwghcFbw09666<<6wo;36737w6@,33<33<<133<3<:o+>655",
"f04@=OXX%,@XO@,1gwhkDnw69r8863836O;69979963%,<><77<3663,->o>6>33",
"4f@,*OOO@#O#<11,wywqZcq<88598>596o69www6697,#,337777767<-o->;->;",
"7*hNGmw4@,,43,43wr6qie67679999096O>996936679,,39797wwyt6:X;>;;;6",
"@zGSxzNk@9#-@O403<<3zywww99q3tb9>o3666666699$$0979whtzw73o<33;>6",
"x00gghkv4*#OO,<2,->6ylktw9qw0wVVM+;66qww669w,<9wetyztlye=o6666<6",
"f00f0hhh0@##3622;>:3ykyttkyt0e00Z+>0qt97666oow99wtye79wt*967676w",
"0400fw0002+3733>3;;<hywkhtkttteeD$wtw9w633>X@633>3>3366wOeww7677",
"04407000f7O696666333wtkktzttthttF=wwtq935>XX+>>>;;>6<669o6q6969w",
"0f400009w0o-33>33399abcyhhkt0tetF=www966>oXXX;>>><53>36-X;7766w7",
"0f00w00e93X+>3333699psbbxkkktwfhF:ttw666;-@;@o>>3;;3>3<ooo$w9993",
"40f0w994,+X79<366ww7>piyttwththzD2wtt3-$;335$o;85>8><3-X++o+433=",
"30ht0954@O@,379997e79ir6673wttezD29w%XX7>86>-@@oX;>>$>o+=$@,OXXn",
"400tw00e,,+O36999097p8r>63<6tweyx:3@O@,335963oXoX+@-@X$33%$OXX23",
"35w0449t,,,+<39w0w9Ba66333>369eq-=<<X;965>656OX3r9Zyh6o$31,OXJ33",
"4540w00*<33*977w09ps96663<>3>tt>:59>o<r666>66X@99yJHDMw@X4<O<313",
"040004etz93,9e00w9tt>6333>6<3,+@269-*3933<69-X$366JklMMho7oo7777",
"05409944FFk4<e79teyq9<-->>6@. .@5><*->>>;666X@-;><Mnvktg3oXOglff",
"9544399340LF,69ykgce9>;;;>:;-:X@>-+X;>::;>8+@>3;;6tnkhhwf@+3f07f",
"39493ew9035V=>6669z93>;3-36>::-X=OX=>3;;;;;$,<;,;6gykkhgw7$$1777",
"-&55te7we56M,<>;6336<-<6wwttte9,#,$::@O-;+o+6;$;;;khggtg076$$611",
"42**9yeeee996*$:>;;3,$3w969weye3;,33<;+oXX-r9;;;;1vkgf77w771X%%6",
"455&.:ibttzteX@;-:36%360w9639A9<>>36;63++8r6>;6%%7vhg0777d77XO17",
"544uXX>e30e9no@-,<<3$33ww79etA9:><>3>3e+$;r>;;%1%wlddd777777O$17",
"99eq X-O@%:3c$O,<<<%<73w076wyyq6><33;<3=X6y3356;,kk07d117%77X%77",
"htiqXXO,OX$--;X%,<$@6w7ww766wMw8><3>;;,,X98;6;67kchkdd177711%$7d",
"0etqXX@3<+X@->XXO+$$7w7tt6667gw6<>36>>eh.$:>;$6tMwhl71%61111o17d",
"3,58o :<<,$o=;XO#$$6666796667gw763,<::eVX-;3;;<wgkvldd171177$177",
"9,3>X >;,--$-o@@3,+466666>767wk83><<,,3M&X<3<3<,<6lhfgddfff1$717",
"3>33Xo>><3-==-XX@@:66<3767;<0ty7><;;,;3bzo23<933;7tkwggjjgj66f67",
"3<;< o6>39692>2@O<936<666669yw9<-3,;-:3kvX<,34,<777hlggjjjj%7d17",
"<<<6X@999qqytqr++9e366<660wcM6<,<3=--,3zbO=9444f7773t7glgjj%%711",
"<<3gO,teeytiybeOOet0933369gb7<,,,;$%,<4w5.&e44707,,17%1dgfjk$<fw",
":><x@,wwciirti5o+e3ehw9wwwZC<33<%-%1<<40@O@4w4406111d711%67MkO7g",
",<:n-3weyzzq89>X,y<59wwewyb6;<6131673444O4Ofhg0h7111711%1670G;6%",
";,<M,7hbbct953:oez<39999wMK3<<367771444,#,X0fgnc17777d7d7%%7M%%1",
"<,3n*ettteq5<:*+ep>>39337nG3<339w764744XO&O,ggvg177777d77%%1%+$6",
"<,9x&eutq7962:&+et3336336Mn;3<399wwee7+@444#hzzh7f747773%<<<%$$6",
"2<3Soqtr936>5>=o,<93933>69<>><999eq9e-X,34d*zzhzff77677617<<<$%<",
"<>9DXrut6366:--+z3>533<59t:->>9ewe9weX+<5f5-gggnk9f70f0w7766;+%%",
"2<zSoqur9333<-$@F>:>3443y9$-:>9wee0e-O,,779,3lhnxlkgwwfyt776;+$<",
"><ww&trq93333<:+F<>3369xy=$$-;3ete43o@<,40w3,kflxMlljggyw797%+$Z",
"**2*@eee43473;:+F93339wG;$=--:>6093O@&59799g@k7dghgtghhw7311%@nJ",
"0zG&<99933333<:@F9337wlK3;-::<>>52*o*,-o3676+%,317gkMlg6<7<1%oMq",
"z4Y.543733336<;@Fw47etzS-;>>-->>2>o263tM,<<<&+,<1177w7w623331oL6",
"25G.e53373776<6+F03704zF-->>;-->2&&9teeL@@->=@<<13,%77ww9374-$J<",
"5en&t53433996<9@Fe3009iG>>>>-:;>@**whweF9x9,-+9<<<;;60wr9444*@k3",
"-4n&w033<779379@k53e09eG>>99>96-+3kehwte95It@Xo-,;6<>67t043e+9<7",
"-5z+www67;67;00+0999444K<335353onIte4hki96eD3X@O&:9393544449+n&3",
"23z-lttx7370670+O090094G,22<<3@Vz9eh9fww73wwco-O+X9394944393+D&,",
"22wO6yxfdhk7700+,#,3404P22<,3OVF35etw77737t0+O*,w93955557<>,OL**",
"22e$Swgvkly6ww0+*<**#320<<13&Dn4040h669749h05,9exV3oXoo*+-*+OL3@",
"529*Dwtww9y66h7$**@343-<522*nz9974676696770#,et0ehnDnncu9502&z0X",
"325&S696<6>7<60+,97333X,&+o<n955336q6666339X-ze0ee0ttweeee5-*Sh&",
"444OKw67666<;60+,663335=o+X5399533rrr336254,,t300wee00959002*Fh*",
"e53&T66766666<6$933332>2oXo99599<3636<36244%30hh090945400452:nh3"
};
