/* XPM */
static char *e8290e8d17f64e56bc718cc6bc430823Bc2kJuV695dMG8Dx[] = {
/* columns rows colors chars-per-pixel */
"56 56 4 1 ",
"  c white",
". c #FF944A",
"X c black",
"o c #BD4A52",
/* pixels */
"                                                        ",
"                                                        ",
"                                                        ",
"                                                        ",
"                                                        ",
"                                                        ",
"                                                        ",
"                                                        ",
"                            .XX   .XXX                  ",
"                           X   XXX    XX                ",
"                       .XoX     X     ..X               ",
"                     .X  X     X      .XXXo             ",
"                    .    X    o     .Xo . .XX           ",
"                    X   X. . .X . . X  . . . X          ",
"                   X   .X . ..X. ...X   ... . X         ",
"                   X. . X....X ....X . ...oXXXXo        ",
"                  XX ...X....X.....X....Xo    .XX       ",
"                 X X....X....X.....Xo..X   . . ..X      ",
"                X . X....X...X.o.oXo.oXo. . . . ..X     ",
"               oXo .X....Xo.ooX.o.X.oXo...........X     ",
"             oo..XXXoX....XoooXo.oXo.X.o...XXX.....X    ",
"        oX  X..Xo...XXX.ooXooooXooXoX.o.o.X   X....X    ",
"        o oXX.X....X...XoooXoooXoXooXooo.X   ..X...X    ",
"        X .X X . .X.....XoooXooXoXoXoooooX ....X...X    ",
"        X..X.X. .X. .....XXooXooXXoXooooXX....X...X     ",
"        X..XoX..oX . XX..X XooXoXXXoXoXX o.......X      ",
"        X...XoXooX...Xo.oX  XoXXX...oXX   oX...Xo       ",
"        XX..XoXoooX..oXXooXXXXX. . ...XX    oXX         ",
"         X...XoXooXoooooXXX.. . . . ....o               ",
"         XX.XooooooooXX...oXXX . .......X               ",
"         Xo.ooooooXXX.........oX.........o              ",
"         X.XooXoXoX......XXXXXX.X........X              ",
"        X..XooXoXX.....XoooooXXXX.........X             ",
"        Xo..XooXX.....X.XXoooooX..........X             ",
"        XX..XoX........X..XooXX...........oX            ",
"        X o..X...........XoXX...... .......X            ",
"        oXX.......XXX....oXoo....   ........X           ",
"         oX......X XXX..oXoo...    Xo.......X           ",
"         XX......XXoXX.oXooo..o  XX Xo.o.o...X          ",
"         X .....XXooX..XXoo....XX    XX.o.o.oX          ",
"         X .......XX..XXoo.o....X      X.o.o.X          ",
"         o XX.......oXXXo.o......X      X.o.oX          ",
"          o.......oXXXXXXo.o.....X      Xo.o.oX         ",
"           X....oXXXXXo. XXX...oooX      XooooX         ",
"            XooXXXX         XXooooX      XXXooX         ",
"            XXXXXXo          XXooXX     XoXoXX          ",
"            XoXoXX           XXXXXX     XXXXXX          ",
"           ooXoXXo           XXXXX       XXXX           ",
"           XXXXXo           XoXoXX                      ",
"            XXX             XXoXoX                      ",
"                             XXXX                       ",
"                                                        ",
"                                                        ",
"                                                        ",
"                                                        ",
"                                                        "
};
